<svg width="443" height="304" viewBox="0 0 443 304" fill="none" xmlns="http://www.w3.org/2000/svg">
<path opacity="0.1" d="M257.393 50.123C228.994 49.1145 201.942 39.7129 176.114 29.4284C150.287 19.1439 124.698 7.74501 96.9801 2.29473C79.1498 -1.2093 58.7595 -1.70371 44.395 8.09423C30.5675 17.5116 26.1021 33.8114 23.7028 48.9027C21.8955 60.2819 20.833 72.2302 25.7806 82.8717C29.2189 90.2604 35.323 96.468 39.5454 103.543C54.2275 128.165 43.8579 158.528 27.933 182.57C20.4841 193.847 11.8081 204.606 6.04897 216.61C0.289818 228.613 -2.37609 242.37 2.6617 254.616C7.66028 266.757 19.5628 275.872 32.4572 282.284C58.6497 295.311 89.5155 299.039 119.613 301.15C186.237 305.823 253.218 303.798 320.019 301.774C344.741 301.02 369.569 300.263 393.892 296.343C407.394 294.165 421.335 290.712 431.136 282.37C443.584 271.775 446.669 253.855 438.326 240.581C424.35 218.32 385.667 212.796 375.889 188.891C370.506 175.738 376.034 161.087 383.856 148.868C400.635 122.699 428.761 99.7405 430.242 69.8248C431.262 49.2793 417.74 28.7025 396.836 18.983C374.921 8.78091 344.537 10.0758 328.369 26.9407C311.723 44.3353 282.469 51.0176 257.393 50.123Z" fill="#FCC94B"/>
</svg>
