<svg width="43" height="43" viewBox="0 0 43 43" fill="none" xmlns="http://www.w3.org/2000/svg">
<path d="M21.5 43C9.6 43 0 33.4 0 21.5C0 9.6 9.6 0 21.5 0C33.4 0 43 9.6 43 21.5C43 33.4 33.4 43 21.5 43ZM21.5 1C10.2 1 1 10.2 1 21.5C1 32.8 10.2 42 21.5 42C32.8 42 42 32.8 42 21.5C42 10.2 32.8 1 21.5 1Z" fill="#696969"/>
<path d="M20.3 33.3C20.2 33.3 20.1 33.3 20 33.2C19.9 33.2 14.3 29 10.4 23.4C7.2 18.8 9.2 14.7 10.3 13.2C10.3 13.2 10.8 12.3 11.7 11.9C11.7 11.9 11.8 11.8 11.9 11.8C16.3 9.50001 20.2 12.9 21.5 14.1C24.6 10.4 27.5 10.5 29 10.9C31.6 11.6 33.6 14.3 34 17.5C34.7 23.1 26.5 30.1 26.2 30.4C26 30.6 25.7 30.6 25.5 30.3C25.3 30.1 25.3 29.8 25.6 29.6C25.7 29.5 33.7 22.7 33.1 17.6C32.7 14.8 31 12.5 28.8 11.9C26.6 11.3 24.2 12.4 22 15.2C21.9 15.3 21.8 15.4 21.6 15.4C21.5 15.4 21.3 15.3 21.2 15.2C21 15 17 10.3 12.4 12.7C12.3 12.7 12.3 12.8 12.2 12.8C11.5 13.1 11.2 13.8 11.2 13.8C10.3 15.2 8.5 18.9 11.3 22.9C15.1 28.4 20.6 32.4 20.6 32.4C20.8 32.6 20.9 32.9 20.7 33.1C20.6 33.2 20.4 33.3 20.3 33.3Z" fill="#5E5E5E"/>
</svg>
