<?xml version="1.0" encoding="utf-8"?>
<!-- Generator: Adobe Illustrator 24.2.0, SVG Export Plug-In . SVG Version: 6.00 Build 0)  -->
<svg version="1.1" id="Layer_1" xmlns="http://www.w3.org/2000/svg" xmlns:xlink="http://www.w3.org/1999/xlink" x="0px" y="0px"
	 viewBox="0 0 17 11.3" style="enable-background:new 0 0 17 11.3;" xml:space="preserve">
<style type="text/css">
	.st0{opacity:0.3;}
	.st1{fill:#5E5E5E;}
</style>
<g id="layer1" class="st0">
	<path id="circle2141" class="st1" d="M13,0.3c-0.2,0-0.3,0.1-0.4,0.2l-1.2,1.2c-0.9-0.4-1.9-0.8-3-0.8c-1.9,0-3.5,0.9-4.7,1.9
		c-0.6,0.5-1.1,1-1.4,1.4C2.1,4.4,2,4.6,1.9,4.7C1.8,4.9,1.7,5.1,1.7,5.4c0,0.3,0.1,0.4,0.2,0.6C2,6.2,2.1,6.4,2.3,6.6
		C2.6,7,3.1,7.5,3.7,8C4,8.2,4.2,8.4,4.5,8.5L3.5,9.5c-0.2,0.2-0.2,0.6,0,0.8c0.2,0.2,0.6,0.2,0.8,0l1.2-1.2c0.9,0.4,1.9,0.8,3,0.8
		C10.3,9.9,12,9,13.2,8c0.6-0.5,1.1-1,1.4-1.4C14.8,6.4,14.9,6.2,15,6c0.1-0.2,0.2-0.3,0.2-0.6c0-0.3-0.1-0.4-0.2-0.6
		c-0.1-0.2-0.2-0.4-0.4-0.6c-0.3-0.4-0.8-0.9-1.4-1.4c-0.2-0.2-0.5-0.4-0.8-0.6l0.9-0.9c0.2-0.2,0.2-0.6,0-0.8
		C13.3,0.3,13.1,0.3,13,0.3z M8.5,2c0.7,0,1.5,0.2,2.1,0.5L8.5,4.5c0-0.1,0-0.2,0-0.3c0-0.4,0.3-0.8,0.7-1C8.9,3.1,8.7,3.1,8.5,3.1
		c0,0,0,0,0,0c-1.2,0-2.2,1-2.2,2.3c0,0.4,0.1,0.8,0.3,1.1L5.3,7.7C5,7.5,4.7,7.3,4.4,7.1c-0.5-0.4-1-0.9-1.3-1.2
		C3,5.7,2.9,5.5,2.9,5.4c0,0,0,0,0-0.1c0,0,0,0,0-0.1C2.9,5.2,3,5,3.2,4.9C3.5,4.5,3.9,4,4.4,3.6C5.5,2.7,6.9,2,8.5,2z M11.6,3
		c0.3,0.2,0.6,0.4,0.9,0.6c0.5,0.4,1,0.9,1.3,1.2C13.9,5,14,5.2,14.1,5.3c0,0,0,0,0,0.1c0,0,0,0,0,0.1c-0.1,0.1-0.2,0.3-0.3,0.5
		c-0.3,0.4-0.7,0.8-1.3,1.2C11.4,8,10,8.7,8.5,8.7C7.7,8.7,7,8.6,6.3,8.3l1-1c0.3,0.2,0.7,0.3,1.1,0.3c1.2,0,2.3-1,2.3-2.3
		c0-0.2,0-0.4-0.1-0.7c-0.2,0.4-0.6,0.7-1,0.7c-0.1,0-0.2,0-0.3,0L11.6,3z"/>
</g>
</svg>
