<svg width="11" height="7" viewBox="0 0 11 7" fill="none" xmlns="http://www.w3.org/2000/svg">
<path d="M10.4995 1.00781C10.4999 1.13747 10.4752 1.26559 10.4272 1.38274C10.3791 1.49989 10.3091 1.6031 10.2221 1.68478L5.72267 5.87678C5.58848 6.00443 5.42018 6.07422 5.24648 6.07422C5.07279 6.07422 4.90448 6.00443 4.77029 5.87678L0.270903 1.53724C0.117761 1.38992 0.0214555 1.17823 0.0031732 0.948729C-0.0151091 0.719231 0.046129 0.490727 0.173416 0.313486C0.300702 0.136244 0.483611 0.0247841 0.681904 0.00362492C0.880197 -0.0175343 1.07763 0.05334 1.23077 0.200658L5.25023 4.08021L9.26969 0.330844C9.37976 0.224714 9.5138 0.157297 9.65594 0.136572C9.79808 0.115847 9.94238 0.14268 10.0718 0.213897C10.2011 0.285114 10.3102 0.397734 10.386 0.538431C10.4618 0.679128 10.5012 0.842013 10.4995 1.00781Z" fill="white"/>
</svg>
