<svg width="15" height="9" viewBox="0 0 15 9" fill="none" xmlns="http://www.w3.org/2000/svg">
<path d="M14.4995 1.39182C14.5 1.57088 14.4659 1.7478 14.3996 1.90958C14.3333 2.07136 14.2365 2.21389 14.1163 2.32669L7.90282 8.11571C7.71752 8.292 7.48509 8.38837 7.24522 8.38837C7.00535 8.38837 6.77292 8.292 6.58762 8.11571L0.374108 2.12294C0.162624 1.9195 0.0296294 1.62716 0.00438208 1.31023C-0.0208652 0.993301 0.0637027 0.677744 0.239482 0.43298C0.41526 0.188215 0.667852 0.0342922 0.941688 0.00507164C1.21552 -0.0241489 1.48817 0.0737267 1.69966 0.277167L7.2504 5.6347L12.8011 0.456951C12.9531 0.310389 13.1383 0.217288 13.3345 0.188667C13.5308 0.160047 13.7301 0.197102 13.9088 0.29545C14.0874 0.393798 14.238 0.549323 14.3427 0.743621C14.4474 0.937919 14.5018 1.16286 14.4995 1.39182Z" fill="#5E5E5E"/>
</svg>
