<svg width="13" height="15" viewBox="0 0 13 15" fill="none" xmlns="http://www.w3.org/2000/svg">
<path d="M11.2532 13.4567H0.753152C0.55424 13.4567 0.363475 13.5357 0.222822 13.6763C0.08217 13.817 0.00315221 14.0078 0.00315221 14.2067C0.00315221 14.4056 0.08217 14.5964 0.222822 14.737C0.363475 14.8777 0.55424 14.9567 0.753152 14.9567H11.2532C11.4521 14.9567 11.6428 14.8777 11.7835 14.737C11.9241 14.5964 12.0032 14.4056 12.0032 14.2067C12.0032 14.0078 11.9241 13.817 11.7835 13.6763C11.6428 13.5357 11.4521 13.4567 11.2532 13.4567ZM0.753152 11.9567H0.820652L3.94815 11.6717C4.29075 11.6376 4.61118 11.4866 4.85565 11.2442L11.6057 4.49418C11.8676 4.21741 12.0092 3.84806 11.9994 3.46708C11.9895 3.0861 11.8291 2.72456 11.5532 2.46168L9.49815 0.406681C9.22995 0.154753 8.87849 0.0101997 8.51065 0.000519568C8.14281 -0.00916052 7.78424 0.116708 7.50315 0.354181L0.753152 7.10418C0.510726 7.34865 0.359781 7.66908 0.325652 8.01168L0.00315221 11.1392C-0.00695107 11.249 0.00730296 11.3598 0.0448981 11.4635C0.0824933 11.5672 0.142504 11.6613 0.220652 11.7392C0.290732 11.8087 0.373844 11.8637 0.465222 11.901C0.556601 11.9383 0.654447 11.9572 0.753152 11.9567ZM8.45565 1.45668L10.5032 3.50418L9.00315 4.96668L6.99315 2.95668L8.45565 1.45668ZM1.78065 8.13918L6.00315 3.94668L8.02815 5.97168L3.82815 10.1717L1.57815 10.3817L1.78065 8.13918Z" fill="#5E5E5E"/>
</svg>
