<svg width="35" height="26" viewBox="0 0 35 26" fill="none" xmlns="http://www.w3.org/2000/svg">
<path d="M30.3048 5.86849L32.25 16.1373L30.3048 25.5738H4.8869L2.94165 16.3443L4.8869 5.86849C4.24341 5.38536 8.40189 5.10181 11.1569 7.17019C14.5489 9.71671 16.8815 14.825 17.5958 15.3613C17.7062 15.2784 18.1386 12.0329 21.7069 9.35398C24.4319 7.30817 30.6721 5.59272 30.3048 5.86849Z" fill="#FFF5F5"/>
<path d="M30.3046 25.5738L32.2499 16.1373L30.3046 5.86847C30.672 5.59263 24.4317 7.30808 21.7068 9.35396C18.1384 12.0328 17.7061 15.2784 17.5957 15.3613V25.5738H30.3046Z" fill="#E3E7EA"/>
<path d="M25.7235 9.31177C25.6877 9.33861 25.6447 9.3709 25.6048 9.4008C25.5789 9.42031 25.6304 9.3816 25.7235 9.31177Z" fill="#00A66C"/>
<path d="M4.88683 2.71716V25.5738H3.91421C2.29959 25.5738 0.996338 24.2704 0.996338 22.6559V3.20347C0.996338 3.1256 0.996338 3.04779 1.01579 2.97005L4.88683 2.71716Z" fill="#5FF9FE"/>
<path d="M34.1952 3.20352V22.656C34.1952 24.2705 32.8919 25.5738 31.2773 25.5738H30.3047V4.66246L34.1757 2.97009C34.1952 3.04784 34.1952 3.12565 34.1952 3.20352Z" fill="#00DDE7"/>
<path d="M34.1758 2.97008C14.9304 17.4098 36.9318 0.853591 17.5958 15.3613C15.9072 14.0943 23.6483 19.951 1.01587 2.97008C1.13258 1.45273 2.37761 0.285645 3.91428 0.285645L11.5909 2.63894L17.5958 10.4982L21.9372 3.83805L31.2774 0.285645C32.8141 0.285645 34.0591 1.45273 34.1758 2.97008Z" fill="#5FF9FE"/>
<path d="M17.5957 15.3613C17.6004 15.3649 17.601 15.3652 17.5957 15.3613C18.953 14.3429 31.9109 4.66932 34.1757 2.97008C34.059 1.45273 32.814 0.285645 31.2773 0.285645L21.937 3.83799L17.5957 10.4982V15.3613Z" fill="#00DDE7"/>
<path d="M31.2774 0.285645L17.5959 10.4982L3.91431 0.285645H31.2774Z" fill="#FFF5F5"/>
<path d="M31.2773 0.285645H17.5957V10.4982L31.2773 0.285645Z" fill="#E3E7EA"/>
</svg>
