<svg width="31" height="31" viewBox="0 0 31 31" fill="none" xmlns="http://www.w3.org/2000/svg">
<path fill-rule="evenodd" clip-rule="evenodd" d="M11.625 20.3438C11.625 20.0868 11.7271 19.8404 11.9087 19.6587C12.0904 19.4771 12.3368 19.375 12.5938 19.375H18.4062C18.6632 19.375 18.9096 19.4771 19.0913 19.6587C19.2729 19.8404 19.375 20.0868 19.375 20.3438C19.375 20.6007 19.2729 20.8471 19.0913 21.0288C18.9096 21.2104 18.6632 21.3125 18.4062 21.3125H12.5938C12.3368 21.3125 12.0904 21.2104 11.9087 21.0288C11.7271 20.8471 11.625 20.6007 11.625 20.3438ZM7.75 14.5312C7.75 14.2743 7.85206 14.0279 8.03374 13.8462C8.21542 13.6646 8.46182 13.5625 8.71875 13.5625H22.2812C22.5382 13.5625 22.7846 13.6646 22.9663 13.8462C23.1479 14.0279 23.25 14.2743 23.25 14.5312C23.25 14.7882 23.1479 15.0346 22.9663 15.2163C22.7846 15.3979 22.5382 15.5 22.2812 15.5H8.71875C8.46182 15.5 8.21542 15.3979 8.03374 15.2163C7.85206 15.0346 7.75 14.7882 7.75 14.5312ZM3.875 8.71875C3.875 8.46182 3.97706 8.21542 4.15874 8.03374C4.34042 7.85206 4.58682 7.75 4.84375 7.75H26.1562C26.4132 7.75 26.6596 7.85206 26.8413 8.03374C27.0229 8.21542 27.125 8.46182 27.125 8.71875C27.125 8.97568 27.0229 9.22208 26.8413 9.40376C26.6596 9.58544 26.4132 9.6875 26.1562 9.6875H4.84375C4.58682 9.6875 4.34042 9.58544 4.15874 9.40376C3.97706 9.22208 3.875 8.97568 3.875 8.71875Z" fill="white"/>
</svg>
