<svg width="43" height="43" viewBox="0 0 43 43" fill="none" xmlns="http://www.w3.org/2000/svg">
<path d="M21.5 43C9.6 43 0 33.4 0 21.5C0 9.6 9.6 0 21.5 0C33.4 0 43 9.6 43 21.5C43 33.4 33.4 43 21.5 43ZM21.5 1C10.2 1 1 10.2 1 21.5C1 32.8 10.2 42 21.5 42C32.8 42 42 32.8 42 21.5C42 10.2 32.8 1 21.5 1Z" fill="#696969"/>
<path d="M33.2998 31.1H9.7998C9.4998 31.1 9.2998 30.9 9.2998 30.6V26.3C9.2998 26 9.4998 25.8 9.7998 25.8H33.2998C33.5998 25.8 33.7998 26 33.7998 26.3V30.6C33.7998 30.9 33.4998 31.1 33.2998 31.1ZM10.2998 30.1H32.7998V26.8H10.2998V30.1Z" fill="#5E5E5E"/>
<path d="M31.5998 24.5H11.3998C10.1998 24.5 9.2998 23.5 9.2998 22.4C9.2998 21.3 10.2998 20.3 11.3998 20.3H31.6998C32.8998 20.3 33.7998 21.3 33.7998 22.4C33.7998 23.5 32.7998 24.5 31.5998 24.5ZM11.3998 21.2C10.7998 21.2 10.2998 21.7 10.2998 22.3C10.2998 22.9 10.7998 23.4 11.3998 23.4H31.6998C32.2998 23.4 32.7998 22.9 32.7998 22.3C32.7998 21.7 32.2998 21.2 31.6998 21.2H11.3998Z" fill="#5E5E5E"/>
<path d="M33.2998 18.5H9.7998C9.4998 18.5 9.2998 18.3 9.2998 18C9.2998 17.9 9.2998 16.4 10.7998 14.9C12.7998 12.9 16.3998 11.8 21.5998 11.8C26.6998 11.8 30.2998 12.8 32.3998 14.9C33.8998 16.4 33.8998 17.9 33.8998 18C33.6998 18.3 33.4998 18.5 33.2998 18.5ZM10.2998 17.5H32.5998C32.1998 16.2 30.3998 12.9 21.3998 12.9C12.4998 12.9 10.6998 16.2 10.2998 17.5Z" fill="#5E5E5E"/>
</svg>
