<svg width="30" height="30" viewBox="0 0 30 30" fill="none" xmlns="http://www.w3.org/2000/svg">
<path d="M15 30C6.69767 30 0 23.3023 0 15C0 6.69767 6.69767 0 15 0C23.3023 0 30 6.69767 30 15C30 23.3023 23.3023 30 15 30ZM15 0.697674C7.11628 0.697674 0.697674 7.11628 0.697674 15C0.697674 22.8837 7.11628 29.3023 15 29.3023C22.8837 29.3023 29.3023 22.8837 29.3023 15C29.3023 7.11628 22.8837 0.697674 15 0.697674Z" fill="#696969"/>
<path d="M19.5349 23.5814H6.34884C6.13953 23.5814 6 23.4418 6 23.2325C6 23.0232 6.13953 22.8837 6.34884 22.8837H19.5349C19.7442 22.8837 19.8837 23.0232 19.8837 23.2325C19.8837 23.4418 19.7442 23.5814 19.5349 23.5814Z" fill="#F5B822"/>
<path d="M17.3025 23.5814H8.16298C7.46531 23.5814 6.8374 23.0233 6.8374 22.2558V8.51165C6.8374 7.81398 7.39554 7.18607 8.16298 7.18607H17.3723C18.07 7.18607 18.6979 7.74421 18.6979 8.51165V22.3256C18.6281 23.0233 18.07 23.5814 17.3025 23.5814ZM8.16298 7.88375C7.81415 7.88375 7.53508 8.16282 7.53508 8.51165V22.3256C7.53508 22.6744 7.81415 22.9535 8.16298 22.9535H17.3723C17.7211 22.9535 18.0002 22.6744 18.0002 22.3256V8.51165C18.0002 8.16282 17.7211 7.88375 17.3723 7.88375H8.16298Z" fill="#5E5E5E"/>
<path d="M16.1165 14.7907H9.48863C9.07003 14.7907 8.72119 14.4419 8.72119 14.0233V9.907C8.72119 9.48839 9.07003 9.13956 9.48863 9.13956H16.1165C16.5351 9.13956 16.884 9.48839 16.884 9.907V13.9535C16.9538 14.4419 16.5351 14.7907 16.1165 14.7907ZM9.48863 9.76746C9.41887 9.76746 9.41887 9.83723 9.41887 9.83723V13.9535C9.41887 14.0233 9.48863 14.0233 9.48863 14.0233H16.1165C16.1863 14.0233 16.1863 13.9535 16.1863 13.9535V9.83723C16.1863 9.76746 16.1165 9.76746 16.1165 9.76746H9.48863Z" fill="#5E5E5E"/>
<path d="M20.7214 20.5814C20.5818 20.5814 20.5121 20.5814 20.5121 20.5814H18.2795C18.0702 20.5814 17.9307 20.4419 17.9307 20.2326C17.9307 20.0233 18.0702 19.8837 18.2795 19.8837H20.5818C20.6516 19.8837 21.0702 19.9535 21.3493 19.6744C21.5586 19.5349 21.6283 19.2558 21.6283 18.8372V12.3488C21.6283 12.1395 21.7679 12 21.9772 12C22.4655 12 22.4655 11.5116 22.4655 11.4419V9.34884C22.4655 8.7907 22.1865 8.51164 22.1167 8.44187L20.6516 6.97675C20.5121 6.83722 20.5121 6.62791 20.6516 6.48838C20.7911 6.34884 21.0004 6.34884 21.14 6.48838L22.6051 7.9535C22.6051 7.9535 23.1632 8.44187 23.1632 9.34884V11.4419C23.1632 11.8605 22.9539 12.4884 22.326 12.6279V18.8372C22.326 19.4651 22.1167 19.8837 21.7679 20.1628C21.419 20.5116 21.0004 20.5814 20.7214 20.5814Z" fill="#5E5E5E"/>
<path d="M21.977 12.6977C21.3491 12.6977 20.8608 12.5582 20.5119 12.2093C20.1631 11.8605 20.1631 11.4419 20.1631 11.3721V9.90699C20.1631 9.69769 20.3026 9.55815 20.5119 9.55815C20.7212 9.55815 20.8608 9.69769 20.8608 9.90699V11.4419C20.8608 11.5116 20.8608 12 21.977 12C22.1863 12 22.3259 12.1396 22.3259 12.3489C22.3259 12.5582 22.1863 12.6977 21.977 12.6977Z" fill="#5E5E5E"/>
</svg>
