<svg width="30" height="30" viewBox="0 0 30 30" fill="none" xmlns="http://www.w3.org/2000/svg">
<path d="M15 30C6.69767 30 0 23.3023 0 15C0 6.69767 6.69767 0 15 0C23.3023 0 30 6.69767 30 15C30 23.3023 23.3023 30 15 30ZM15 0.697674C7.11628 0.697674 0.697674 7.11628 0.697674 15C0.697674 22.8837 7.11628 29.3023 15 29.3023C22.8837 29.3023 29.3023 22.8837 29.3023 15C29.3023 7.11628 22.8837 0.697674 15 0.697674Z" fill="#696969"/>
<path d="M14.9999 18.3488H10.3952C10.1859 18.3488 10.0464 18.2093 10.0464 18C10.0464 17.7907 10.1859 17.6512 10.3952 17.6512H14.9999C15.2092 17.6512 15.3487 17.7907 15.3487 18C15.3487 18.2093 15.2092 18.3488 14.9999 18.3488Z" fill="#5E5E5E"/>
<path d="M10.8142 18.3488C10.7444 18.3488 10.7444 18.3488 10.8142 18.3488C10.6049 18.3488 10.4653 18.1395 10.4653 18C10.6049 15.8372 11.3723 14.7209 11.4421 14.6511C11.5118 14.5814 11.5816 14.5116 11.7211 14.5116H15.0002C15.2095 14.5116 15.3491 14.6511 15.3491 14.8604C15.3491 15.0697 15.2095 15.2093 15.0002 15.2093H11.8607C11.6514 15.5581 11.2328 16.5349 11.0932 18.0697C11.0932 18.2093 10.9537 18.3488 10.8142 18.3488Z" fill="#5E5E5E"/>
<path d="M9.83712 17.3721C9.62782 17.3721 9.48828 17.2325 9.48828 17.0232L9.55805 13.4651C9.55805 13.3255 9.69758 13.186 9.83712 13.1162C11.5813 12.6976 14.8604 12.6976 14.9999 12.6976C15.2092 12.6976 15.3487 12.8372 15.3487 13.0465C15.3487 13.2558 15.2092 13.3953 14.9999 13.3953C14.9999 13.3953 11.9999 13.3953 10.3255 13.7442L10.2557 17.0232C10.186 17.1628 10.0464 17.3721 9.83712 17.3721Z" fill="#5E5E5E"/>
<path d="M9.20931 19.1162C8.86048 19.1162 8.51164 19.0465 8.30234 18.9069C7.88373 18.6976 7.81396 18.3488 7.81396 18.1395V15.4883C7.81396 15.279 7.9535 15.1395 8.1628 15.1395H9.97676C10.1861 15.1395 10.3256 15.279 10.3256 15.4883C10.3256 15.6976 10.1861 15.8372 9.97676 15.8372H8.51164V18.1395C8.51164 18.1395 8.51164 18.2093 8.65117 18.279C8.79071 18.3488 9.00001 18.4186 9.55815 18.3488C9.76745 18.3488 9.90699 18.4883 9.90699 18.6976C9.90699 18.9069 9.76745 19.0465 9.55815 19.0465C9.41862 19.1162 9.27908 19.1162 9.20931 19.1162Z" fill="#5E5E5E"/>
<path d="M10.4649 24.6976C9.83702 24.6976 9.34864 24.5581 9.06957 24.279C8.86027 24.0697 8.86027 23.7907 8.86027 23.7209V23.0232C8.72074 22.9534 8.5812 22.8837 8.51143 22.8139C8.1626 22.4651 8.1626 21.9069 8.1626 21.8372V18.6279C8.1626 18.4186 8.30213 18.279 8.51143 18.279C8.72074 18.279 8.86027 18.4186 8.86027 18.6279V21.8372C8.86027 21.9767 8.86027 22.186 8.99981 22.2558C8.99981 22.2558 9.06957 22.3255 9.13934 22.3255C9.20911 22.3255 9.34864 22.3255 9.41841 22.3953C9.48818 22.4651 9.55795 22.5348 9.55795 22.6744V23.7209C9.55795 23.7907 9.76725 24 10.4649 24C11.2324 24 11.5114 23.7907 11.5812 23.7209V22.8837C11.5812 22.6744 11.7207 22.5348 11.93 22.5348H14.9998C15.2091 22.5348 15.3486 22.6744 15.3486 22.8837C15.3486 23.093 15.2091 23.2325 14.9998 23.2325H12.2789V23.8604C12.2789 23.9302 12.2789 23.9302 12.2789 24C12.2091 24.0697 11.93 24.6976 10.4649 24.6976Z" fill="#5E5E5E"/>
<path d="M10.8139 21.907C10.1162 21.907 9.55811 21.3488 9.55811 20.6512C9.55811 19.9535 10.1162 19.3953 10.8139 19.3953C11.5116 19.3953 12.0697 19.9535 12.0697 20.6512C12.0697 21.3488 11.5116 21.907 10.8139 21.907ZM10.8139 20.093C10.5349 20.093 10.2558 20.3721 10.2558 20.6512C10.2558 20.9302 10.5349 21.2093 10.8139 21.2093C11.093 21.2093 11.3721 20.9302 11.3721 20.6512C11.3721 20.3721 11.093 20.093 10.8139 20.093Z" fill="#5E5E5E"/>
<path d="M19.6049 18.3488H15.0002C14.7909 18.3488 14.6514 18.2093 14.6514 18C14.6514 17.7907 14.7909 17.6512 15.0002 17.6512H19.6049C19.8142 17.6512 19.9537 17.7907 19.9537 18C19.9537 18.2093 19.8142 18.3488 19.6049 18.3488Z" fill="#5E5E5E"/>
<path d="M19.1862 18.3488C18.9769 18.3488 18.8374 18.2093 18.8374 18C18.6978 16.4651 18.2792 15.4883 18.0699 15.1395H14.9304C14.7211 15.1395 14.5815 15 14.5815 14.7907C14.5815 14.5814 14.7211 14.4418 14.9304 14.4418H18.2094C18.349 14.4418 18.4188 14.5116 18.4885 14.5814C18.4885 14.6511 19.3257 15.7674 19.4653 17.9302C19.6048 18.2093 19.4653 18.3488 19.1862 18.3488C19.256 18.3488 19.256 18.3488 19.1862 18.3488Z" fill="#5E5E5E"/>
<path d="M20.0932 17.3721C19.8839 17.3721 19.7444 17.2325 19.7444 17.0232L19.6746 13.7442C18.0002 13.3953 15.0002 13.3953 15.0002 13.3953C14.8607 13.3953 14.7909 13.3256 14.7211 13.3256C14.7211 13.2558 14.6514 13.186 14.6514 13.0465V11.5814C14.6514 11.3721 14.7909 11.2325 15.0002 11.2325C15.2095 11.2325 15.349 11.3721 15.349 11.5814V12.6976C16.256 12.6976 18.6979 12.7674 20.0932 13.1162C20.2328 13.186 20.3723 13.2558 20.3723 13.4651L20.4421 17.0232C20.5118 17.1628 20.3025 17.3721 20.0932 17.3721C20.163 17.3721 20.163 17.3721 20.0932 17.3721Z" fill="#5E5E5E"/>
<path d="M20.7911 19.1162C20.7213 19.1162 20.5818 19.1162 20.4422 19.1162C20.2329 19.1162 20.0934 18.9069 20.0934 18.7674C20.0934 18.5581 20.3027 18.4186 20.4422 18.4186C20.9306 18.4883 21.2097 18.4186 21.3492 18.3488C21.4888 18.279 21.4888 18.2093 21.4888 18.2093V15.9069H20.0236C19.8143 15.9069 19.6748 15.7674 19.6748 15.5581C19.6748 15.3488 19.8143 15.2093 20.0236 15.2093H21.8376C22.0469 15.2093 22.1864 15.3488 22.1864 15.5581V18.2093C22.1864 18.3488 22.1167 18.7674 21.6981 18.9767C21.4888 19.0465 21.2097 19.1162 20.7911 19.1162Z" fill="#5E5E5E"/>
<path d="M19.5351 24.6976C18.07 24.6976 17.7909 24.0697 17.7211 23.9302C17.7211 23.8604 17.7211 23.8604 17.7211 23.7906V23.1627H15.0002C14.7909 23.1627 14.6514 23.0232 14.6514 22.8139C14.6514 22.6046 14.7909 22.4651 15.0002 22.4651H18.07C18.2793 22.4651 18.4188 22.6046 18.4188 22.8139V23.7209C18.4886 23.7907 18.7676 24 19.5351 24C20.2328 24 20.4421 23.7907 20.4421 23.7209V22.6744C20.4421 22.6046 20.5118 22.4651 20.5816 22.3953C20.6514 22.3255 20.7211 22.3255 20.8607 22.3255C21.0002 22.3255 21.0002 22.3255 21.0002 22.2558C21.07 22.186 21.1397 21.9767 21.1397 21.8372V18.6279C21.1397 18.4186 21.2793 18.279 21.4886 18.279C21.6979 18.279 21.8374 18.4186 21.8374 18.6279V21.8372C21.8374 21.9069 21.8374 22.4651 21.4886 22.7441C21.4188 22.8139 21.2793 22.8837 21.1397 22.9534V23.6511C21.1397 23.6511 21.1397 23.9302 20.9304 24.2093C20.6514 24.5581 20.2328 24.6976 19.5351 24.6976Z" fill="#5E5E5E"/>
<path d="M19.186 21.907C18.4883 21.907 17.9302 21.3488 17.9302 20.6512C17.9302 19.9535 18.4883 19.3953 19.186 19.3953C19.8837 19.3953 20.4418 19.9535 20.4418 20.6512C20.4418 21.3488 19.8837 21.907 19.186 21.907ZM19.186 20.093C18.9069 20.093 18.6279 20.3721 18.6279 20.6512C18.6279 20.9302 18.9069 21.2093 19.186 21.2093C19.4651 21.2093 19.7441 20.9302 19.7441 20.6512C19.7441 20.3721 19.4651 20.093 19.186 20.093Z" fill="#5E5E5E"/>
<path d="M14.9998 12C14.93 12 14.7905 11.9302 14.7207 11.9302C14.0928 11.3023 13.5347 11.0232 12.9068 11.0232C11.9998 11.093 11.3021 11.8604 11.3021 11.8604C11.2324 12 11.0231 12 10.8835 12C10.744 11.9302 10.6742 11.7907 10.6742 11.6511C10.6742 11.3721 10.6045 11.3023 10.5347 11.2325C10.1859 10.9535 9.34864 11.0232 9.06957 11.093C8.93004 11.093 8.7905 11.093 8.72074 10.9535C8.65097 10.8837 8.5812 10.7442 8.65097 10.6046C8.65097 10.5349 10.1161 6.69765 14.9998 6.69765C19.8835 6.69765 21.2789 10.6046 21.3486 10.6046C21.4184 10.7442 21.3486 10.8837 21.2789 10.9535C21.2091 11.0232 20.9998 11.093 20.93 11.0232C20.3719 10.8139 19.9533 10.7442 19.6045 10.8837C19.1859 11.093 18.9766 11.5116 18.9766 11.5116C18.9068 11.6511 18.837 11.7209 18.6975 11.7209C18.5579 11.7209 18.4882 11.7209 18.3486 11.5814C17.7207 10.9535 17.1626 10.6046 16.6742 10.6744C15.9068 10.7442 15.3486 11.6511 15.3486 11.6511C15.2789 11.9302 15.1393 12 14.9998 12ZM12.9766 10.3256C13.6742 10.3256 14.3021 10.6046 14.93 11.1628C15.2091 10.8139 15.7672 10.2558 16.5347 10.186C17.1626 10.1163 17.8603 10.3953 18.4882 10.9535C18.6277 10.7442 18.9068 10.5349 19.2556 10.3953C19.6045 10.2558 19.9533 10.186 20.3719 10.2558C19.744 9.27905 18.2091 7.4651 15.0696 7.4651C11.7905 7.4651 10.2556 9.41858 9.69748 10.3953C10.1161 10.3953 10.6742 10.4651 11.0928 10.7442C11.2324 10.8139 11.3021 10.9535 11.3719 11.0232C11.7207 10.7442 12.2789 10.3953 13.0463 10.3256C12.9068 10.3256 12.9766 10.3256 12.9766 10.3256Z" fill="#5E5E5E"/>
<path d="M15.0002 7.39533C14.7909 7.39533 14.6514 7.2558 14.6514 7.04649V5.65114C14.6514 5.44184 14.7909 5.30231 15.0002 5.30231C15.2095 5.30231 15.349 5.44184 15.349 5.65114V7.04649C15.349 7.2558 15.2095 7.39533 15.0002 7.39533Z" fill="#5E5E5E"/>
</svg>
