<svg width="28" height="28" viewBox="0 0 28 28" fill="none" xmlns="http://www.w3.org/2000/svg">
<path d="M13.9755 10.1008C13.1804 10.0223 12.3805 10.1914 11.6853 10.5851C10.9901 10.9787 10.4335 11.5776 10.0919 12.2998C9.75019 13.022 9.64007 13.8321 9.77661 14.6193C9.91314 15.4064 10.2896 16.1322 10.8546 16.6971C11.4195 17.262 12.1452 17.6385 12.9324 17.775C13.7195 17.9116 14.5297 17.8015 15.2518 17.4598C15.974 17.1181 16.5729 16.5616 16.9666 15.8663C17.3602 15.1711 17.5294 14.3712 17.4508 13.5762C17.3613 12.6849 16.9664 11.852 16.333 11.2186C15.6996 10.5852 14.8667 10.1903 13.9755 10.1008V10.1008ZM23.3057 13.957C23.3032 14.3782 23.2723 14.7988 23.2131 15.2158L25.9504 17.3628C26.0696 17.4616 26.1499 17.5995 26.1771 17.7519C26.2042 17.9043 26.1765 18.0614 26.0987 18.1953L23.5092 22.6758C23.4305 22.8084 23.3076 22.909 23.162 22.9598C23.0165 23.0107 22.8577 23.0085 22.7136 22.9537L19.995 21.859C19.8451 21.7993 19.6827 21.7777 19.5224 21.7962C19.3621 21.8147 19.2089 21.8727 19.0765 21.965C18.6616 22.2507 18.2256 22.5045 17.7723 22.7242C17.6298 22.7935 17.5066 22.8968 17.4134 23.025C17.3203 23.1532 17.2602 23.3023 17.2383 23.4593L16.8308 26.3588C16.8041 26.512 16.725 26.6511 16.607 26.7523C16.4891 26.8536 16.3396 26.9108 16.1842 26.9141H11.005C10.8522 26.9114 10.7048 26.8568 10.5871 26.7592C10.4695 26.6615 10.3886 26.5268 10.3578 26.377L9.9509 23.4817C9.92805 23.323 9.86635 23.1724 9.77128 23.0433C9.67622 22.9143 9.55073 22.8107 9.40598 22.7418C8.95322 22.5232 8.51871 22.2687 8.10664 21.9807C7.97471 21.8889 7.82201 21.8314 7.6623 21.8133C7.50259 21.7952 7.34089 21.8172 7.19178 21.8772L4.47383 22.9713C4.32979 23.0261 4.17102 23.0284 4.02548 22.9776C3.87995 22.9269 3.75698 22.8264 3.67824 22.6939L1.08865 18.2135C1.0108 18.0796 0.982976 17.9225 1.01014 17.77C1.03731 17.6176 1.11769 17.4797 1.23699 17.381L3.55049 15.5646C3.67724 15.4639 3.77685 15.3333 3.84029 15.1844C3.90373 15.0355 3.92899 14.8732 3.91377 14.7121C3.89197 14.4596 3.87865 14.2077 3.87865 13.9552C3.87865 13.7027 3.89137 13.4545 3.91377 13.2075C3.92732 13.0473 3.90083 12.8863 3.83667 12.739C3.77251 12.5917 3.67271 12.4626 3.54625 12.3634L1.23397 10.547C1.1166 10.4478 1.03791 10.3104 1.01167 10.159C0.985435 10.0075 1.01333 9.85169 1.09047 9.71875L3.68006 5.23828C3.7587 5.10568 3.88163 5.00509 4.02717 4.95425C4.17272 4.90341 4.33154 4.90558 4.47565 4.96037L7.1942 6.05506C7.34412 6.11475 7.5065 6.13631 7.6668 6.11782C7.8271 6.09933 7.98031 6.04136 8.1127 5.9491C8.52759 5.66339 8.96357 5.40958 9.41688 5.18984C9.55939 5.12058 9.68266 5.01729 9.77579 4.88909C9.86893 4.7609 9.92907 4.61175 9.9509 4.4548L10.3584 1.55521C10.3851 1.40208 10.4643 1.26299 10.5822 1.16172C10.7001 1.06046 10.8496 1.00329 11.005 1H16.1842C16.3371 1.00264 16.4845 1.05728 16.6021 1.1549C16.7198 1.25252 16.8006 1.38731 16.8314 1.53705L17.2383 4.4324C17.2612 4.59108 17.3229 4.74164 17.4179 4.87072C17.513 4.9998 17.6385 5.10339 17.7832 5.17229C18.236 5.39083 18.6705 5.64534 19.0826 5.93336C19.2145 6.02516 19.3672 6.08268 19.5269 6.10076C19.6866 6.11883 19.8483 6.09689 19.9974 6.03689L22.7154 4.94281C22.8594 4.88796 23.0182 4.8857 23.1637 4.93643C23.3093 4.98716 23.4322 5.08762 23.511 5.22012L26.1006 9.70059C26.1784 9.83445 26.2062 9.9916 26.1791 10.1441C26.1519 10.2965 26.0715 10.4344 25.9522 10.5331L23.6387 12.3495C23.5114 12.4498 23.4112 12.5803 23.3473 12.7292C23.2833 12.8781 23.2576 13.0406 23.2724 13.202C23.2924 13.4527 23.3057 13.7046 23.3057 13.957Z" stroke="white" stroke-width="2" stroke-linecap="round" stroke-linejoin="round"/>
</svg>
