<svg width="825" height="481" viewBox="0 0 825 481" fill="none" xmlns="http://www.w3.org/2000/svg">
<path d="M63.9567 484.48C63.9567 484.48 -35.0727 362.325 13.3247 236.569C44.8715 154.598 163.209 109.682 229.993 154.598C258.436 173.728 349.693 155.244 398.418 76.0409C493.1 -77.8697 860.039 12.4116 763.393 251.905C719.236 361.331 851.997 370.415 792.015 484.721L63.9567 484.48Z" fill="#EBF3FA" fill-opacity="0.1"/>
<path d="M371.84 267.479L284.579 361.795L158.841 245.463V245.46L105.861 196.444L193.116 102.131L292.042 193.653L371.84 267.479Z" fill="#CFE7FF"/>
<path d="M351.865 268.571L284.121 341.794L123.482 193.174L191.227 119.951L351.865 268.571ZM290.203 330.745L341.29 275.525C344.757 271.776 344.53 265.926 340.781 262.459L198.303 130.639C194.488 127.11 188.531 127.339 185.002 131.157L134.117 186.154C130.615 189.939 130.847 195.843 134.629 199.345L277.2 331.248C280.931 334.7 286.751 334.474 290.203 330.745Z" fill="#C0D8FB"/>
<path d="M238.184 257.712C253.002 257.423 264.781 245.176 264.492 230.357C264.203 215.539 251.956 203.76 237.137 204.049C222.319 204.338 210.54 216.585 210.829 231.404C211.118 246.222 223.365 258.001 238.184 257.712Z" fill="#C0D8FB"/>
<path d="M406.071 249.894L280.741 278.23L242.972 111.143V111.141L227.056 40.7419L352.38 12.4116L382.097 143.86L406.071 249.894Z" fill="#DCEAFF"/>
<path d="M388.988 239.485L291.691 261.48L243.436 48.023L340.734 26.0277L388.988 239.485ZM302.956 255.818L376.333 239.229C381.314 238.104 384.439 233.153 383.314 228.172L340.513 38.8434C339.368 33.7731 334.327 30.5922 329.257 31.7378L256.174 48.2581C251.146 49.3948 247.992 54.3937 249.128 59.4194L291.955 248.87C293.074 253.827 298.002 256.937 302.956 255.818Z" fill="#C0D8FB"/>
<path d="M335.182 162.733C345.662 152.252 345.662 135.261 335.182 124.78C324.702 114.3 307.71 114.3 297.23 124.78C286.749 135.261 286.749 152.252 297.23 162.733C307.71 173.213 324.702 173.213 335.182 162.733Z" fill="#C0D8FB"/>
<path d="M655.536 388.242L521.895 341.371L584.384 163.207L584.387 163.204L610.715 88.1365L744.35 135.007L695.191 275.174L655.536 388.242Z" fill="#DCEAFF"/>
<path d="M645.672 368.523L541.92 332.135L621.751 104.523L725.503 140.911L645.672 368.523ZM555.759 333.435L634.001 360.879C639.313 362.741 645.127 359.947 646.99 354.636L717.799 152.751C719.694 147.344 716.85 141.423 711.443 139.527L633.513 112.194C628.152 110.313 622.281 113.134 620.4 118.496L549.546 320.509C547.693 325.797 550.475 331.584 555.759 333.435Z" fill="#C0D8FB"/>
<path d="M605.796 226.729C611.203 211.312 628.083 203.198 643.499 208.605C658.916 214.011 667.03 230.892 661.623 246.308C656.217 261.724 639.337 269.839 623.92 264.432C608.504 259.025 600.389 242.145 605.796 226.729Z" fill="#C0D8FB"/>
<path d="M273.421 285.112V323.259C273.421 330.564 267.443 336.539 260.141 336.539H232.804C225.502 336.539 219.524 330.564 219.524 323.259V285.112C219.524 277.807 225.502 271.832 232.804 271.832H260.141C267.443 271.835 273.421 277.81 273.421 285.112Z" fill="#ED7D2B"/>
<path d="M273.421 285.112V306.364C273.421 313.666 267.443 319.643 260.141 319.643H232.804C225.502 319.643 219.524 313.666 219.524 306.364V285.112C219.524 277.807 225.502 271.832 232.804 271.832H260.141C267.443 271.835 273.421 277.81 273.421 285.112Z" fill="#F99746"/>
<path d="M576.3 304.185C576.3 323.705 572.306 342.338 565.097 359.308C543.467 410.216 492.895 446.152 434.336 446.152H393.749C341.936 446.152 296.374 418.021 271.582 376.277C259.016 355.115 251.786 330.457 251.786 304.188C251.786 284.669 255.779 266.039 262.989 249.066C284.615 198.161 335.19 162.225 393.749 162.225H434.336C487.586 162.225 534.237 191.942 558.515 235.611C569.84 255.97 576.3 279.36 576.3 304.185Z" fill="#ED7D2B"/>
<path d="M558.515 235.608C561.883 251.982 559.235 275.385 554.926 287.775C526.277 370.177 458.935 385.052 390.098 391.319C341.15 395.773 271.585 376.274 271.585 376.274C259.019 355.112 251.789 330.454 251.789 304.186C251.789 284.666 255.782 266.036 262.992 249.063C284.618 198.158 335.193 162.222 393.752 162.222H434.339C487.586 162.225 534.237 191.939 558.515 235.608Z" fill="#F99746"/>
<path d="M377.011 197.789H321.175C315.545 197.789 310.981 194.37 310.981 190.153V113.914C310.981 112.613 311.392 111.429 312.097 110.403C314.825 106.439 322.002 104.806 327.344 107.832C348.544 119.847 383.275 145.966 387.182 189.633C387.581 194.045 382.912 197.789 377.011 197.789Z" fill="#F99746"/>
<path d="M323.446 197.789H321.175C315.545 197.789 310.981 194.37 310.981 190.153V113.914C310.981 112.613 311.392 111.429 312.097 110.403C312.335 110.608 312.57 110.834 312.787 111.075C324.915 124.578 342.397 151.105 337.472 188.264C336.755 193.667 330.694 197.789 323.446 197.789Z" fill="#ED7D2B"/>
<path d="M294.015 248.754C294.015 244.16 297.74 240.434 302.334 240.434C306.929 240.434 310.654 244.16 310.654 248.754C310.654 253.348 306.929 257.074 302.334 257.074C297.74 257.074 294.015 253.348 294.015 248.754Z" fill="#2B478B"/>
<path d="M458.357 385.879L445.116 471.864C443.358 478.523 448.38 485.046 455.269 485.046H490.068C497.528 485.046 504.363 480.88 507.778 474.247L561.865 366.363L458.357 385.879Z" fill="#ED7D2B"/>
<path d="M379.121 387.358L389.744 471.867C391.503 478.526 386.48 485.049 379.592 485.049H344.793C337.333 485.049 330.498 480.883 327.082 474.25L271.585 376.277L379.121 387.358Z" fill="#ED7D2B"/>
<path d="M610.117 342.772C609.316 342.772 608.516 342.671 607.721 342.46C601.55 340.835 598.021 333.468 598.506 323.232C598.982 313.198 603.181 302.603 610.03 294.164C613.062 290.43 616.559 287.162 620.463 284.395C618.621 281.357 616.133 278.444 612.789 275.936C607.102 271.669 601.226 270.44 594.825 272.177C577.621 276.849 563.04 301.439 561.859 304.203C561.323 305.682 559.705 306.471 558.205 305.971C556.682 305.462 555.857 303.817 556.366 302.29C556.878 300.758 561.139 293.417 567.081 286.148C577.442 273.478 586.467 268.675 592.213 266.881C600.738 264.218 608.837 265.697 616.279 271.282C619.972 274.052 623.025 277.417 625.393 281.292C631.297 278.004 637.947 275.718 645.181 274.534C646.769 274.275 648.263 275.349 648.522 276.935C648.781 278.521 647.707 280.018 646.121 280.277C639.482 281.366 633.4 283.464 628.029 286.49C629.678 290.468 630.725 294.857 631.136 299.588C631.981 309.33 630.026 319.968 625.768 328.767C621.442 337.732 615.731 342.772 610.117 342.772ZM623.042 289.721C619.879 292.057 617.035 294.771 614.547 297.836C608.465 305.331 604.737 314.689 604.317 323.512C603.984 330.513 605.993 335.991 609.203 336.836C612.447 337.687 617.106 333.331 620.537 326.237C624.295 318.468 626.092 308.696 625.346 300.094C625.078 297.003 624.429 293.387 623.042 289.721ZM561.883 304.135C561.877 304.153 561.871 304.171 561.865 304.185C561.874 304.168 561.88 304.15 561.883 304.135Z" fill="#ED7D2B"/>
<path d="M374.647 474.616V480.154C374.647 480.594 374.486 481.005 374.209 481.344C373.921 481.701 373.504 481.984 373.019 482.142C372.867 482.195 372.713 482.231 372.552 482.255C372.403 482.278 372.257 482.287 372.103 482.287H267.069C265.798 482.287 264.739 481.496 264.551 480.472C264.542 480.404 264.53 480.335 264.527 480.261C264.527 480.225 264.524 480.19 264.524 480.154V474.616C264.524 474.581 264.527 474.545 264.527 474.509C264.53 474.438 264.539 474.369 264.551 474.298C264.739 473.274 265.798 472.483 267.069 472.483H372.103C372.257 472.483 372.403 472.492 372.552 472.516C372.713 472.539 372.867 472.578 373.019 472.629C373.504 472.786 373.921 473.069 374.209 473.426C374.486 473.768 374.647 474.179 374.647 474.616Z" fill="#FFB93E"/>
<path d="M323.068 482.291H266.794C265.753 482.291 264.872 481.618 264.61 480.711C264.586 480.633 264.563 480.556 264.548 480.475C264.539 480.407 264.527 480.339 264.524 480.264C264.524 480.228 264.521 480.193 264.521 480.157V474.62C264.521 474.584 264.524 474.548 264.524 474.512C264.527 474.441 264.536 474.373 264.548 474.301C264.563 474.221 264.583 474.143 264.61 474.066C264.872 473.162 265.75 472.486 266.794 472.486H316.156C316.944 475.372 318.783 479.363 323.068 482.291Z" fill="#FFA412"/>
<path d="M361.863 472.483H360.67V482.29H361.863V472.483Z" fill="#FFA412"/>
<path d="M357.822 472.483H356.629V482.29H357.822V472.483Z" fill="#FFA412"/>
<path d="M352.978 472.483H351.785V482.29H352.978V472.483Z" fill="#FFA412"/>
<path d="M345.548 472.483H344.355V482.29H345.548V472.483Z" fill="#FFA412"/>
<path d="M337.696 472.483H336.502V482.29H337.696V472.483Z" fill="#FFA412"/>
<path d="M325.654 472.483H324.46V482.29H325.654V472.483Z" fill="#FFA412"/>
<path d="M314.379 472.483H313.186V482.29H314.379V472.483Z" fill="#FFA412"/>
<path d="M304.31 472.483H303.117V482.29H304.31V472.483Z" fill="#FFA412"/>
<path d="M365.71 472.483H364.517V482.29H365.71V472.483Z" fill="#FFA412"/>
<path d="M368.252 472.483H367.059V482.29H368.252V472.483Z" fill="#FFA412"/>
<path d="M370.706 472.483H369.513V482.29H370.706V472.483Z" fill="#FFA412"/>
<path d="M372.551 472.519V482.255C372.405 482.278 372.257 482.29 372.102 482.29H371.355V472.483H372.102C372.257 472.483 372.405 472.495 372.551 472.519Z" fill="#FFA412"/>
<path d="M374.209 473.426V481.347C373.92 481.707 373.504 481.987 373.016 482.144V472.626C373.504 472.786 373.92 473.069 374.209 473.426Z" fill="#FFA412"/>
<path d="M363.413 464.812V470.346C363.413 470.79 363.253 471.2 362.979 471.54C362.907 471.629 362.824 471.712 362.741 471.793C362.479 472.028 362.155 472.218 361.786 472.337C361.637 472.388 361.479 472.423 361.319 472.444C361.173 472.468 361.024 472.48 360.872 472.48H255.832C254.565 472.48 253.505 471.685 253.318 470.662C253.309 470.593 253.297 470.525 253.294 470.454C253.291 470.418 253.291 470.382 253.291 470.34V464.806C253.291 464.77 253.291 464.732 253.294 464.693C253.297 464.624 253.306 464.556 253.318 464.485C253.505 463.461 254.565 462.667 255.832 462.667H360.872C360.938 462.667 361.006 462.669 361.072 462.675C361.098 462.675 361.122 462.678 361.143 462.681C361.146 462.678 361.152 462.678 361.155 462.681C361.185 462.681 361.217 462.684 361.25 462.69C361.274 462.693 361.292 462.696 361.316 462.699C361.476 462.723 361.634 462.759 361.783 462.806C361.872 462.836 361.955 462.869 362.039 462.905H362.042C362.098 462.931 362.155 462.958 362.205 462.982C362.235 463 362.268 463.018 362.297 463.035C362.327 463.053 362.357 463.068 362.384 463.089C362.497 463.155 362.598 463.229 362.693 463.315C362.726 463.342 362.753 463.372 362.782 463.399C362.803 463.413 362.818 463.431 362.836 463.449C362.845 463.458 362.857 463.47 362.863 463.479L362.887 463.503C362.919 463.535 362.952 463.571 362.982 463.61C363.253 463.964 363.413 464.372 363.413 464.812Z" fill="#FFB93E"/>
<path d="M311.835 472.486H255.561C254.517 472.486 253.642 471.808 253.38 470.903C253.356 470.826 253.333 470.749 253.318 470.668C253.309 470.6 253.297 470.531 253.294 470.46C253.291 470.424 253.291 470.389 253.291 470.347V464.812C253.291 464.777 253.291 464.738 253.294 464.699C253.297 464.631 253.306 464.562 253.318 464.491C253.333 464.411 253.354 464.333 253.38 464.256C253.642 463.348 254.517 462.673 255.561 462.673H304.926C304.947 462.756 304.967 462.834 304.994 462.917C305.818 465.785 307.669 469.639 311.835 472.486Z" fill="#FFA412"/>
<path d="M350.634 462.678H349.44V472.483H350.634V462.678Z" fill="#FFA412"/>
<path d="M346.593 462.678H345.399V472.483H346.593V462.678Z" fill="#FFA412"/>
<path d="M341.745 462.678H340.552V472.483H341.745V462.678Z" fill="#FFA412"/>
<path d="M334.319 462.678H333.125V472.483H334.319V462.678Z" fill="#FFA412"/>
<path d="M326.463 462.678H325.27V472.483H326.463V462.678Z" fill="#FFA412"/>
<path d="M314.424 462.678H313.231V472.483H314.424V462.678Z" fill="#FFA412"/>
<path d="M303.15 462.678H301.957V472.483H303.15V462.678Z" fill="#FFA412"/>
<path d="M293.08 462.679H291.887V472.483H293.08V462.679Z" fill="#FFA412"/>
<path d="M354.481 462.678H353.288V472.483H354.481V462.678Z" fill="#FFA412"/>
<path d="M357.022 462.678H355.829V472.483H357.022V462.678Z" fill="#FFA412"/>
<path d="M359.474 462.678H358.281V472.483H359.474V462.678Z" fill="#FFA412"/>
<path d="M361.322 462.711V472.447C361.176 472.471 361.027 472.48 360.872 472.48H360.125V462.675H360.872C361.027 462.678 361.176 462.69 361.322 462.711Z" fill="#FFA412"/>
<path d="M362.979 463.622V471.543C362.691 471.903 362.274 472.182 361.786 472.34V462.821C362.274 462.979 362.691 463.262 362.979 463.622Z" fill="#FFA412"/>
<path d="M368.841 455.249V460.786C368.841 461.226 368.68 461.637 368.403 461.976C368.115 462.333 367.701 462.616 367.213 462.774C367.064 462.824 366.906 462.86 366.746 462.887C366.6 462.908 366.451 462.92 366.299 462.92H261.259C260.84 462.92 260.438 462.83 260.087 462.675C259.391 462.369 258.879 461.801 258.748 461.125C258.739 461.081 258.736 461.033 258.727 460.988C258.724 460.959 258.721 460.926 258.721 460.893C258.718 460.857 258.718 460.822 258.718 460.786V455.249C258.718 455.213 258.718 455.177 258.721 455.141C258.724 455.073 258.73 455.002 258.745 454.936C258.933 453.91 259.992 453.118 261.259 453.118H366.299C366.451 453.118 366.6 453.127 366.746 453.151C366.906 453.175 367.064 453.21 367.213 453.258C367.701 453.419 368.115 453.701 368.403 454.058C368.68 454.398 368.841 454.808 368.841 455.249Z" fill="#FFB93E"/>
<path d="M317.262 462.92H260.989C260.611 462.92 260.257 462.83 259.944 462.675C259.319 462.369 258.864 461.801 258.751 461.125C258.742 461.081 258.739 461.033 258.73 460.988C258.727 460.959 258.724 460.926 258.724 460.893C258.721 460.857 258.721 460.822 258.721 460.786V455.249C258.721 455.213 258.721 455.177 258.724 455.141C258.727 455.073 258.733 455.002 258.748 454.936C258.763 454.859 258.784 454.781 258.807 454.707C259.063 453.796 259.944 453.118 260.989 453.118H310.35C311.118 455.924 312.876 459.78 316.917 462.678C317.03 462.759 317.146 462.842 317.262 462.92Z" fill="#FFA412"/>
<path d="M356.06 453.115H354.867V462.919H356.06V453.115Z" fill="#FFA412"/>
<path d="M352.019 453.115H350.826V462.919H352.019V453.115Z" fill="#FFA412"/>
<path d="M347.172 453.115H345.979V462.919H347.172V453.115Z" fill="#FFA412"/>
<path d="M339.745 453.115H338.552V462.919H339.745V453.115Z" fill="#FFA412"/>
<path d="M331.89 453.115H330.697V462.919H331.89V453.115Z" fill="#FFA412"/>
<path d="M319.851 453.115H318.658V462.919H319.851V453.115Z" fill="#FFA412"/>
<path d="M308.574 453.115H307.38V462.919H308.574V453.115Z" fill="#FFA412"/>
<path d="M298.507 453.116H297.314V462.92H298.507V453.116Z" fill="#FFA412"/>
<path d="M359.908 453.115H358.714V462.919H359.908V453.115Z" fill="#FFA412"/>
<path d="M362.449 453.115H361.255V462.919H362.449V453.115Z" fill="#FFA412"/>
<path d="M364.901 453.115H363.708V462.919H364.901V453.115Z" fill="#FFA412"/>
<path d="M366.748 453.148V462.884C366.603 462.907 366.454 462.916 366.299 462.916H365.552V453.112H366.299C366.454 453.115 366.603 453.127 366.748 453.148Z" fill="#FFA412"/>
<path d="M368.406 454.055V461.976C368.117 462.336 367.7 462.616 367.212 462.774V453.255C367.7 453.415 368.117 453.698 368.406 454.055Z" fill="#FFA412"/>
<path d="M371.358 445.444V450.979C371.358 451.422 371.197 451.83 370.921 452.169C370.885 452.213 370.846 452.258 370.805 452.3C370.605 452.514 370.358 452.692 370.079 452.829C369.966 452.883 369.85 452.931 369.728 452.969C369.576 453.02 369.421 453.055 369.26 453.076C369.189 453.085 369.115 453.097 369.04 453.103C368.966 453.109 368.885 453.112 368.811 453.112H263.777C262.506 453.112 261.447 452.318 261.26 451.294C261.251 451.226 261.239 451.157 261.236 451.089V445.331C261.301 444.289 262.259 443.444 263.473 443.322C263.572 443.314 263.673 443.305 263.774 443.305H368.808C368.882 443.305 368.963 443.308 369.037 443.314C369.112 443.319 369.186 443.325 369.257 443.34C369.418 443.364 369.573 443.4 369.725 443.447C370.21 443.605 370.626 443.888 370.915 444.245C371.197 444.59 371.358 445.001 371.358 445.444Z" fill="#FFB93E"/>
<path d="M319.78 453.116H263.506C262.465 453.116 261.584 452.44 261.322 451.533C261.298 451.455 261.275 451.378 261.26 451.297C261.251 451.229 261.239 451.161 261.236 451.092V445.334C261.295 444.296 262.152 443.448 263.235 443.326C263.325 443.317 263.414 443.308 263.503 443.308H312.865C312.865 443.314 312.868 443.317 312.868 443.326C313.665 446.209 315.501 450.194 319.78 453.116Z" fill="#FFA412"/>
<path d="M358.575 443.308H357.382V453.112H358.575V443.308Z" fill="#FFA412"/>
<path d="M354.535 443.308H353.341V453.112H354.535V443.308Z" fill="#FFA412"/>
<path d="M349.69 443.308H348.497V453.112H349.69V443.308Z" fill="#FFA412"/>
<path d="M342.26 443.308H341.067V453.112H342.26V443.308Z" fill="#FFA412"/>
<path d="M334.408 443.308H333.214V453.112H334.408V443.308Z" fill="#FFA412"/>
<path d="M322.366 443.308H321.172V453.112H322.366V443.308Z" fill="#FFA412"/>
<path d="M311.091 443.308H309.898V453.112H311.091V443.308Z" fill="#FFA412"/>
<path d="M301.025 443.308H299.832V453.112H301.025V443.308Z" fill="#FFA412"/>
<path d="M362.422 443.308H361.229V453.112H362.422V443.308Z" fill="#FFA412"/>
<path d="M364.964 443.308H363.771V453.112H364.964V443.308Z" fill="#FFA412"/>
<path d="M367.418 443.308H366.225V453.112H367.418V443.308Z" fill="#FFA412"/>
<path d="M369.263 443.343V453.079C369.117 453.103 368.968 453.115 368.814 453.115H368.067V443.308H368.814C368.968 443.308 369.117 443.319 369.263 443.343Z" fill="#FFA412"/>
<path d="M370.924 444.251V452.172C370.635 452.532 370.218 452.811 369.73 452.969V443.45C370.218 443.611 370.632 443.891 370.924 444.251Z" fill="#FFA412"/>
<path d="M363.634 435.651V441.186C363.634 441.629 363.476 442.037 363.199 442.376C362.911 442.736 362.494 443.019 362.006 443.177C361.857 443.227 361.7 443.263 361.545 443.284C361.494 443.293 361.447 443.299 361.396 443.305H361.375C361.349 443.308 361.322 443.311 361.298 443.311C361.274 443.314 361.256 443.314 361.23 443.316C361.185 443.316 361.14 443.319 361.096 443.319H256.062C254.708 443.319 253.592 442.418 253.521 441.296C253.518 441.26 253.518 441.225 253.518 441.183V435.648C253.518 435.613 253.518 435.574 253.521 435.535C253.521 435.506 253.524 435.476 253.527 435.446C253.628 434.545 254.41 433.795 255.434 433.58C255.458 433.575 255.484 433.569 255.508 433.566C255.687 433.533 255.868 433.512 256.059 433.512H361.093C361.17 433.512 361.245 433.515 361.319 433.521C361.352 433.524 361.384 433.527 361.414 433.53C361.417 433.53 361.417 433.53 361.42 433.53H361.423C361.462 433.533 361.5 433.539 361.542 433.545C361.7 433.569 361.857 433.604 362.003 433.652C362.491 433.81 362.908 434.092 363.196 434.452C363.476 434.803 363.634 435.211 363.634 435.651Z" fill="#FFB93E"/>
<path d="M312.055 443.326H255.785C254.573 443.326 253.58 442.424 253.517 441.303C253.514 441.267 253.514 441.231 253.514 441.19V435.655C253.514 435.619 253.514 435.581 253.517 435.542C253.517 435.512 253.52 435.482 253.523 435.453C253.615 434.527 254.341 433.771 255.285 433.572C255.314 433.563 255.347 433.557 255.38 433.551C255.511 433.527 255.645 433.516 255.785 433.516H305.143C305.149 433.542 305.155 433.56 305.164 433.587C305.961 436.461 307.797 440.404 312.031 443.305C312.04 443.314 312.049 443.317 312.055 443.326Z" fill="#FFA412"/>
<path d="M350.853 433.518H349.66V443.322H350.853V433.518Z" fill="#FFA412"/>
<path d="M346.812 433.518H345.619V443.322H346.812V433.518Z" fill="#FFA412"/>
<path d="M341.968 433.518H340.775V443.322H341.968V433.518Z" fill="#FFA412"/>
<path d="M334.538 433.518H333.345V443.322H334.538V433.518Z" fill="#FFA412"/>
<path d="M326.686 433.518H325.493V443.322H326.686V433.518Z" fill="#FFA412"/>
<path d="M314.644 433.518H313.451V443.322H314.644V433.518Z" fill="#FFA412"/>
<path d="M303.369 433.518H302.176V443.322H303.369V433.518Z" fill="#FFA412"/>
<path d="M293.3 433.519H292.107V443.323H293.3V433.519Z" fill="#FFA412"/>
<path d="M354.701 433.518H353.507V443.322H354.701V433.518Z" fill="#FFA412"/>
<path d="M357.242 433.518H356.049V443.322H357.242V433.518Z" fill="#FFA412"/>
<path d="M359.697 433.518H358.503V443.322H359.697V433.518Z" fill="#FFA412"/>
<path d="M361.541 433.551V443.287C361.396 443.31 361.247 443.322 361.092 443.322H360.345V433.515H361.092C361.247 433.518 361.396 433.53 361.541 433.551Z" fill="#FFA412"/>
<path d="M363.199 434.461V442.382C362.91 442.742 362.493 443.022 362.005 443.18V433.661C362.493 433.818 362.91 434.101 363.199 434.461Z" fill="#FFA412"/>
<path d="M363.414 425.918V431.453C363.414 431.896 363.253 432.304 362.979 432.643C362.908 432.732 362.825 432.816 362.741 432.899C362.479 433.134 362.155 433.325 361.786 433.444C361.667 433.482 361.545 433.512 361.426 433.536H361.423C361.42 433.536 361.42 433.536 361.417 433.536C361.384 433.542 361.355 433.548 361.322 433.551C361.176 433.575 361.027 433.586 360.876 433.586H255.836C255.728 433.586 255.615 433.58 255.508 433.566C255.467 433.563 255.422 433.557 255.383 433.548C254.312 433.384 253.47 432.652 253.318 431.745C253.309 431.682 253.3 431.623 253.297 431.56C253.294 431.521 253.294 431.486 253.294 431.447V425.912C253.294 425.874 253.294 425.838 253.297 425.799C253.3 425.731 253.309 425.663 253.321 425.594C253.509 424.571 254.568 423.776 255.836 423.776H360.876C360.941 423.776 361.009 423.779 361.075 423.782C361.084 423.782 361.096 423.785 361.102 423.785C361.123 423.788 361.14 423.788 361.161 423.788C361.191 423.791 361.224 423.794 361.256 423.8C361.28 423.8 361.298 423.803 361.322 423.809C361.483 423.833 361.64 423.868 361.789 423.916C361.878 423.946 361.962 423.978 362.045 424.014H362.048C362.375 424.157 362.661 424.362 362.887 424.603C362.92 424.639 362.953 424.675 362.982 424.71C363.253 425.064 363.414 425.475 363.414 425.918Z" fill="#FFB93E"/>
<path d="M311.835 433.589H255.561C255.52 433.589 255.472 433.586 255.43 433.586C255.38 433.583 255.332 433.578 255.285 433.575C254.267 433.453 253.455 432.7 253.315 431.751C253.306 431.688 253.297 431.629 253.294 431.566C253.291 431.527 253.291 431.492 253.291 431.453V425.918C253.291 425.88 253.291 425.844 253.294 425.805C253.297 425.737 253.306 425.669 253.318 425.6C253.333 425.52 253.354 425.442 253.38 425.365C253.642 424.457 254.517 423.782 255.561 423.782H304.926C304.947 423.865 304.967 423.943 304.994 424.026C305.813 426.868 307.64 430.679 311.734 433.518C311.767 433.542 311.802 433.563 311.835 433.589Z" fill="#FFA412"/>
<path d="M350.634 423.782H349.44V433.586H350.634V423.782Z" fill="#FFA412"/>
<path d="M346.593 423.782H345.399V433.586H346.593V423.782Z" fill="#FFA412"/>
<path d="M341.745 423.782H340.552V433.586H341.745V423.782Z" fill="#FFA412"/>
<path d="M334.319 423.782H333.125V433.586H334.319V423.782Z" fill="#FFA412"/>
<path d="M326.463 423.782H325.27V433.586H326.463V423.782Z" fill="#FFA412"/>
<path d="M314.424 423.782H313.231V433.586H314.424V423.782Z" fill="#FFA412"/>
<path d="M303.15 423.782H301.957V433.586H303.15V423.782Z" fill="#FFA412"/>
<path d="M293.08 423.782H291.887V433.587H293.08V423.782Z" fill="#FFA412"/>
<path d="M354.481 423.782H353.288V433.586H354.481V423.782Z" fill="#FFA412"/>
<path d="M357.022 423.782H355.829V433.586H357.022V423.782Z" fill="#FFA412"/>
<path d="M359.474 423.782H358.281V433.586H359.474V423.782Z" fill="#FFA412"/>
<path d="M361.322 423.815V433.551C361.176 433.575 361.027 433.583 360.872 433.583H360.125V423.779H360.872C361.027 423.782 361.176 423.794 361.322 423.815Z" fill="#FFA412"/>
<path d="M362.979 424.725V432.646C362.691 433.006 362.274 433.286 361.786 433.444V423.925C362.274 424.083 362.691 424.365 362.979 424.725Z" fill="#FFA412"/>
<path d="M368.841 416.352V421.887C368.841 422.33 368.68 422.741 368.403 423.08C368.115 423.437 367.701 423.719 367.213 423.877C367.064 423.928 366.906 423.963 366.746 423.984C366.6 424.008 366.451 424.02 366.299 424.02H261.259C260.84 424.02 260.438 423.931 260.087 423.776C259.391 423.47 258.879 422.901 258.748 422.226C258.739 422.181 258.736 422.134 258.727 422.089C258.724 422.056 258.721 422.026 258.721 421.994C258.718 421.958 258.718 421.922 258.718 421.884V416.349C258.718 416.313 258.718 416.275 258.721 416.236C258.724 416.168 258.73 416.099 258.745 416.031C258.933 415.007 259.992 414.213 261.259 414.213H366.299C366.451 414.213 366.6 414.224 366.746 414.248C366.906 414.272 367.064 414.308 367.213 414.355C367.701 414.513 368.115 414.796 368.403 415.156C368.68 415.504 368.841 415.909 368.841 416.352Z" fill="#FFB93E"/>
<path d="M317.263 424.024H260.99C260.612 424.024 260.258 423.935 259.945 423.78C259.32 423.473 258.865 422.905 258.752 422.23C258.743 422.185 258.74 422.137 258.731 422.093C258.728 422.06 258.725 422.03 258.725 421.998C258.722 421.962 258.722 421.926 258.722 421.887V416.353C258.722 416.317 258.722 416.279 258.725 416.24C258.728 416.171 258.734 416.103 258.749 416.035C258.764 415.957 258.785 415.883 258.808 415.805C259.064 414.895 259.945 414.216 260.99 414.216H310.351C311.119 417.025 312.877 420.882 316.918 423.78C317.031 423.863 317.147 423.944 317.263 424.024Z" fill="#FFA412"/>
<path d="M356.06 414.219H354.867V424.023H356.06V414.219Z" fill="#FFA412"/>
<path d="M352.019 414.219H350.826V424.023H352.019V414.219Z" fill="#FFA412"/>
<path d="M347.172 414.219H345.979V424.023H347.172V414.219Z" fill="#FFA412"/>
<path d="M339.745 414.219H338.552V424.023H339.745V414.219Z" fill="#FFA412"/>
<path d="M331.89 414.219H330.697V424.023H331.89V414.219Z" fill="#FFA412"/>
<path d="M319.851 414.219H318.658V424.023H319.851V414.219Z" fill="#FFA412"/>
<path d="M308.574 414.219H307.38V424.023H308.574V414.219Z" fill="#FFA412"/>
<path d="M298.507 414.219H297.314V424.023H298.507V414.219Z" fill="#FFA412"/>
<path d="M359.908 414.219H358.714V424.023H359.908V414.219Z" fill="#FFA412"/>
<path d="M362.449 414.219H361.255V424.023H362.449V414.219Z" fill="#FFA412"/>
<path d="M364.901 414.219H363.708V424.023H364.901V414.219Z" fill="#FFA412"/>
<path d="M366.748 414.251V423.987C366.603 424.011 366.454 424.02 366.299 424.02H365.552V414.216H366.299C366.454 414.218 366.603 414.23 366.748 414.251Z" fill="#FFA412"/>
<path d="M368.406 415.162V423.083C368.117 423.443 367.7 423.722 367.212 423.88V414.361C367.7 414.519 368.117 414.802 368.406 415.162Z" fill="#FFA412"/>
<path d="M377.425 406.545V412.082C377.425 412.522 377.264 412.93 376.991 413.269L376.988 413.272C376.952 413.317 376.913 413.362 376.872 413.403C376.711 413.573 376.524 413.722 376.309 413.844C376.205 413.903 376.092 413.96 375.973 414.004C375.97 414.004 375.97 414.007 375.97 414.007C375.914 414.031 375.854 414.052 375.792 414.073C375.643 414.123 375.485 414.159 375.324 414.18C375.179 414.204 375.03 414.213 374.878 414.213H269.838C268.57 414.213 267.511 413.421 267.324 412.398C267.312 412.329 267.303 412.261 267.3 412.186C267.297 412.151 267.297 412.115 267.297 412.079V406.542C267.297 406.506 267.297 406.47 267.3 406.434C267.362 405.399 268.32 404.548 269.537 404.426C269.636 404.414 269.734 404.411 269.835 404.411H374.875C375.027 404.411 375.176 404.423 375.321 404.444C375.482 404.471 375.64 404.506 375.789 404.557C376.214 404.694 376.583 404.929 376.866 405.223C376.904 405.265 376.943 405.31 376.982 405.354L376.985 405.357C377.264 405.7 377.425 406.104 377.425 406.545Z" fill="#FFB93E"/>
<path d="M325.847 414.216H269.574C268.529 414.216 267.648 413.537 267.392 412.63C267.369 412.555 267.348 412.478 267.333 412.401C267.321 412.332 267.312 412.264 267.309 412.189C267.306 412.154 267.306 412.118 267.306 412.082V406.545C267.306 406.509 267.306 406.473 267.309 406.438C267.366 405.402 268.223 404.551 269.303 404.429C269.392 404.417 269.481 404.414 269.571 404.414H318.932C318.932 404.417 318.935 404.423 318.935 404.429C319.732 407.312 321.568 411.297 325.847 414.216Z" fill="#FFA412"/>
<path d="M364.645 404.411H363.452V414.216H364.645V404.411Z" fill="#FFA412"/>
<path d="M360.604 404.411H359.411V414.216H360.604V404.411Z" fill="#FFA412"/>
<path d="M355.757 404.411H354.563V414.216H355.757V404.411Z" fill="#FFA412"/>
<path d="M348.33 404.411H347.137V414.216H348.33V404.411Z" fill="#FFA412"/>
<path d="M340.474 404.411H339.281V414.216H340.474V404.411Z" fill="#FFA412"/>
<path d="M328.432 404.411H327.239V414.216H328.432V404.411Z" fill="#FFA412"/>
<path d="M317.158 404.411H315.965V414.216H317.158V404.411Z" fill="#FFA412"/>
<path d="M307.092 404.411H305.898V414.216H307.092V404.411Z" fill="#FFA412"/>
<path d="M368.489 404.411H367.296V414.216H368.489V404.411Z" fill="#FFA412"/>
<path d="M371.03 404.411H369.837V414.216H371.03V404.411Z" fill="#FFA412"/>
<path d="M373.485 404.411H372.292V414.216H373.485V404.411Z" fill="#FFA412"/>
<path d="M375.333 404.447V414.183C375.187 414.207 375.038 414.218 374.884 414.218H374.137V404.414H374.884C375.038 404.411 375.187 404.423 375.333 404.447Z" fill="#FFA412"/>
<path d="M376.991 405.354V413.275C376.702 413.635 376.285 413.915 375.797 414.073V404.554C376.285 404.715 376.702 404.994 376.991 405.354Z" fill="#FFA412"/>
<path d="M363.633 396.758V402.293C363.633 402.736 363.476 403.144 363.199 403.483C362.91 403.843 362.494 404.125 362.006 404.283C361.857 404.334 361.699 404.369 361.545 404.39C361.494 404.396 361.446 404.402 361.396 404.411H361.375C361.342 404.417 361.31 404.417 361.277 404.42C361.256 404.42 361.238 404.423 361.217 404.423C361.176 404.423 361.134 404.426 361.092 404.426H256.058C255.145 404.426 254.341 404.018 253.895 403.408C253.675 403.114 253.541 402.769 253.517 402.4C253.514 402.361 253.514 402.325 253.514 402.287V396.752C253.514 396.713 253.514 396.678 253.517 396.639C253.574 395.731 254.318 394.967 255.317 394.711C255.549 394.648 255.799 394.616 256.055 394.616H361.089C361.134 394.616 361.179 394.619 361.223 394.619C361.247 394.619 361.268 394.622 361.289 394.625C361.375 394.628 361.455 394.636 361.539 394.651C361.696 394.675 361.854 394.711 362 394.758C362.074 394.782 362.149 394.809 362.217 394.842H362.22C362.5 394.958 362.75 395.115 362.955 395.303C362.958 395.306 362.961 395.309 362.964 395.315C362.973 395.324 362.985 395.33 362.994 395.342C363.065 395.407 363.131 395.479 363.193 395.556C363.476 395.904 363.633 396.315 363.633 396.758Z" fill="#FFB93E"/>
<path d="M312.055 404.43H255.785C254.993 404.43 254.291 404.043 253.889 403.462C253.672 403.153 253.538 402.793 253.517 402.406C253.514 402.367 253.514 402.332 253.514 402.293V396.759C253.514 396.72 253.514 396.684 253.517 396.645C253.574 395.666 254.329 394.86 255.326 394.667C255.475 394.637 255.627 394.619 255.785 394.619H305.143C305.164 394.693 305.185 394.771 305.208 394.845C306.027 397.708 307.872 401.558 312.031 404.409C312.04 404.415 312.049 404.424 312.055 404.43Z" fill="#FFA412"/>
<path d="M350.853 394.622H349.66V404.426H350.853V394.622Z" fill="#FFA412"/>
<path d="M346.812 394.622H345.619V404.426H346.812V394.622Z" fill="#FFA412"/>
<path d="M341.968 394.622H340.775V404.426H341.968V394.622Z" fill="#FFA412"/>
<path d="M334.538 394.622H333.345V404.426H334.538V394.622Z" fill="#FFA412"/>
<path d="M326.686 394.622H325.493V404.426H326.686V394.622Z" fill="#FFA412"/>
<path d="M314.644 394.622H313.451V404.426H314.644V394.622Z" fill="#FFA412"/>
<path d="M303.369 394.622H302.176V404.426H303.369V394.622Z" fill="#FFA412"/>
<path d="M293.3 394.622H292.107V404.427H293.3V394.622Z" fill="#FFA412"/>
<path d="M354.701 394.622H353.507V404.426H354.701V394.622Z" fill="#FFA412"/>
<path d="M357.242 394.622H356.049V404.426H357.242V394.622Z" fill="#FFA412"/>
<path d="M359.697 394.622H358.503V404.426H359.697V394.622Z" fill="#FFA412"/>
<path d="M361.541 394.654V404.39C361.396 404.414 361.247 404.426 361.092 404.426H360.345V394.619H361.092C361.247 394.622 361.396 394.633 361.541 394.654Z" fill="#FFA412"/>
<path d="M363.199 395.565V403.486C362.91 403.846 362.493 404.125 362.005 404.283V394.764C362.493 394.922 362.91 395.205 363.199 395.565Z" fill="#FFA412"/>
<path d="M371.359 387.177V392.715C371.359 393.155 371.198 393.566 370.924 393.905C370.635 394.265 370.219 394.545 369.731 394.703C369.582 394.753 369.427 394.789 369.267 394.813C369.121 394.837 368.972 394.848 368.817 394.848H263.78C263.373 394.848 262.986 394.768 262.647 394.622C261.882 394.301 261.334 393.658 261.251 392.911C261.248 392.885 261.245 392.855 261.245 392.825C261.245 392.789 261.242 392.751 261.242 392.715V387.177C261.242 387.142 261.242 387.103 261.245 387.067C261.308 386.029 262.269 385.181 263.483 385.059C263.581 385.047 263.682 385.044 263.783 385.044H368.82C368.972 385.044 369.124 385.056 369.27 385.08C369.43 385.103 369.585 385.139 369.734 385.19C370.222 385.347 370.638 385.63 370.927 385.987C371.198 386.326 371.359 386.737 371.359 387.177Z" fill="#FFB93E"/>
<path d="M319.78 394.848H263.506C263.143 394.848 262.798 394.768 262.494 394.622C261.81 394.301 261.322 393.658 261.248 392.911C261.245 392.884 261.242 392.855 261.242 392.825C261.242 392.789 261.239 392.75 261.239 392.715V387.177C261.239 387.142 261.239 387.103 261.242 387.067C261.298 386.029 262.155 385.181 263.238 385.059C263.325 385.047 263.414 385.044 263.506 385.044H312.868C312.868 385.05 312.871 385.056 312.871 385.059C313.641 387.871 315.406 391.724 319.452 394.622C319.563 394.699 319.67 394.774 319.78 394.848Z" fill="#FFA412"/>
<path d="M358.575 385.043H357.382V394.851H358.575V385.043Z" fill="#FFA412"/>
<path d="M354.534 385.043H353.341V394.851H354.534V385.043Z" fill="#FFA412"/>
<path d="M349.69 385.043H348.497V394.851H349.69V385.043Z" fill="#FFA412"/>
<path d="M342.26 385.043H341.067V394.851H342.26V385.043Z" fill="#FFA412"/>
<path d="M334.408 385.043H333.214V394.851H334.408V385.043Z" fill="#FFA412"/>
<path d="M322.366 385.043H321.172V394.851H322.366V385.043Z" fill="#FFA412"/>
<path d="M311.091 385.043H309.898V394.851H311.091V385.043Z" fill="#FFA412"/>
<path d="M301.025 385.044H299.832V394.851H301.025V385.044Z" fill="#FFA412"/>
<path d="M362.422 385.043H361.229V394.851H362.422V385.043Z" fill="#FFA412"/>
<path d="M364.963 385.043H363.77V394.851H364.963V385.043Z" fill="#FFA412"/>
<path d="M367.418 385.043H366.225V394.851H367.418V385.043Z" fill="#FFA412"/>
<path d="M369.263 385.076V394.812C369.117 394.836 368.968 394.848 368.814 394.848H368.067V385.04H368.814C368.968 385.04 369.117 385.055 369.263 385.076Z" fill="#FFA412"/>
<path d="M370.923 385.984V393.904C370.635 394.264 370.218 394.544 369.73 394.702V385.183C370.218 385.344 370.632 385.626 370.923 385.984Z" fill="#FFA412"/>
<path d="M374.646 377.387V382.925C374.646 383.365 374.485 383.776 374.212 384.115C373.923 384.475 373.507 384.755 373.019 384.912C372.87 384.963 372.715 384.999 372.554 385.022C372.504 385.028 372.456 385.037 372.406 385.04C372.379 385.043 372.352 385.046 372.322 385.046C372.295 385.049 372.269 385.049 372.239 385.052C372.194 385.055 372.15 385.055 372.105 385.055H267.068C265.714 385.055 264.598 384.154 264.53 383.032C264.53 382.996 264.527 382.957 264.527 382.922V377.384C264.527 377.348 264.527 377.31 264.53 377.274C264.598 376.152 265.714 375.251 267.068 375.251H372.105C372.257 375.251 372.406 375.263 372.554 375.283C372.715 375.307 372.87 375.343 373.019 375.394C373.507 375.551 373.923 375.834 374.212 376.191C374.485 376.536 374.646 376.944 374.646 377.387Z" fill="#FFB93E"/>
<path d="M323.068 385.059H266.797C265.589 385.059 264.592 384.157 264.53 383.035C264.53 383 264.527 382.961 264.527 382.925V377.388C264.527 377.352 264.527 377.313 264.53 377.278C264.592 376.156 265.589 375.254 266.797 375.254H316.159C316.944 378.137 318.777 382.119 323.047 385.044C323.05 385.047 323.059 385.053 323.068 385.059Z" fill="#FFA412"/>
<path d="M361.863 375.251H360.67V385.055H361.863V375.251Z" fill="#FFA412"/>
<path d="M357.822 375.251H356.629V385.055H357.822V375.251Z" fill="#FFA412"/>
<path d="M352.978 375.251H351.785V385.055H352.978V375.251Z" fill="#FFA412"/>
<path d="M345.548 375.251H344.355V385.055H345.548V375.251Z" fill="#FFA412"/>
<path d="M337.696 375.251H336.502V385.055H337.696V375.251Z" fill="#FFA412"/>
<path d="M325.654 375.251H324.46V385.055H325.654V375.251Z" fill="#FFA412"/>
<path d="M314.379 375.251H313.186V385.055H314.379V375.251Z" fill="#FFA412"/>
<path d="M304.31 375.251H303.117V385.055H304.31V375.251Z" fill="#FFA412"/>
<path d="M365.71 375.251H364.517V385.055H365.71V375.251Z" fill="#FFA412"/>
<path d="M368.252 375.251H367.059V385.055H368.252V375.251Z" fill="#FFA412"/>
<path d="M370.706 375.251H369.513V385.055H370.706V375.251Z" fill="#FFA412"/>
<path d="M372.551 375.286V385.025C372.405 385.049 372.257 385.058 372.102 385.058H371.355V375.254H372.102C372.257 375.251 372.405 375.263 372.551 375.286Z" fill="#FFA412"/>
<path d="M374.209 376.194V384.115C373.92 384.475 373.504 384.755 373.016 384.912V375.394C373.504 375.554 373.92 375.834 374.209 376.194Z" fill="#FFA412"/>
<path d="M341.35 319.37C341.35 319.37 335.833 327.136 330.775 327.246C325.716 327.353 318.022 323.646 318.022 323.646C318.022 323.646 313.377 313.297 316.528 309.247C316.528 309.247 319.688 307.86 322.991 310.309C323.559 310.732 324.133 311.264 324.702 311.946C325.502 312.91 326.404 313.457 327.356 313.746C330.965 314.844 335.25 312.261 336.851 314.755C337.788 316.204 338.803 317.293 339.642 318.058C340.63 318.938 341.35 319.37 341.35 319.37Z" fill="#FFEDDC"/>
<path d="M269.428 375.397C269.428 375.397 288.927 328.148 324.026 327.246C324.026 327.246 356.427 330.847 358.224 375.397H269.428Z" fill="#FFEDDC"/>
<path d="M314.412 328.689C314.412 328.689 328.481 331.817 332.822 329.978C332.822 329.978 333.477 324.095 327.552 324.919C323.497 325.485 320.857 323.536 319.301 322.744C317.102 321.628 313.826 326.228 314.412 328.689Z" fill="#DB6A1D"/>
<path d="M326.654 319.822C325.755 320.498 322.991 310.309 322.991 310.309C323.559 310.732 324.133 311.264 324.702 311.946C325.502 312.91 326.404 313.457 327.356 313.746C327.365 314.044 327.528 319.165 326.654 319.822Z" fill="#E5C1A1"/>
<path d="M339.642 318.058C339.442 318.174 332.938 322.072 332.054 322.072C331.156 322.072 336.851 314.755 336.851 314.755C337.788 316.204 338.803 317.293 339.642 318.058Z" fill="#E5C1A1"/>
<path d="M288.477 362.197C288.117 361.888 302.278 341.347 306.176 341.199C310.074 341.05 318.837 345.698 325.181 346.299C331.525 346.9 337.675 345.099 338.874 348.849C340.074 352.598 343.373 365.893 341.35 368.02C339.327 370.145 296.264 368.847 288.477 362.197Z" fill="#F9DDBF"/>
<path d="M425.629 189.728C424.734 190.421 423.787 191.07 422.799 191.671C422.416 191.906 422.029 192.129 421.63 192.349C420.627 192.903 419.604 193.397 418.565 193.828C418.265 193.775 417.961 193.724 417.664 193.673C415.777 193.358 413.914 193.069 412.081 192.808C411.174 192.677 410.272 192.552 409.38 192.433C405.63 191.933 402.021 191.537 398.593 191.225C397.671 191.135 396.763 191.058 395.868 190.987C395.156 190.927 394.457 190.873 393.764 190.823C392.071 190.698 390.434 190.594 388.857 190.504C386.643 188.936 384.614 187.062 382.844 184.896C381.668 183.461 380.606 181.896 379.678 180.212C371.444 165.275 376.875 146.49 391.812 138.257C392.205 138.04 392.603 137.831 393.002 137.638C407.731 130.318 425.748 135.852 433.764 150.394C441.221 163.915 437.478 180.581 425.629 189.728Z" fill="#FFB93E"/>
<path d="M431.137 152.269C423.769 138.905 406.907 134.028 393.547 141.39C384.409 146.428 379.237 155.905 379.237 165.668C379.237 170.181 380.344 174.758 382.674 178.983C383.933 181.265 385.471 183.301 387.215 185.074C389.729 187.612 392.678 189.606 395.874 190.987C396.769 191.058 397.68 191.138 398.599 191.225C394.811 189.996 391.291 187.937 388.342 185.131C386.394 183.277 384.691 181.099 383.326 178.62C376.158 165.62 380.904 149.21 393.904 142.045C406.907 134.876 423.314 139.622 430.479 152.623C437.514 165.382 433.074 181.42 420.621 188.785C420.383 188.924 420.142 189.064 419.898 189.198C416.548 191.046 412.968 192.102 409.383 192.43C410.275 192.549 411.174 192.674 412.084 192.805C414.878 192.272 417.637 191.299 420.261 189.856C420.764 189.579 421.252 189.287 421.731 188.987C433.97 181.23 438.222 165.129 431.137 152.269Z" fill="#FFA412"/>
<path d="M420.512 168.316C419.979 167.007 419.292 165.965 418.447 165.194C417.601 164.424 416.617 163.846 415.498 163.46C414.379 163.076 413.129 162.841 411.752 162.757C410.374 162.671 408.874 162.653 407.253 162.698C406.253 162.728 405.396 162.71 404.685 162.644C403.973 162.582 403.372 162.448 402.875 162.252C402.379 162.052 401.977 161.778 401.667 161.43C401.358 161.085 401.102 160.666 400.9 160.166C400.697 159.666 400.581 159.172 400.552 158.678C400.522 158.19 400.593 157.723 400.772 157.282C400.944 156.842 401.233 156.434 401.632 156.062C402.027 155.688 402.554 155.369 403.206 155.104C404.411 154.616 405.536 154.625 406.58 155.137C407.624 155.646 408.472 156.708 409.133 158.327L415.423 155.774C414.876 154.426 414.189 153.286 413.361 152.358C412.537 151.429 411.609 150.709 410.573 150.207C409.541 149.698 408.413 149.403 407.196 149.317C405.979 149.231 404.711 149.359 403.396 149.704L401.614 145.318L398.132 146.731L399.888 151.055C398.632 151.706 397.567 152.465 396.692 153.331C395.82 154.197 395.148 155.131 394.678 156.14C394.208 157.149 393.958 158.205 393.937 159.312C393.916 160.419 394.136 161.549 394.6 162.695C395.139 164.013 395.832 165.061 396.674 165.831C397.522 166.602 398.501 167.179 399.62 167.557C400.736 167.935 401.986 168.164 403.366 168.235C404.75 168.31 406.253 168.307 407.877 168.229C408.818 168.176 409.636 168.185 410.332 168.247C411.025 168.313 411.624 168.447 412.129 168.649C412.635 168.851 413.055 169.137 413.388 169.506C413.724 169.872 414.004 170.339 414.233 170.905C414.435 171.404 414.534 171.901 414.534 172.398C414.531 172.895 414.418 173.365 414.194 173.815C413.971 174.267 413.641 174.686 413.198 175.07C412.751 175.454 412.192 175.784 411.508 176.061C410.909 176.305 410.296 176.463 409.66 176.54C409.023 176.618 408.404 176.558 407.797 176.353C407.193 176.153 406.625 175.784 406.098 175.255C405.568 174.725 405.11 173.981 404.723 173.023L398.43 175.576C399.091 177.195 399.912 178.477 400.909 179.426C401.899 180.376 402.986 181.051 404.167 181.459C405.348 181.869 406.583 182.045 407.871 181.994C409.157 181.941 410.43 181.733 411.683 181.364L413.308 185.366L416.768 183.961L415.135 179.938C416.39 179.287 417.468 178.534 418.366 177.683C419.262 176.829 419.949 175.906 420.422 174.913C420.898 173.922 421.151 172.868 421.181 171.756C421.22 170.649 420.994 169.5 420.512 168.316Z" fill="#FFA412"/>
<path opacity="0.5" d="M299.314 446.256C293.726 462.461 279.729 474.601 264.524 478.928V474.616C264.524 474.581 264.527 474.545 264.527 474.509C264.53 474.438 264.539 474.369 264.55 474.298C264.565 474.218 264.586 474.14 264.613 474.063C264.875 473.158 265.753 472.483 266.797 472.483H255.564C254.52 472.483 253.645 471.804 253.383 470.9C253.359 470.822 253.336 470.745 253.321 470.665C253.312 470.596 253.3 470.528 253.297 470.456C253.294 470.421 253.294 470.385 253.294 470.343V464.809C253.294 464.773 253.294 464.735 253.297 464.696C253.3 464.627 253.309 464.559 253.321 464.488C253.336 464.407 253.356 464.33 253.383 464.252C253.645 463.345 254.52 462.669 255.564 462.669H259.947C259.322 462.363 258.867 461.795 258.754 461.119C258.745 461.075 258.742 461.027 258.733 460.982C258.73 460.953 258.727 460.92 258.727 460.887C258.724 460.851 258.724 460.816 258.724 460.78V455.242C258.724 455.207 258.724 455.171 258.727 455.135C258.73 455.067 258.736 454.995 258.751 454.93C258.766 454.853 258.787 454.775 258.811 454.701C259.067 453.79 259.947 453.112 260.992 453.112H263.509C262.468 453.112 261.587 452.437 261.325 451.529C261.301 451.452 261.277 451.374 261.262 451.294C261.254 451.225 261.242 451.157 261.239 451.089V445.331C261.298 444.292 262.155 443.444 263.238 443.322H255.787C254.576 443.322 253.583 442.421 253.52 441.299C253.517 441.263 253.517 441.228 253.517 441.186V435.651C253.517 435.616 253.517 435.577 253.52 435.538C253.52 435.509 253.523 435.479 253.526 435.449C253.618 434.524 254.344 433.768 255.288 433.569C254.27 433.447 253.458 432.694 253.318 431.745C253.309 431.682 253.3 431.623 253.297 431.56C253.294 431.521 253.294 431.486 253.294 431.447V425.912C253.294 425.874 253.294 425.838 253.297 425.799C253.3 425.731 253.309 425.662 253.321 425.594C253.336 425.514 253.356 425.436 253.383 425.359C253.645 424.451 254.52 423.776 255.564 423.776H259.947C259.322 423.47 258.867 422.901 258.754 422.226C258.745 422.181 258.742 422.133 258.733 422.089C258.73 422.056 258.727 422.026 258.727 421.994C258.724 421.958 258.724 421.922 258.724 421.884V416.349C258.724 416.313 258.724 416.275 258.727 416.236C258.73 416.168 258.736 416.099 258.751 416.031C258.766 415.953 258.787 415.879 258.811 415.801C259.067 414.891 259.947 414.213 260.992 414.213H269.576C268.532 414.213 267.651 413.534 267.395 412.627C267.371 412.552 267.35 412.475 267.336 412.397C267.324 412.329 267.315 412.261 267.312 412.186C267.309 412.151 267.309 412.115 267.309 412.079V406.542C267.309 406.506 267.309 406.47 267.312 406.434C267.368 405.399 268.225 404.548 269.305 404.426H255.787C254.996 404.426 254.294 404.039 253.892 403.459L253.898 403.408L255.323 394.714L255.329 394.663L257.356 382.258C281.005 385.424 298.737 403.37 301.504 425.026C302.405 432.087 301.694 439.353 299.314 446.256Z" fill="#E2810E"/>
<path d="M275.086 464.988C295.262 444.811 295.262 412.1 275.086 391.924C254.91 371.747 222.198 371.747 202.022 391.924C181.846 412.1 181.846 444.811 202.022 464.988C222.198 485.164 254.91 485.164 275.086 464.988Z" fill="#E2810E"/>
<path d="M261.495 474.75C260.858 475.137 260.212 475.515 259.555 475.878C259.332 476 259.108 476.122 258.885 476.238C258.377 476.509 257.868 476.771 257.353 477.027C232.751 489.11 202.74 479.835 189.364 455.573C176.605 432.432 183.464 403.768 204.397 388.715C206.066 387.513 207.825 386.4 209.67 385.382C210.33 385.016 211 384.668 211.669 384.335C212.321 384.011 212.978 383.701 213.639 383.407C215.659 382.505 217.716 381.746 219.792 381.124C222.878 380.196 226.008 379.568 229.148 379.238C238.881 378.208 248.67 379.985 257.353 384.234C266.565 388.739 274.531 396.023 279.857 405.688C293.271 430.022 285.005 460.453 261.495 474.75Z" fill="#FFB93E"/>
<path d="M234.974 477.482C230.653 477.482 226.309 476.872 222.045 475.637C210.167 472.2 200.338 464.345 194.369 453.517C188.4 442.689 187.005 430.182 190.442 418.304C193.878 406.426 201.734 396.597 212.562 390.628C234.917 378.304 263.129 386.466 275.45 408.821C287.772 431.176 279.613 459.387 257.258 471.709C250.316 475.533 242.683 477.482 234.974 477.482ZM234.831 386.129C227.484 386.129 220.04 387.927 213.16 391.717C202.624 397.526 194.979 407.089 191.635 418.646C188.29 430.203 189.65 442.373 195.458 452.91C201.267 463.446 210.83 471.09 222.387 474.435C233.944 477.779 246.114 476.42 256.651 470.611C278.402 458.62 286.344 431.17 274.352 409.419C266.155 394.547 250.723 386.129 234.831 386.129Z" fill="#FFA412"/>
<path d="M257.674 435.663C257.573 435.407 257.463 435.163 257.353 434.919C256.513 433.078 255.472 431.584 254.219 430.441C252.803 429.153 251.16 428.183 249.286 427.54C247.411 426.894 245.322 426.502 243.019 426.362C240.713 426.219 238.202 426.189 235.491 426.264C233.816 426.314 232.382 426.284 231.191 426.177C230.004 426.07 228.993 425.85 228.165 425.517C227.335 425.183 226.663 424.728 226.145 424.148C225.627 423.571 225.202 422.866 224.862 422.029C224.523 421.196 224.33 420.369 224.279 419.548C224.229 418.73 224.351 417.95 224.645 417.212C224.94 416.477 225.419 415.796 226.085 415.171C226.749 414.546 227.627 414.01 228.722 413.567C230.736 412.749 232.62 412.766 234.366 413.62C236.113 414.474 237.535 416.257 238.633 418.962L249.158 414.689C248.241 412.436 247.093 410.529 245.712 408.976C244.335 407.422 242.778 406.22 241.047 405.372C239.318 404.524 237.434 404.03 235.393 403.884C233.355 403.742 231.236 403.956 229.04 404.533L226.059 397.192L220.233 399.558L223.172 406.798C221.069 407.89 219.286 409.157 217.822 410.603C216.361 412.052 215.237 413.617 214.451 415.302C213.663 416.989 213.252 418.759 213.213 420.613C213.175 422.467 213.543 424.353 214.323 426.27C215.222 428.48 216.376 430.23 217.793 431.521C219.209 432.813 220.848 433.774 222.72 434.408C224.589 435.041 226.681 435.422 228.993 435.544C231.305 435.669 233.822 435.666 236.539 435.535C238.116 435.446 239.484 435.455 240.645 435.562C241.805 435.669 242.808 435.892 243.653 436.232C244.498 436.574 245.2 437.05 245.76 437.663C246.319 438.276 246.792 439.056 247.176 440.005C247.515 440.841 247.682 441.671 247.679 442.501C247.676 443.331 247.492 444.123 247.117 444.879C246.745 445.634 246.188 446.334 245.444 446.976C244.7 447.619 243.76 448.17 242.618 448.637C241.624 449.041 240.594 449.306 239.529 449.44C238.464 449.571 237.425 449.467 236.414 449.128C235.399 448.792 234.45 448.179 233.569 447.289C232.685 446.402 231.918 445.155 231.266 443.555L220.741 447.827C221.839 450.532 223.22 452.681 224.88 454.264C226.541 455.85 228.359 456.983 230.335 457.665C232.31 458.349 234.375 458.647 236.53 458.557C238.684 458.471 240.814 458.12 242.912 457.504L245.629 464.202L251.419 461.851L248.688 455.121C250.791 454.028 252.592 452.773 254.091 451.348C255.481 450.029 256.567 448.613 257.353 447.089C257.415 446.967 257.478 446.843 257.537 446.718C258.332 445.057 258.754 443.296 258.805 441.436C258.858 439.57 258.48 437.648 257.674 435.663Z" fill="#FFA412"/>
<path d="M196.226 248.745C196.383 248.111 182.464 255.035 181.759 255.818C175.23 263.057 177.093 272.508 180.827 272.6C183.223 272.659 182.758 276.641 182.758 276.641L209.446 265.352C209.443 265.349 206.232 246.611 196.226 248.745Z" fill="#2C3A64"/>
<path d="M199.511 250.206C199.511 250.206 200.466 239.809 188.85 239.809C188.85 239.809 192.37 240.765 194.191 242.675C194.191 242.675 186.781 238.325 178.721 245.008C170.657 251.691 175.668 268.452 173.216 271.636C170.764 274.82 161.216 275.454 162.385 285.746C163.551 296.035 192.688 308.926 190.816 317.439C190.816 317.439 202.234 300.654 194.069 292.994C194.069 292.994 198.047 296.744 198.455 301.198C198.455 301.198 199.535 292.5 194 289.718C189.102 287.255 185.088 278.251 185.514 276.641C185.93 275.031 199.511 250.206 199.511 250.206Z" fill="#2C3A64"/>
<path d="M188.963 299.115C187.171 290.489 175.986 287.814 170.696 294.857C169.744 296.125 169.074 297.621 168.857 299.389C167.649 309.178 183.303 349.057 185.544 352.669C189.626 359.242 213.657 381.776 213.657 381.776L218.087 379.092C218.087 379.092 201.04 350.232 198.401 347.533C195.351 344.412 192.364 315.493 188.963 299.115Z" fill="#ED985F"/>
<path d="M211.976 379.107C211.976 379.107 218.441 374.864 220.887 375.135C223.333 375.408 230.418 377.447 230.504 378.488C230.591 379.53 222.613 380.178 222.078 380.749C221.542 381.318 216.124 384.936 214.16 383.799C212.196 382.666 211.976 379.107 211.976 379.107Z" fill="#ED985F"/>
<path d="M166.884 475L161.108 474.152C161.108 474.152 141.69 458.721 138.798 429.926C138.503 426.996 138.441 424.023 138.661 421.024C138.688 420.678 138.649 420.333 138.458 420.042C138.458 420.039 138.455 420.039 138.452 420.033C137.831 419.081 136.283 416.694 134.188 413.299C132.123 409.955 128.591 403.631 124.705 396.538C117.704 383.761 109.551 368.481 106.757 363.613C97.8481 348.102 102.142 337.672 102.142 337.672C102.142 337.672 126.997 335.215 133.805 329.258L136.257 333.039C136.257 333.039 141.642 356.88 141.386 356.99C141.651 357.799 141.922 358.626 142.196 359.465C146.445 372.582 151.334 388.977 154 402.328C155.496 409.841 156.291 416.388 155.865 420.845C155.72 422.375 155.898 424.725 156.306 427.629C158.71 444.736 166.884 475 166.884 475Z" fill="#2B478B"/>
<path d="M178.998 482.305H154.905C154.905 482.305 154.327 478.633 155.586 475.848C156.791 473.176 158.511 473.09 155.806 468.9C157.336 470.477 162.26 471.129 165.742 470.659C166.167 471.352 168.494 475.994 169.919 477.018C171.49 478.148 178.513 477.747 178.998 482.305Z" fill="#233862"/>
<path d="M142.196 359.462C140.092 371.07 135.12 390.387 124.705 396.538C117.704 383.761 109.551 368.481 106.757 363.613C97.8481 348.102 102.142 337.672 102.142 337.672C102.142 337.672 126.997 335.215 133.805 329.258L136.257 333.039C136.257 333.039 141.642 356.88 141.386 356.99C141.654 357.796 141.922 358.623 142.196 359.462Z" fill="#233862"/>
<path d="M186.386 293.765C186.386 293.765 189.793 297.309 191.349 301.552C191.349 301.552 185.916 317.159 173.213 319.114C173.213 319.114 183.261 293.759 186.386 293.765Z" fill="#ED7D2B"/>
<path d="M125.298 339.464L125.378 334.959C116.401 336.089 94.4204 324.229 94.4204 324.229C94.4204 324.229 85.0265 330.478 83.7411 348.319C83.1133 357.028 79.1439 393.854 78.7035 404.851C78.5428 408.836 78.4893 411.68 78.4714 412.817C78.4744 412.823 78.4744 412.826 78.4714 412.829C78.4654 413.177 78.3018 413.481 78.0905 413.757C76.2338 416.117 74.621 418.619 73.2255 421.214C59.526 446.703 66.6912 481.341 66.6912 481.341L69.872 480.532C69.872 480.532 81.4559 444.626 89.0287 429.096C90.3141 426.463 91.4805 424.413 92.4565 423.226C95.3041 419.768 98.3035 413.897 101.264 406.83C106.858 393.47 112.286 375.84 116.16 362.191C116.436 362.239 125.298 339.464 125.298 339.464Z" fill="#2B478B"/>
<path d="M177.84 309.387C163.162 306.018 172.541 285.395 173.392 285.755C175.424 285.341 179.89 281.771 183.886 274.796L184.425 275.263L193.441 283.166C193.441 283.166 191.358 286.24 189.602 289.251C188.234 291.608 187.067 293.932 187.252 294.729C187.981 295.303 181.756 310.288 177.84 309.387Z" fill="#FFB27D"/>
<path d="M193.441 283.172C193.441 283.172 191.355 286.243 189.605 289.257C183.999 285.803 183.993 278.864 184.425 275.269L193.441 283.172Z" fill="#ED985F"/>
<path d="M193.691 287.13C193.691 287.13 180.081 279.557 184.928 271.154C189.775 262.751 191.281 256.115 200.175 260.594C209.069 265.072 208.893 269.244 207.956 272.442C207.021 275.644 197.354 288.882 193.691 287.13Z" fill="#FFB27D"/>
<path d="M210.256 267.545C209.634 263.813 207.738 263.459 206.417 263.706C201.392 255.395 193.182 258.639 193.182 258.639C188.796 264.143 182.455 265.081 182.455 265.081C182.455 265.081 184.035 268.021 190.54 269.839C192.527 270.395 194.783 270.059 196.958 269.327C192.444 271.844 187.722 272.808 187.722 272.808C196.297 273.594 204.453 265.753 205.301 264.914C205.697 266.128 206.39 268.672 205.977 270.532C205.411 273.058 203.171 277.635 204.54 278.227C204.537 278.227 211.19 273.139 210.256 267.545Z" fill="#2C3A64"/>
<path d="M85.8536 482.305H61.7605C61.7605 482.305 61.1833 478.633 62.4419 475.848C63.647 473.176 65.5365 471.959 65.0842 468.725C66.6137 470.302 69.1102 472.066 72.5945 471.599C73.02 472.292 75.3499 475.994 76.7752 477.018C78.3493 478.148 85.3686 477.747 85.8536 482.305Z" fill="#233862"/>
<path d="M179.566 325.737C176.465 326.821 172.115 327.413 167.664 327.895C161.329 328.585 154.788 329.058 151.361 330.427C150.111 330.927 149.275 331.54 149.013 332.328C147.528 336.795 140.982 343.686 140.982 343.686C99.0266 341.776 94.4204 324.229 94.4204 324.229C122.647 291.405 170.44 281.905 170.44 281.905C170.44 281.905 173.853 280.458 182.452 287.29C188.189 291.852 187.433 293.601 187.433 293.601C187.433 293.601 188.689 322.557 179.566 325.737Z" fill="#F99746"/>
<path d="M167.663 327.895C161.328 328.585 154.788 329.058 151.36 330.427C149.959 309.503 159.835 293.765 159.835 293.765C159.835 293.765 166.277 319.977 167.663 327.895Z" fill="#ED7D2B"/>
<path d="M174.183 289.715C174.183 289.715 158.305 291.284 157.032 301.603C155.758 311.919 172.255 353.943 174.617 357.748C178.917 364.676 204.245 388.42 204.245 388.42L208.914 385.591C208.914 385.591 190.95 355.181 188.168 352.333C183.8 347.867 179.56 293.289 174.183 289.715Z" fill="#FFB27D"/>
<path d="M157.49 307.81C157.532 308.045 172.145 312.583 181.548 307.81C181.548 307.81 183.559 286.112 172.332 287.29C161.106 288.469 154.458 292.004 154.175 297.38C153.893 302.754 157.49 307.81 157.49 307.81Z" fill="#F99746"/>
<path d="M202.802 385.406C202.802 385.406 208.497 380.175 210.958 380.05C213.419 379.925 220.735 380.794 220.988 381.809C221.241 382.823 213.472 384.749 213.035 385.397C212.597 386.046 207.833 390.488 205.712 389.685C203.593 388.882 202.802 385.406 202.802 385.406Z" fill="#FFB27D"/>
<path d="M532.779 483.653C531.339 483.662 529.827 482.612 529.404 481.308L442.676 214.853C442.25 213.55 443.075 212.485 444.515 212.476C445.955 212.467 447.467 213.517 447.889 214.821L534.618 481.276C535.043 482.579 534.219 483.644 532.779 483.653Z" fill="#233862"/>
<path d="M602.677 483.245C601.237 483.254 599.725 482.204 599.303 480.901L512.571 214.443C512.146 213.14 512.97 212.074 514.41 212.065C515.851 212.056 517.362 213.107 517.785 214.41L604.513 480.865C604.942 482.171 604.117 483.237 602.677 483.245Z" fill="#233862"/>
<path d="M527.417 251.572L457.227 251.982C455.873 251.991 454.439 250.994 454.04 249.769C453.641 248.543 454.421 247.534 455.775 247.525L525.965 247.114C527.319 247.105 528.753 248.102 529.152 249.328C529.551 250.554 528.771 251.563 527.417 251.572Z" fill="#233862"/>
<path d="M542.56 298.095L472.369 298.505C471.015 298.514 469.581 297.517 469.182 296.291C468.784 295.065 469.563 294.057 470.917 294.048L541.108 293.637C542.461 293.628 543.896 294.625 544.294 295.851C544.693 297.077 543.913 298.086 542.56 298.095Z" fill="#233862"/>
<path d="M557.143 342.9L486.952 343.311C485.598 343.32 484.164 342.323 483.765 341.097C483.367 339.871 484.146 338.863 485.5 338.854L555.691 338.443C557.044 338.434 558.479 339.431 558.877 340.657C559.276 341.883 558.496 342.891 557.143 342.9Z" fill="#233862"/>
<path d="M573.562 393.342L503.371 393.753C502.017 393.762 500.583 392.765 500.184 391.539C499.786 390.313 500.565 389.304 501.919 389.295L572.109 388.885C573.463 388.876 574.898 389.873 575.296 391.098C575.695 392.324 574.915 393.336 573.562 393.342Z" fill="#233862"/>
<path d="M590.746 446.14L520.555 446.551C519.201 446.56 517.767 445.563 517.368 444.337C516.97 443.111 517.749 442.102 519.103 442.093L589.294 441.683C590.647 441.674 592.082 442.671 592.48 443.897C592.882 445.123 592.1 446.131 590.746 446.14Z" fill="#233862"/>
<path d="M443.628 165.73C442.337 164.817 439.406 162.811 439.254 163.257C439.144 163.579 439.302 164.126 439.653 164.695C437.88 164.034 436.082 163.6 431.827 164.415C430.976 164.578 430.203 165.063 429.735 165.792C429.301 166.468 429.14 167.313 430.226 167.988C432.399 169.339 431.768 168.53 434.785 170.497C437.802 172.464 441.498 172.964 443.706 171.586L446.669 171.092L447.038 166.218C447.032 166.218 445.345 166.019 443.628 165.73Z" fill="#FFB27D"/>
<path d="M521.255 124.864C521.255 124.864 514.271 133.148 505.377 129.684C505.377 129.684 503.464 125.057 503.437 121.647C503.434 121.228 503.428 120.82 503.422 120.433C503.375 116.592 503.247 114.437 503.247 114.437C503.247 114.437 503.25 114.437 503.256 114.434C503.66 114.265 516.851 108.849 516.839 109.299C516.613 119.686 521.255 124.864 521.255 124.864Z" fill="#FFB27D"/>
<path d="M515.515 111.774C514.241 114.131 509.879 118.746 503.422 120.43C503.375 116.589 503.247 114.434 503.247 114.434C503.247 114.434 503.25 114.434 503.256 114.431C503.622 114.333 515.893 111.081 515.515 111.774Z" fill="#ED975D"/>
<path d="M500.482 114.036C500.482 114.036 515.318 117.523 517.348 108.251C519.377 98.9794 522.659 93.186 513.274 90.5675C503.889 87.949 501.268 91.0823 499.837 94.0132C498.408 96.9411 496.676 112.887 500.482 114.036Z" fill="#FFB27D"/>
<path d="M516.842 110.777C517.044 110.908 520.237 111.887 526.28 99.8453C527.229 97.9558 527.875 93.8644 525.664 90.2521C523.453 86.6398 515.61 83.7981 509.093 82.5603C502.577 81.3254 501.012 84.9913 499.476 88.6751C497.867 92.5433 493.213 95.7271 493.213 95.7271C498.834 98.8663 505.6 94.3762 507.945 95.1142C510.29 95.8521 511.117 99.5477 511.292 100.732C511.468 101.916 511.739 102.901 514.687 101.842C517.636 100.783 516.02 106.02 515.547 107.022C515.55 107.025 515.149 109.694 516.842 110.777Z" fill="#233862"/>
<path d="M532.841 341.225H541.824C543.708 341.225 545.8 339.339 546.323 335.887C546.847 332.432 550.718 330.549 551.554 327.725C552.393 324.898 548.1 320.92 548.1 320.92L547.383 319.998L546.636 319.036L539.521 320.709C539.521 320.709 539.346 322.405 539.235 324.562C539.161 326.121 539.116 327.921 539.206 329.502C539.414 333.272 538.149 337.327 534.805 338.059C531.457 338.794 532.841 341.225 532.841 341.225Z" fill="#2C3A64"/>
<path d="M492.522 341.99H516.333C516.562 341.945 516.735 341.895 516.839 341.844C518.428 341.05 517.931 334.962 517.74 333.081C517.705 332.733 517.678 332.528 517.678 332.528C517.678 332.528 509.305 325.833 508.153 330.959C508.117 331.12 508.076 331.278 508.031 331.43V331.433C506.579 336.229 500.08 338.41 496.328 339.017C493.457 339.484 492.713 341.157 492.522 341.99Z" fill="#2C3A64"/>
<path d="M497.322 204.683C497.322 204.683 498.592 220.549 500.089 239.616C502.121 265.521 504.564 297.342 504.805 303.37C505.222 313.838 506.9 330.582 506.9 330.582C506.9 330.582 510.875 334.56 518.829 332.882C518.829 332.882 525.92 308.979 527.943 283.69C527.976 283.276 528.006 282.857 528.038 282.44C529.922 256.696 532.85 202.484 532.85 202.484L497.322 204.683Z" fill="#2B478B"/>
<path d="M497.322 204.683C497.322 204.683 498.592 220.549 500.089 239.616L527.943 283.69C527.976 283.276 528.006 282.857 528.038 282.44C529.922 256.696 532.85 202.484 532.85 202.484L497.322 204.683Z" fill="#233862"/>
<path d="M505.243 201.3C505.243 201.3 518.115 254.375 527.94 283.693C537.765 313.011 538.182 327.204 538.182 327.204C538.182 327.204 549.32 325.029 550.525 322.86C550.525 322.86 554.339 272.648 546.767 258.296C542.488 250.188 543.211 231.397 543.211 222.837C543.211 206.977 538.259 191.227 538.259 191.227L505.243 201.3Z" fill="#2B478B"/>
<path d="M555.397 196.128L555.638 199.824C555.638 199.824 553.201 206.388 560.029 209.756C560.029 209.756 562.951 210.935 563.07 208.661C563.189 206.385 562.815 207.242 563.053 204.037C563.291 200.833 562.029 197.806 559.91 196.786L558.173 194.78L555.397 196.128Z" fill="#FFB27D"/>
<path d="M558.062 198.821C555.524 199.636 555.12 199.452 555.12 199.452C555.12 199.452 542.771 176.972 541.521 174.916C540.272 172.856 515.307 149.707 515.307 149.707L521.722 125.783C521.722 125.783 550.118 162.552 553.182 167.828C558.25 176.546 561.219 196.795 561.219 196.795C561.219 196.795 560.056 198.181 558.062 198.821Z" fill="#1E3D70"/>
<path d="M492.484 159.098C492.573 164.01 492.859 169.533 493.243 175.142C493.267 175.475 493.29 175.808 493.314 176.139C493.561 179.614 493.829 183.095 494.132 186.493C494.254 187.856 494.385 189.201 494.522 190.525L494.543 190.704C494.555 191.198 494.614 191.736 494.668 192.224C495.921 204.948 497.233 214.996 497.474 215.151C497.766 215.344 498.093 215.443 498.45 215.401C501.786 214.981 511.742 215.74 519.889 213.967C526.765 212.515 532.687 209.765 538.962 206.058C539.795 205.567 541.694 204.26 541.539 203.287C541.387 202.216 541.108 200.669 540.75 198.723C539.516 191.957 537.379 180.316 536.653 166.691C536.51 164.153 536.305 161.648 536.037 159.184C535.338 152.766 534.216 146.669 532.713 141.253C529.919 131.193 525.813 123.486 520.662 120.472C519.99 120.094 516.369 122.4 513.042 124.533C509.971 126.503 506.737 127.048 503.592 126.771L500.824 129.833C497.471 133.731 493.903 138.917 492.927 146.291C492.853 146.835 492.79 147.415 492.74 148.028C492.472 151.037 492.407 154.839 492.484 159.098Z" fill="#2A4E96"/>
<path d="M492.484 159.097C492.573 164.01 492.859 169.533 493.243 175.142C493.266 175.475 493.29 175.808 493.314 176.138C512.373 164.209 515.306 142.381 515.306 142.381C505.93 142.791 498.483 144.949 492.743 148.028C492.472 151.037 492.407 154.839 492.484 159.097Z" fill="#1E3D70"/>
<path d="M444.331 168.494C444.134 165.668 445.598 165.197 445.598 165.197C445.598 165.197 474.333 159.99 476.776 159.222C479.219 158.455 500.104 136.727 500.104 136.727C500.104 136.727 508.112 127.699 514.667 129.693C520.362 131.425 522.591 135.87 523.346 140.102C524.251 145.145 521.924 150.221 517.556 152.902C507.752 158.916 488.119 170.768 483.495 172.122C473.205 175.139 445.557 172.363 445.557 172.363C445.557 172.363 444.485 170.714 444.331 168.494Z" fill="#2A4E96"/>
<path d="M459.521 200.226C459.104 201.562 457.682 202.416 456.194 201.972C442.786 197.789 428.584 195.024 414.572 193.412C399.194 191.644 383.498 191.302 376.107 191.817C374.643 191.909 373.384 190.793 373.292 189.326C373.203 187.862 374.316 186.604 375.78 186.514C387.268 185.83 403.426 186.734 415.625 188.169C429.613 189.817 444.092 192.632 457.774 196.899C459.176 197.336 459.958 198.824 459.521 200.226Z" fill="#2B478B"/>
<path d="M723.339 439.466C723.104 438.963 722.812 438.505 722.473 438.091L722.47 438.088C722.217 437.779 721.938 437.496 721.628 437.234L720.358 435.946L720.024 436.193C713.52 433.009 700.082 436.383 686.493 445.256C670.068 455.98 659.522 470.748 662.563 478.595L662.099 478.937L663.926 480.758C664.012 480.85 664.105 480.939 664.197 481.026L664.248 481.076L664.262 481.088C664.724 481.511 665.253 481.877 665.842 482.186L665.851 482.192C672.273 485.557 685.853 482.207 699.594 473.236C716.326 462.312 726.957 447.194 723.339 439.466Z" fill="#FFA412"/>
<path d="M684.535 443.302C701.27 432.378 717.766 429.787 721.384 437.511C725.003 445.236 714.371 460.357 697.64 471.284C680.905 482.207 664.409 484.802 660.79 477.074C657.169 469.347 667.801 454.225 684.535 443.302Z" fill="#FFB93E"/>
<path d="M672.52 478.229C671.163 478.229 669.925 478.077 668.836 477.761C666.75 477.16 665.301 476.006 664.534 474.328C663.025 471.037 664.424 466.154 668.47 460.575C672.425 455.123 678.459 449.595 685.464 445.007C696.22 437.963 707.161 434.559 713.336 436.339C715.422 436.94 716.871 438.094 717.638 439.773C719.147 443.064 717.748 447.946 713.702 453.529C709.747 458.98 703.713 464.508 696.708 469.097C687.85 474.899 678.864 478.229 672.52 478.229ZM709.691 437.106C703.624 437.106 694.712 440.418 686.133 446.036C679.251 450.544 673.329 455.963 669.461 461.298C665.742 466.428 664.352 470.992 665.647 473.819C666.259 475.155 667.447 476.086 669.175 476.583C670.143 476.863 671.252 476.997 672.478 476.997C678.546 476.997 687.457 473.685 696.036 468.067C702.918 463.559 708.84 458.141 712.708 452.805C716.427 447.676 717.817 443.111 716.523 440.284C715.91 438.948 714.722 438.017 712.993 437.52C712.029 437.243 710.917 437.106 709.691 437.106Z" fill="#FFA412"/>
<path d="M684.345 461.274C684.862 461.048 685.321 460.798 685.722 460.527C686.124 460.256 686.496 459.941 686.838 459.578C687.18 459.215 687.502 458.801 687.805 458.331C688.109 457.861 688.415 457.319 688.722 456.7C689.26 455.632 689.814 454.635 690.382 453.707C690.947 452.779 691.581 451.922 692.283 451.13C692.986 450.339 693.783 449.613 694.685 448.949C695.586 448.286 696.637 447.69 697.842 447.161C698.886 446.703 699.829 446.408 700.666 446.277C701.502 446.146 702.219 446.173 702.814 446.351C703.409 446.53 703.876 446.854 704.212 447.322C704.549 447.789 704.736 448.396 704.769 449.146L708.717 447.411L708.512 449.535L704.51 451.294C704.29 452.121 703.921 452.942 703.406 453.764C702.891 454.585 702.249 455.37 701.481 456.123C700.713 456.876 699.823 457.587 698.809 458.257C697.797 458.926 696.675 459.53 695.446 460.072L695.818 456.233C697.294 455.585 698.419 454.882 699.193 454.121C699.966 453.362 700.389 452.612 700.46 451.877C700.499 451.478 700.448 451.172 700.312 450.958C700.175 450.743 699.969 450.607 699.699 450.547C699.428 450.488 699.1 450.499 698.714 450.586C698.327 450.672 697.907 450.812 697.452 451.011C696.997 451.211 696.58 451.437 696.202 451.687C695.824 451.937 695.467 452.24 695.134 452.594C694.801 452.948 694.476 453.365 694.164 453.847C693.852 454.329 693.524 454.897 693.176 455.558C692.614 456.626 692.045 457.626 691.474 458.551C690.903 459.477 690.263 460.337 689.555 461.131C688.847 461.926 688.043 462.655 687.145 463.315C686.243 463.979 685.199 464.571 684.005 465.095C682.922 465.571 681.964 465.871 681.128 465.996C680.292 466.121 679.581 466.091 679.001 465.907C678.417 465.722 677.968 465.389 677.65 464.904C677.331 464.419 677.156 463.803 677.123 463.056L673.451 464.669L673.656 462.556L677.31 460.953C677.492 460.17 677.801 459.352 678.236 458.504C678.67 457.656 679.262 456.814 680.009 455.974C680.756 455.138 681.673 454.329 682.762 453.543C683.851 452.761 685.133 452.044 686.609 451.395L686.237 455.234C685.365 455.617 684.627 456.019 684.026 456.439C683.425 456.858 682.937 457.284 682.559 457.712C682.181 458.141 681.905 458.56 681.729 458.974C681.554 459.384 681.449 459.774 681.414 460.137C681.375 460.554 681.417 460.884 681.548 461.128C681.676 461.372 681.872 461.539 682.134 461.628C682.396 461.717 682.717 461.729 683.092 461.664C683.467 461.598 683.889 461.473 684.345 461.274Z" fill="#FFA412"/>
<path d="M394.198 56.432C394.347 56.1136 394.532 55.822 394.749 55.5601L394.752 55.5571C394.913 55.3608 395.091 55.1822 395.287 55.0156L396.094 54.1973L396.305 54.355C400.432 52.3346 408.96 54.477 417.583 60.1068C428.007 66.9119 434.699 76.2819 432.768 81.26L433.062 81.4772L431.902 82.6317C431.845 82.6912 431.789 82.7478 431.729 82.8013L431.696 82.8341L431.687 82.84C431.393 83.1078 431.06 83.3399 430.685 83.5363L430.679 83.5393C426.602 85.6757 417.988 83.5482 409.27 77.856C398.647 70.9289 391.901 61.3357 394.198 56.432Z" fill="#FFA412"/>
<path d="M418.818 58.866C408.201 51.9329 397.73 50.2904 395.436 55.1911C393.139 60.0949 399.887 69.688 410.504 76.6211C421.121 83.5541 431.592 85.1966 433.886 80.2959C436.183 75.3922 429.438 65.796 418.818 58.866Z" fill="#FFB93E"/>
<path d="M411.094 75.2315C406.648 72.3214 402.819 68.8133 400.31 65.3527C397.742 61.8118 396.855 58.7112 397.814 56.6254C398.302 55.5601 399.221 54.8281 400.545 54.4473C404.464 53.3195 411.406 55.4768 418.232 59.9461C422.677 62.8562 426.507 66.3644 429.015 69.8249C431.583 73.3659 432.47 76.4664 431.512 78.5522C431.024 79.6175 430.104 80.3495 428.78 80.7303C428.09 80.9297 427.304 81.0249 426.444 81.0249C422.418 81.0279 416.714 78.9153 411.094 75.2315ZM400.759 55.1971C399.664 55.5125 398.909 56.1017 398.522 56.9527C397.698 58.747 398.581 61.6422 400.941 64.8974C403.396 68.2806 407.154 71.7204 411.519 74.5799C416.961 78.1446 422.618 80.2453 426.468 80.2453C427.245 80.2453 427.95 80.159 428.563 79.9835C429.658 79.6681 430.411 79.0759 430.801 78.2279C431.625 76.4336 430.741 73.5384 428.381 70.2832C425.927 66.9 422.169 63.4602 417.803 60.6007C412.361 57.036 406.705 54.9353 402.854 54.9353C402.078 54.9353 401.372 55.0216 400.759 55.1971Z" fill="#FFA412"/>
<path d="M419.732 70.5212C419.97 70.5629 420.175 70.5539 420.342 70.4974C420.508 70.4409 420.633 70.3367 420.714 70.182C420.797 70.0273 420.824 69.816 420.8 69.5542C420.776 69.325 420.711 69.0781 420.601 68.8162C420.49 68.5544 420.315 68.2895 420.074 68.0158C419.836 67.745 419.523 67.4742 419.142 67.2064C418.762 66.9386 418.294 66.6857 417.741 66.4417L417.506 64.0048C418.443 64.4154 419.256 64.8706 419.946 65.3676C420.636 65.8645 421.219 66.3792 421.693 66.9089C422.166 67.4385 422.541 67.9741 422.817 68.5127C423.094 69.0513 423.29 69.569 423.403 70.066L425.721 71.0836L425.852 72.4226L423.522 71.399C423.502 71.8751 423.389 72.2649 423.186 72.5714C422.984 72.8779 422.698 73.0891 422.329 73.2081C421.96 73.3242 421.511 73.345 420.978 73.2647C420.449 73.1843 419.839 72.9939 419.151 72.6934C418.396 72.3601 417.729 71.9852 417.158 71.5627C416.587 71.1431 416.078 70.6789 415.628 70.1761C415.179 69.6732 414.774 69.1257 414.411 68.5395C414.048 67.9533 413.688 67.3195 413.331 66.6411C413.111 66.2215 412.903 65.8585 412.706 65.555C412.51 65.2515 412.305 64.9867 412.09 64.7605C411.879 64.5344 411.653 64.344 411.412 64.1833C411.174 64.0256 410.909 63.8828 410.62 63.7548C410.332 63.6269 410.064 63.5376 409.82 63.484C409.576 63.4305 409.368 63.4215 409.195 63.4602C409.023 63.4989 408.895 63.5852 408.805 63.7221C408.719 63.859 408.686 64.0524 408.71 64.3053C408.755 64.7724 409.023 65.2456 409.514 65.7276C410.005 66.2096 410.719 66.656 411.656 67.0666L411.891 69.5036C411.111 69.1614 410.4 68.7775 409.758 68.352C409.115 67.9265 408.55 67.4772 408.062 66.9982C407.574 66.5191 407.169 66.0222 406.842 65.5015C406.514 64.9807 406.282 64.46 406.139 63.9333L403.598 62.8175L403.467 61.4696L405.973 62.5705C405.994 62.0944 406.113 61.7106 406.327 61.413C406.541 61.1185 406.836 60.9132 407.213 60.7971C407.591 60.684 408.047 60.6662 408.576 60.7495C409.109 60.8328 409.704 61.0203 410.368 61.3119C411.132 61.6481 411.802 62.026 412.37 62.4456C412.941 62.8651 413.45 63.3263 413.894 63.8292C414.337 64.3321 414.742 64.8766 415.099 65.4657C415.459 66.0549 415.81 66.6857 416.152 67.3642C416.348 67.7569 416.542 68.1021 416.735 68.3996C416.929 68.6972 417.134 68.962 417.351 69.1911C417.568 69.4203 417.803 69.6226 418.059 69.7922C418.315 69.9648 418.607 70.1225 418.934 70.2653C419.229 70.3962 419.494 70.4796 419.732 70.5212Z" fill="#FFA412"/>
</svg>
