<svg width="33" height="33" viewBox="0 0 33 33" fill="none" xmlns="http://www.w3.org/2000/svg">
<path d="M29.7 16.5001V12.1C29.7 10.2775 28.2225 8.80005 26.4 8.80005H18.3477C17.9333 8.80005 17.5995 9.1392 17.6 9.55363C17.6007 10.058 17.681 10.5438 17.8278 11.0001H2.24353C1.0108 11.0001 -0.0223832 12.0089 0.000368751 13.2414C0.0224117 14.4368 0.999392 15.4001 2.19996 15.4001H4.4V28.6001H24.2H26.4C28.2227 28.6001 29.7 27.1228 29.7 25.3001H32.0332C32.5671 25.3001 33 24.8672 33 24.3333V17.4669C33 16.9329 32.5671 16.5001 32.0332 16.5001H29.7Z" fill="#FFDCC8"/>
<path d="M21.2764 0H7.32387C5.7117 0 4.40015 1.31156 4.40015 2.92366V30.0763C4.40015 31.6884 5.71177 32.9999 7.32387 32.9999H21.2764C22.8885 32.9999 24.2001 31.6884 24.2001 30.0763V2.92366C24.2001 1.31156 22.8885 0 21.2764 0V0Z" fill="#FFF5F5"/>
<path d="M24.2001 30.0763V2.92366C24.2001 1.31156 22.8884 0 21.2763 0H14.3V33H21.2763C22.8884 33 24.2001 31.6884 24.2001 30.0763Z" fill="#E3E7EA"/>
<path d="M21.1622 1.93359H20.0579V3.03787C20.0579 4.71565 18.6978 6.07574 17.0201 6.07574H11.5802C9.90245 6.07574 8.54236 4.71565 8.54236 3.03787V1.93359H7.43808C6.82919 1.93359 6.33374 2.42898 6.33374 3.03787V29.9621C6.33374 30.571 6.82919 31.0663 7.43808 31.0663H21.1622C21.7711 31.0663 22.2666 30.571 22.2666 29.9621V3.03787C22.2666 2.42898 21.7711 1.93359 21.1622 1.93359Z" fill="#5FF9FE"/>
<path d="M22.2665 29.9621V3.03787C22.2665 2.42898 21.771 1.93359 21.1621 1.93359H20.0578V3.03787C20.0578 4.71565 18.6977 6.07574 17.02 6.07574H14.3V31.0664H21.1621C21.771 31.0664 22.2665 30.571 22.2665 29.9621Z" fill="#00DDE7"/>
<path d="M4.40017 28.5999C5.61519 28.5999 6.60015 27.6149 6.60015 26.3999C6.60015 25.1849 5.61519 24.2 4.40017 24.2C3.18516 24.2 2.2002 25.1849 2.2002 26.3999C2.2002 27.6149 3.18516 28.5999 4.40017 28.5999Z" fill="#FFC5BB"/>
<path d="M7.14999 19.8001C8.36441 19.8001 9.35003 18.8145 9.35003 17.6001C9.35003 16.3858 8.36441 15.4001 7.14999 15.4001H2.75003C1.5356 15.4001 0.550049 16.3858 0.550049 17.6001C0.550049 18.8145 1.5356 19.8001 2.75003 19.8001H3.85005C2.63562 19.8001 1.65007 20.7857 1.65007 22.0001C1.65007 23.2144 2.63569 24.2001 3.85005 24.2001H7.15005C8.36448 24.2001 9.35009 23.2144 9.35009 22.0001C9.35009 20.7857 8.36441 19.8001 7.14999 19.8001Z" fill="#FFC5BB"/>
<path d="M16.371 28.8579H12.2288C11.6948 28.8579 11.262 28.425 11.262 27.8911C11.262 27.3572 11.6948 26.9243 12.2288 26.9243H16.371C16.9049 26.9243 17.3378 27.3572 17.3378 27.8911C17.3378 28.425 16.9049 28.8579 16.371 28.8579Z" fill="#00DDE7"/>
<path d="M17.3379 27.8911C17.3379 27.3572 16.9051 26.9243 16.3711 26.9243H14.3V28.8579H16.3711C16.9051 28.8579 17.3379 28.4251 17.3379 27.8911Z" fill="#00BDCD"/>
<path d="M29.7001 15.0821V12.1C29.7001 10.2775 28.2226 8.80005 26.4001 8.80005H18.3478C17.935 8.80005 17.6001 9.13495 17.6001 9.54783C17.6001 12.1682 19.732 14.3001 22.3524 14.3001H24.2V28.6001H26.4001C28.2228 28.6001 29.7001 27.1228 29.7001 25.3001H32.0333C32.5672 25.3001 33.0001 24.8672 33.0001 24.3333V16.0489C33.0001 15.515 32.5672 15.0821 32.0333 15.0821H29.7001Z" fill="#FFC5BB"/>
<path d="M7.14988 19.8H3.84988C2.63546 19.8 1.6499 20.7857 1.6499 22C1.6499 23.2144 2.63552 24.2 3.84988 24.2H7.14988C8.36431 24.2 9.34993 23.2144 9.34993 22C9.34993 20.7857 8.36431 19.8 7.14988 19.8Z" fill="#FFADAD"/>
<path d="M24.2 19.8V28.6H26.3999C28.2227 28.6 29.6999 27.1227 29.6999 25.3H32.0331C32.5671 25.3 32.9999 24.8672 32.9999 24.3332V19.8H24.2Z" fill="#FFADAD"/>
</svg>
