<svg width="29" height="29" viewBox="0 0 29 29" fill="none" xmlns="http://www.w3.org/2000/svg">
<path d="M1.8125 19.9375H27.1875V21.75H1.8125V19.9375Z" fill="#5E5E5E"/>
<path d="M1.8125 23.5625H27.1875V25.375H1.8125V23.5625Z" fill="#5E5E5E"/>
<path d="M21.75 9.0625C21.3915 9.0625 21.0411 9.1688 20.743 9.36796C20.445 9.56712 20.2127 9.8502 20.0755 10.1814C19.9383 10.5126 19.9024 10.877 19.9723 11.2286C20.0423 11.5802 20.2149 11.9031 20.4684 12.1566C20.7219 12.4101 21.0448 12.5827 21.3964 12.6527C21.748 12.7226 22.1124 12.6867 22.4436 12.5495C22.7748 12.4123 23.0579 12.18 23.257 11.882C23.4562 11.5839 23.5625 11.2335 23.5625 10.875C23.5625 10.3943 23.3715 9.93328 23.0316 9.59337C22.6917 9.25346 22.2307 9.0625 21.75 9.0625Z" fill="#5E5E5E"/>
<path d="M14.5 14.5C13.783 14.5 13.0822 14.2874 12.4861 13.8891C11.8899 13.4908 11.4253 12.9246 11.1509 12.2622C10.8766 11.5998 10.8048 10.871 10.9447 10.1678C11.0845 9.46462 11.4298 8.81871 11.9367 8.31174C12.4437 7.80477 13.0896 7.45953 13.7928 7.31965C14.496 7.17978 15.2248 7.25157 15.8872 7.52594C16.5496 7.80031 17.1158 8.26493 17.5141 8.86106C17.9124 9.45719 18.125 10.158 18.125 10.875C18.1238 11.836 17.7415 12.7574 17.0619 13.4369C16.3824 14.1165 15.461 14.4988 14.5 14.5ZM14.5 9.0625C14.1415 9.0625 13.7911 9.1688 13.493 9.36796C13.195 9.56712 12.9627 9.8502 12.8255 10.1814C12.6883 10.5126 12.6524 10.877 12.7223 11.2286C12.7923 11.5802 12.9649 11.9032 13.2184 12.1566C13.4719 12.4101 13.7948 12.5827 14.1464 12.6527C14.498 12.7226 14.8624 12.6867 15.1936 12.5495C15.5248 12.4124 15.8079 12.18 16.007 11.882C16.2062 11.5839 16.3125 11.2335 16.3125 10.875C16.312 10.3944 16.1209 9.93371 15.7811 9.5939C15.4413 9.2541 14.9806 9.06298 14.5 9.0625Z" fill="#5E5E5E"/>
<path d="M7.25 9.0625C6.89152 9.0625 6.54109 9.1688 6.24303 9.36796C5.94497 9.56712 5.71265 9.8502 5.57547 10.1814C5.43829 10.5126 5.40239 10.877 5.47233 11.2286C5.54226 11.5802 5.71489 11.9031 5.96837 12.1566C6.22185 12.4101 6.54481 12.5827 6.8964 12.6527C7.24799 12.7226 7.61242 12.6867 7.94361 12.5495C8.27481 12.4123 8.55788 12.18 8.75704 11.882C8.9562 11.5839 9.0625 11.2335 9.0625 10.875C9.0625 10.3943 8.87154 9.93328 8.53163 9.59337C8.19172 9.25346 7.73071 9.0625 7.25 9.0625Z" fill="#5E5E5E"/>
<path d="M25.375 18.125H3.625C3.14466 18.1238 2.68434 17.9325 2.34469 17.5928C2.00504 17.2532 1.8137 16.7928 1.8125 16.3125V5.4375C1.8137 4.95716 2.00504 4.49684 2.34469 4.15719C2.68434 3.81754 3.14466 3.6262 3.625 3.625H25.375C25.8553 3.6262 26.3157 3.81754 26.6553 4.15719C26.995 4.49684 27.1863 4.95716 27.1875 5.4375V16.3125C27.1868 16.793 26.9956 17.2536 26.6558 17.5933C26.3161 17.9331 25.8555 18.1243 25.375 18.125ZM25.375 5.4375H3.625V16.3125H25.375V5.4375Z" fill="#5E5E5E"/>
</svg>
