<svg width="241" height="232" viewBox="0 0 241 232" fill="none" xmlns="http://www.w3.org/2000/svg">
<path d="M241 0H37.0249V232H241V0Z" fill="url(#paint0_linear)"/>
<path d="M237.574 4.46924H40.1104V227.878H237.574V4.46924Z" fill="white"/>
<path opacity="0.2" d="M132.326 41.2456H20.2256V112.736H132.326V41.2456Z" fill="#6C63FF"/>
<path d="M128.556 31.2759H0V104.484H128.556V31.2759Z" fill="url(#paint1_linear)"/>
<path d="M126.843 41.9319H1.37231V102.769H126.843V41.9319Z" fill="white"/>
<path d="M53.4775 47.0876H9.94092V93.1441H53.4775V47.0876Z" fill="url(#paint2_linear)"/>
<path d="M52.4521 48.1187H11.3132V92.1129H52.4521V48.1187Z" fill="#F5B822"/>
<path d="M43.3709 65.4912C43.0639 62.878 42.6034 60.2586 41.6057 57.8146C40.6079 55.3707 39.0053 53.1237 36.7734 51.7355C35.9779 51.2009 35.0575 50.8827 34.1024 50.8121C32.3556 50.7506 30.7407 51.9325 29.8412 53.4346C29.5366 53.9549 29.2708 54.4971 29.046 55.0567C28.2137 55.1988 27.4532 55.6171 26.8864 56.2445C26.3197 56.8719 25.9796 57.672 25.9207 58.5164C24.0758 59.3043 22.5232 60.6515 21.4807 62.3689C20.4381 64.0864 19.958 66.088 20.1077 68.0929C20.2574 70.0978 21.0293 72.0054 22.3151 73.5482C23.601 75.091 25.3363 76.1914 27.2777 76.6952V78.3358C25.2206 78.875 23.3991 80.0812 22.0969 81.7664C20.7948 83.4516 20.0851 85.5213 20.0784 87.653V92.1223H39.2755V87.6468C39.2691 85.5159 38.5603 83.4469 37.2593 81.7618C35.9584 80.0767 34.1383 78.87 32.0823 78.3297V76.6891C34.1428 76.155 35.9679 74.9497 37.271 73.2627C38.5741 71.5757 39.2813 69.5025 39.2816 67.3688C39.2816 67.3473 39.2816 67.3226 39.2816 67.3011L40.3623 69.7112C41.3908 72.0074 42.4438 74.4698 42.0416 76.9569C44.0126 73.571 43.8499 69.3818 43.3709 65.4912Z" fill="white"/>
<path d="M126.843 32.6516H1.37231V41.9319H126.843V32.6516Z" fill="#313241"/>
<path d="M116.899 61.0063H69.2483V64.0998H116.899V61.0063Z" fill="#E0E0E0"/>
<path d="M116.899 74.0696H69.2483V77.163H116.899V74.0696Z" fill="#F5F5F5"/>
<path opacity="0.2" d="M97.017 67.5381H68.9075V70.6315H97.017V67.5381Z" fill="#6C63FF"/>
<path opacity="0.2" d="M88.1046 80.5981H68.9075V83.6916H88.1046V80.5981Z" fill="#69F0AE"/>
<path d="M110.728 80.5981H91.5308V83.6916H110.728V80.5981Z" fill="#6C8D43"/>
<path d="M222.488 129.234H56.9067V135.076H222.488V129.234Z" fill="#E0E0E0"/>
<path d="M112.1 141.949H56.9067V147.791H112.1V141.949Z" fill="#E0E0E0"/>
<path d="M222.488 141.949H167.294V147.791H222.488V141.949Z" fill="#6C8D43"/>
<path d="M222.488 154.668H56.9067V160.51H222.488V154.668Z" fill="#E0E0E0"/>
<path d="M222.488 167.386H56.9067V173.228H222.488V167.386Z" fill="#E0E0E0"/>
<path d="M73.7062 179.415H56.2222V186.633H73.7062V179.415Z" fill="url(#paint3_linear)"/>
<path d="M147.412 180.101H130.957V185.943H147.412V180.101Z" fill="#6C8D43"/>
<path d="M222.488 180.101H206.032V185.943H222.488V180.101Z" fill="#6C8D43"/>
<path d="M224.544 199.007H126.843V221.005H224.544V199.007Z" fill="url(#paint4_linear)"/>
<path d="M222.487 201.411H128.556V218.254H222.487V201.411Z" fill="#F5B822"/>
<path d="M224.544 28.1824H162.495V75.6147H224.544V28.1824Z" fill="url(#paint5_linear)"/>
<path d="M222.491 31.2759H164.896V72.5214H222.491V31.2759Z" fill="#5A5B67"/>
<path d="M195 56H192C192 53 193.6 52 194.7 51.4C195.1 51.2 195.4 51 195.6 50.8C196.1 50.3 195.9 49.6 195.8 49.4C195.5 48.7 194.8 48 193.5 48C191.4 48 191 49.9 191 50.3L188 49.9C188.2 48.2 189.7 45 193.5 45C195.8 45 197.8 46.3 198.6 48.2C199.3 49.9 199 51.7 197.8 52.9C197.3 53.4 196.7 53.7 196.2 54C195.3 54.5 195 55 195 56Z" fill="white"/>
<path d="M195.5 59C195.5 60.105 194.605 61 193.5 61C192.395 61 191.5 60.105 191.5 59C191.5 57.895 192.395 57 193.5 57C194.605 57 195.5 57.895 195.5 59Z" fill="white"/>
<defs>
<linearGradient id="paint0_linear" x1="139.012" y1="232" x2="139.012" y2="0" gradientUnits="userSpaceOnUse">
<stop stop-color="#808080" stop-opacity="0.25"/>
<stop offset="0.54" stop-color="#808080" stop-opacity="0.12"/>
<stop offset="1" stop-color="#808080" stop-opacity="0.1"/>
</linearGradient>
<linearGradient id="paint1_linear" x1="26915.7" y1="24882.4" x2="26915.7" y2="7469.91" gradientUnits="userSpaceOnUse">
<stop stop-color="#808080" stop-opacity="0.25"/>
<stop offset="0.54" stop-color="#808080" stop-opacity="0.12"/>
<stop offset="1" stop-color="#808080" stop-opacity="0.1"/>
</linearGradient>
<linearGradient id="paint2_linear" x1="1419.66" y1="10538.8" x2="7594.01" y2="10538.8" gradientUnits="userSpaceOnUse">
<stop stop-color="#808080" stop-opacity="0.25"/>
<stop offset="0.54" stop-color="#808080" stop-opacity="0.12"/>
<stop offset="1" stop-color="#808080" stop-opacity="0.1"/>
</linearGradient>
<linearGradient id="paint3_linear" x1="3755.84" y1="4555.96" x2="3755.84" y2="4386.7" gradientUnits="userSpaceOnUse">
<stop stop-color="#808080" stop-opacity="0.25"/>
<stop offset="0.54" stop-color="#808080" stop-opacity="0.12"/>
<stop offset="1" stop-color="#808080" stop-opacity="0.1"/>
</linearGradient>
<linearGradient id="paint4_linear" x1="56039.6" y1="15994" x2="56039.6" y2="14422" gradientUnits="userSpaceOnUse">
<stop stop-color="#808080" stop-opacity="0.25"/>
<stop offset="0.54" stop-color="#808080" stop-opacity="0.12"/>
<stop offset="1" stop-color="#808080" stop-opacity="0.1"/>
</linearGradient>
<linearGradient id="paint5_linear" x1="39274.5" y1="11680.4" x2="39274.5" y2="4371.09" gradientUnits="userSpaceOnUse">
<stop stop-color="#808080" stop-opacity="0.25"/>
<stop offset="0.54" stop-color="#808080" stop-opacity="0.12"/>
<stop offset="1" stop-color="#808080" stop-opacity="0.1"/>
</linearGradient>
</defs>
</svg>
