<svg width="465" height="291" viewBox="0 0 465 291" fill="none" xmlns="http://www.w3.org/2000/svg">
<path d="M0 291H465V0.375H0V291Z" fill="white"/>
<path d="M61.4113 269.225C61.4113 269.225 17.582 222.165 53.9991 171.217C86.3107 126.014 120.155 144.412 151.71 154.645C174.596 162.066 197.334 148.411 226.222 102.413C265.616 39.6864 402.171 77.7307 377.273 174.239C365.224 220.942 413.943 222.639 389.119 269.324L61.4113 269.225Z" fill="#F5B822" fill-opacity="0.1"/>
<path d="M275.43 268.604C275.465 268.623 275.505 268.638 275.552 268.656H299.902C299.674 267.789 298.877 266.211 296.092 265.758C292.314 265.144 285.764 262.949 284.304 258.114C284.259 257.96 284.217 257.8 284.179 257.639C283.019 252.474 274.585 259.221 274.585 259.221C274.585 259.221 274.559 259.426 274.524 259.778C274.328 261.673 273.828 267.804 275.43 268.604Z" fill="#2C3A64"/>
<path d="M307.633 181.15C307.633 181.15 291.797 237.403 287.028 259.156C287.028 259.156 275.274 261.515 273.446 257.821C273.446 257.821 277.233 196.563 284.2 188.782C292.867 179.102 307.633 181.15 307.633 181.15Z" fill="#2C3A64"/>
<path d="M308.943 124.133C308.943 124.133 308.527 121.618 309.176 119.521C309.824 117.426 312.535 111.899 311.678 109.978C310.819 108.057 307.714 102.89 305.799 102.906C303.883 102.921 307.813 108.435 307.272 110.159C306.733 111.882 306.554 112.021 305.889 111.869C305.223 111.718 304.21 108.419 303.873 109.189C303.536 109.96 303.732 115.063 304.366 116.337C304.998 117.612 303.7 124.797 303.7 124.797L308.943 124.133Z" fill="#FFB8B8"/>
<path d="M310.475 123.014C310.475 123.014 306.235 120.606 302.955 121.621C302.955 121.621 296.448 140.364 292.863 154.147C285.984 137.172 281.751 120.242 281.751 120.242C281.751 120.242 273.41 131.761 270.398 139.42C267.387 147.079 285.382 173.952 292.366 176.062C299.653 178.262 298.327 176.058 302.439 173.705C303.761 171.989 307.991 163.446 310.475 123.014Z" fill="#FFA412"/>
<path d="M329.657 269.482C329.692 269.5 329.733 269.516 329.779 269.533H354.129C353.901 268.667 353.105 267.088 350.319 266.636C346.541 266.021 339.993 263.827 338.531 258.992C338.486 258.838 338.444 258.678 338.407 258.517C337.247 253.353 328.813 260.1 328.813 260.1C328.813 260.1 328.787 260.304 328.752 260.656C328.556 262.549 328.056 268.682 329.657 269.482Z" fill="#2C3A64"/>
<path d="M312.359 179.783C312.359 179.783 309.988 180.84 307.06 182.998C306.727 181.302 306.248 180.201 306.248 180.201C285.35 174.759 229.415 175.202 229.415 175.202C229.415 175.202 217.389 178.214 220.92 195.72C224.171 211.829 277.877 204.369 295.224 199.536C295.63 199.424 296.022 199.305 296.403 199.181C295.024 209.446 304.688 224.088 313.15 237.563C320.125 248.67 326.062 259.915 326.062 259.915C329.564 262.087 341.326 260.831 341.326 260.831C333.892 239.837 312.359 179.783 312.359 179.783Z" fill="#35488B"/>
<path d="M266.243 114.555C266.243 114.555 272.243 133.76 281.254 138.056C281.254 138.056 282.105 132.229 280.648 127.797C281.838 126.886 282.892 126.041 283.811 125.28C286.867 122.737 288.412 121.108 288.412 121.108L287.072 111.744L286.164 105.39C284.698 107.069 283.185 108.443 281.677 109.572C273.897 115.373 266.243 114.555 266.243 114.555Z" fill="#FFB27D"/>
<path d="M281.677 109.572C281.677 109.572 278.655 117.885 283.812 125.28C286.867 122.737 288.412 121.108 288.412 121.108L287.072 111.744C283.847 109.939 281.677 109.572 281.677 109.572Z" fill="#ED975D"/>
<path d="M290.697 122.927C290.697 122.927 277.411 114.114 283.027 105.924C288.643 97.7357 290.711 91.0833 299.431 96.364C308.152 101.646 307.639 105.889 306.428 109.079C305.219 112.268 294.296 125.009 290.697 122.927Z" fill="#FFB8B8"/>
<path d="M283.572 88.7817C283.514 88.5579 283.266 88.2789 282.593 87.9025C282.593 87.9025 283.318 87.8226 284.066 88.1656C284.69 87.2603 286.048 85.781 287.91 86.1719C287.91 86.1719 286.784 86.2184 286.159 87.1992C289.055 86.1399 293.876 86.6964 304.805 93.1817C319.209 101.729 309.492 109.057 306.981 109.268C304.471 109.479 301.146 103.9 297.387 102.419C293.628 100.939 290.341 105.908 288.757 106.036C287.173 106.163 288.286 105.112 287 103.537C285.714 101.962 284.187 104.677 283.777 106.728C283.367 108.78 279.912 110.057 279.912 110.057C279.912 110.057 279.912 110.057 278.842 106.407C277.773 102.758 280.833 91.0166 282.995 89.2539C283.186 89.0985 283.377 88.9401 283.572 88.7817Z" fill="#2B478B"/>
<path d="M282.409 146.554C278.419 156.005 274.77 162.04 274.294 162.829C272.573 165.671 270.728 168.279 269.039 170.558C268.985 170.631 268.933 170.702 268.879 170.774C265.554 175.247 260.47 176.479 260.628 177.601C260.945 179.852 255.262 185.25 245.889 187.645C235.014 190.424 222.413 191.76 219.227 188.084C218.162 186.85 217.808 184.581 217.925 181.757C218.158 175.814 225.641 151.875 225.641 151.875C238.441 113.139 275.096 113.139 275.096 113.139C275.096 113.139 274.378 122.419 283.374 125.639C283.386 125.659 285.488 139.26 282.409 146.554Z" fill="#FFB93E"/>
<path d="M303.936 174.115C303.936 174.115 309.44 176.062 310.95 177.007C312.46 177.951 315.934 182.708 316.327 184.376C316.718 186.042 317.175 190.944 316.891 191.763C316.606 192.583 312.392 189.44 311.456 186.481C310.52 183.521 308.114 182.725 308.205 182.885C308.298 183.043 309.529 186.831 309.269 186.996C309.009 187.158 307.889 187.442 306.871 185.327C305.856 183.213 303.843 181.667 304.224 179.483C304.603 177.298 303.936 174.115 303.936 174.115Z" fill="#FFB8B8"/>
<path d="M260.81 177.913C261.128 180.164 255.262 185.25 245.889 187.645C238.072 172.092 252.936 136.488 252.936 136.488L269.039 170.558C265.642 175.145 260.65 176.774 260.81 177.913Z" fill="#FFA412"/>
<path d="M274.293 162.828C272.573 165.671 270.727 168.279 269.039 170.558C268.985 170.63 268.933 170.702 268.879 170.774C266.67 169.923 264.477 168.224 263.373 166.662C260.836 163.081 260.628 141.55 260.628 141.55C260.628 141.55 271.011 154.377 274.293 162.828Z" fill="#FFA412"/>
<path d="M306.049 174.599C306.049 174.599 280.933 167.569 268.042 164.492C269.177 149.283 272.9 103.298 249.478 121.707C249.478 121.707 247.709 170.986 259.057 180.969C259.057 180.969 295.49 181.741 302.427 181.315C302.427 181.315 304.466 180.26 304.972 179.557C306.592 177.307 306.049 174.599 306.049 174.599Z" fill="#FFB93E"/>
<path d="M160.595 248.383L161.521 248.3C161.166 241.554 156.061 237.779 156.061 237.779C152.488 234.611 151.326 231.133 151.326 231.133C151.326 231.133 157.358 224.095 151.698 219.625C151.698 219.625 147.564 217.121 144.192 217.325C144.192 217.325 148.969 225.335 147.424 226.132C145.878 226.929 142.745 216.822 142.745 216.822C142.745 216.822 133.336 215.91 130.31 217.366C130.31 217.366 138.353 223.947 136.659 224.339C134.965 224.732 126.277 218.271 126.277 218.271C126.277 218.271 117.521 219.76 117.988 225.102C118.455 230.444 121.472 232.094 122.798 231.952C124.124 231.81 131.882 228.848 132.05 229.935C132.219 231.022 127.55 234.572 124.28 234.739C124.28 234.739 130.454 241.547 134.556 239.582C138.659 237.618 139.01 234.502 141.567 233.334C144.125 232.166 146.308 232.169 145.252 233.36C144.196 234.552 139.568 235.71 138.105 238.296C136.642 240.884 135.33 242.63 139.575 241.99C143.82 241.351 150.72 238.246 151.023 234.688C151.036 234.533 151.048 234.386 151.061 234.244C151.067 234.526 151.023 234.688 151.023 234.688C151.908 234.847 153.748 236.476 155.076 237.753C155.281 237.978 155.583 238.278 156.016 238.679C156.178 238.841 156.313 238.981 156.415 239.084C159.11 242.037 160.595 248.383 160.595 248.383Z" fill="#82B378"/>
<path d="M172.416 222.282C172.416 222.282 162.82 216.908 167.298 209.616C167.298 209.616 170.88 205.138 174.718 203.987C174.718 203.987 172.672 214.862 174.718 215.118C176.765 215.373 176.126 202.836 176.126 202.836C176.126 202.836 186.232 197.974 190.2 198.357C190.2 198.357 183.931 208.977 185.977 208.721C188.024 208.465 195.06 197.718 195.06 197.718C195.06 197.718 205.424 195.798 207.086 201.939C208.75 208.08 206.063 211.151 204.529 211.536C202.993 211.919 193.142 211.792 193.398 213.07C193.654 214.35 200.306 216.396 204.016 215.246C204.016 215.246 199.922 225.352 194.549 224.841C189.175 224.329 187.513 221.003 184.186 220.747C180.86 220.491 178.429 221.387 180.092 222.282C181.755 223.178 187.385 222.575 190.072 224.859C192.758 227.144 194.932 228.55 189.944 229.575C184.954 230.598 175.998 229.958 174.206 226.121C172.416 222.282 172.416 222.282 172.416 222.282Z" fill="#A8D29F"/>
<path d="M202.354 203.859C202.354 203.859 175.487 212.559 172.416 222.282C172.416 222.282 172.544 226.632 169.857 231.621C169.857 231.621 165.713 237.913 168.076 245.573L169.142 245.286C169.142 245.286 168.209 237.688 169.969 233.286C170.04 233.125 170.145 232.891 170.276 232.605C170.594 231.981 170.808 231.524 170.944 231.191C171.902 229.225 173.285 226.659 174.206 226.121C174.206 226.121 168.193 217.677 202.354 203.859Z" fill="#82B378"/>
<path d="M157.15 214.871C157.15 214.871 169.799 207.788 163.896 198.176C163.896 198.176 159.174 192.273 154.114 190.755C154.114 190.755 156.812 205.09 154.114 205.427C151.416 205.764 152.26 189.238 152.26 189.238C152.26 189.238 138.936 182.829 133.708 183.335C133.708 183.335 141.972 197.332 139.274 196.994C136.575 196.657 127.3 182.491 127.3 182.491C127.3 182.491 113.64 179.962 111.447 188.056C109.255 196.152 112.796 200.199 114.82 200.706C116.844 201.211 129.83 201.043 129.492 202.728C129.155 204.415 120.385 207.114 115.495 205.595C115.495 205.595 120.891 218.919 127.974 218.245C135.058 217.569 137.25 213.185 141.635 212.848C146.02 212.511 149.224 213.691 147.031 214.871C144.839 216.052 137.419 215.259 133.877 218.27C130.335 221.28 127.468 223.135 134.046 224.485C140.623 225.833 152.428 224.99 154.79 219.931C157.15 214.871 157.15 214.871 157.15 214.871Z" fill="#A8D29F"/>
<path d="M160.524 227.183C156.981 220.605 157.15 214.871 157.15 214.871C153.103 202.054 117.688 190.586 117.688 190.586C162.716 208.8 154.79 219.931 154.79 219.931C156.004 220.638 157.823 224.014 159.086 226.603C159.264 227.045 159.549 227.654 159.973 228.482C160.145 228.857 160.282 229.162 160.376 229.377C162.695 235.178 161.466 245.195 161.466 245.195L162.871 245.573C165.985 235.476 160.524 227.183 160.524 227.183Z" fill="#82B378"/>
<path d="M132.801 242.69C132.801 256.374 143.894 267.465 157.577 267.465C160.434 267.465 163.178 266.983 165.731 266.092C175.408 262.721 182.353 253.515 182.353 242.69H132.801Z" fill="#F5B822"/>
<path d="M149.109 242.689C149.109 251.972 151.333 261.426 158.889 265.669C160.144 266.375 164.351 265.611 165.73 266.092C175.408 262.721 182.352 253.515 182.352 242.689H149.109Z" fill="#FFD263"/>
<path d="M157.577 267.465C158.584 267.591 153.515 267.465 154.559 267.465C168.241 267.465 179.333 256.372 179.333 242.689H173.178C173.178 255.331 169.808 265.949 157.577 267.465Z" fill="#F5B822"/>
<path d="M132.458 268.726H182.696C182.696 267.882 182.353 267.118 181.799 266.566C181.247 266.012 180.483 265.669 179.638 265.669H135.514C133.827 265.669 132.458 267.038 132.458 268.726Z" fill="#F5B822"/>
<path d="M155.996 268.726H182.696C182.696 267.882 182.353 267.118 181.799 266.566C181.247 266.012 180.483 265.669 179.638 265.669H159.052C157.365 265.669 155.996 267.038 155.996 268.726Z" fill="#FFD263"/>
<path d="M132.237 243.449H183.168V242.689H132.237V243.449Z" fill="#FFD263"/>
<path d="M284.596 204.854V214.542C284.596 216.542 282.96 218.178 280.96 218.178H223.687C221.687 218.178 220.051 216.542 220.051 214.542V204.854C220.051 202.853 221.687 201.217 223.687 201.217H280.96C282.96 201.217 284.596 202.853 284.596 204.854Z" fill="#FFD263"/>
<path d="M284.596 212.778V214.542C284.596 216.542 282.96 218.178 280.96 218.178H223.687C221.687 218.178 220.051 216.542 220.051 214.542V212.633H283.554C283.914 212.633 284.266 212.684 284.596 212.778Z" fill="#FFD263"/>
<path d="M233.838 218.178L231.257 227.958L231.254 227.961L220.506 268.66H219.375L225.587 234.893C225.593 234.86 225.602 234.827 225.609 234.79L228.681 218.091L233.838 218.178Z" fill="#E8C6A7"/>
<path d="M233.839 218.178L231.258 227.958L231.255 227.961C231.106 228.033 226.406 230.463 225.61 234.79L228.682 218.091L233.839 218.178Z" fill="#C69D7B"/>
<path d="M284.596 268.66H283.467L274.709 235.505V235.499L272.718 227.961L272.715 227.958L270.133 218.178L275.29 218.091L277.048 227.639L278.363 234.79C278.369 234.827 278.378 234.86 278.384 234.893L284.596 268.66Z" fill="#E8C6A7"/>
<path d="M267.139 230.984L267.121 230.973C267.096 230.93 267.104 230.94 267.139 230.984Z" fill="#E8C6A7"/>
<path d="M277.048 227.639C276.096 229.024 274.784 231.627 274.709 235.499L272.718 227.96L272.715 227.958L270.133 218.178L275.29 218.091L277.048 227.639Z" fill="#C69D7B"/>
<path d="M217.633 79.4339C216.003 87.1296 213.698 94.1628 210.721 100.459C210.586 100.748 210.448 101.035 210.307 101.321C210.237 101.466 210.167 101.61 210.094 101.754C209.916 102.116 209.734 102.475 209.55 102.831C209.452 103.022 209.353 103.213 209.252 103.403C209.073 103.746 208.89 104.086 208.705 104.423C208.519 104.765 208.33 105.103 208.139 105.439C207.81 106.02 207.475 106.594 207.13 107.161C207.065 107.27 206.999 107.379 206.931 107.486C206.752 107.78 206.572 108.071 206.386 108.36C206.318 108.472 206.247 108.584 206.174 108.694C205.995 108.974 205.814 109.253 205.629 109.53C205.532 109.679 205.431 109.826 205.331 109.974C205.152 110.242 204.971 110.506 204.786 110.769V110.772H204.785C204.686 110.914 204.586 111.057 204.484 111.199V111.201C204.475 111.215 204.465 111.227 204.453 111.241C204.276 111.496 204.095 111.747 203.909 111.997C203.84 112.094 203.769 112.192 203.696 112.288C203.516 112.532 203.335 112.774 203.151 113.014C203.054 113.143 202.955 113.271 202.854 113.399C202.675 113.633 202.493 113.864 202.307 114.095C202.118 114.334 201.926 114.572 201.732 114.806C201.553 115.025 201.371 115.243 201.187 115.46C201.053 115.62 200.918 115.778 200.78 115.935L200.748 115.973C200.723 116.002 200.699 116.031 200.672 116.06C200.494 116.268 200.312 116.473 200.128 116.677C199.732 117.124 199.328 117.562 198.916 117.994C198.737 118.184 198.555 118.373 198.371 118.561C197.946 119 197.512 119.431 197.072 119.853C196.891 120.028 196.71 120.201 196.525 120.373C196.208 120.672 195.886 120.967 195.562 121.258L195.552 121.266C195.367 121.432 195.18 121.598 194.992 121.761C194.812 121.919 194.63 122.076 194.447 122.228C193.462 123.068 192.448 123.872 191.406 124.639C191.226 124.774 191.044 124.907 190.861 125.037C190.115 125.574 189.355 126.092 188.582 126.591C188.2 126.839 187.814 127.083 187.424 127.322C186.581 127.839 185.723 128.336 184.846 128.81C184.175 129.174 183.495 129.526 182.806 129.865C181.761 130.378 180.696 130.863 179.609 131.316C179.429 131.393 179.248 131.469 179.064 131.543C178.748 131.672 178.429 131.799 178.108 131.922C177.645 132.102 177.178 132.277 176.708 132.447C175.666 132.823 174.603 133.172 173.524 133.496C173.142 133.612 172.756 133.723 172.37 133.83C170.882 134.249 169.36 134.618 167.804 134.937C166.614 135.183 165.404 135.401 164.173 135.587C161.345 136.021 158.411 136.303 155.371 136.428C154.876 136.45 154.376 136.466 153.875 136.478C153.144 136.497 152.405 136.505 151.661 136.505C150.768 136.505 149.868 136.495 148.966 136.475C141.378 136.306 133.529 135.423 125.948 133.807C125.376 133.685 124.805 133.56 124.235 133.429C117.506 131.889 111.022 129.764 105.154 127.041C105.004 126.973 104.856 126.903 104.71 126.833C103.233 126.137 101.796 125.402 100.405 124.628C84.9543 116.037 75.2053 102.693 79.4629 84.3062C86.0774 55.7392 126.004 25.1539 161.659 17.6528C213.775 6.6861 225.655 41.6047 217.633 79.4339Z" fill="#F5B822" fill-opacity="0.1"/>
<path d="M188.582 126.591C188.2 126.839 187.813 127.083 187.424 127.322C186.581 127.839 185.722 128.336 184.846 128.81C184.175 129.174 183.495 129.526 182.806 129.864C181.761 130.377 180.696 130.863 179.609 131.316C179.429 131.393 179.247 131.469 179.064 131.543C178.747 131.672 178.429 131.799 178.108 131.922H158.004C157.812 131.922 157.629 131.876 157.469 131.791C157.129 131.614 156.888 131.273 156.849 130.874L156.844 130.822V127.691C156.876 127.08 157.386 126.591 158.004 126.591H188.582Z" fill="#FFB93E"/>
<path d="M179.609 126.59V131.316C179.429 131.393 179.248 131.468 179.064 131.542V126.59H179.609Z" fill="#FFA412"/>
<path d="M175.012 131.922H174.467V126.591H175.012V131.922Z" fill="#FFA412"/>
<path d="M195.562 121.258L195.552 121.266C195.367 121.432 195.18 121.598 194.992 121.76C194.812 121.919 194.63 122.076 194.447 122.228C193.462 123.068 192.448 123.872 191.406 124.639C191.226 124.774 191.044 124.906 190.861 125.037C190.115 125.573 189.356 126.092 188.582 126.591H159.154C158.535 126.591 158.026 126.101 157.994 125.489C157.994 125.47 157.993 125.45 157.993 125.43V122.419C157.993 122.398 157.994 122.379 157.994 122.359C158.023 121.794 158.461 121.333 159.016 121.266C159.061 121.261 159.107 121.258 159.154 121.258H195.562Z" fill="#FFB93E"/>
<path d="M194.992 121.258V121.76C194.812 121.919 194.63 122.076 194.447 122.228V121.258H194.992Z" fill="#FFA412"/>
<path d="M191.406 121.258V124.639C191.226 124.774 191.044 124.906 190.861 125.037V121.258H191.406Z" fill="#FFA412"/>
<path d="M185.907 126.591H185.362V121.258H185.907V126.591Z" fill="#FFA412"/>
<path d="M180.759 126.591H180.214V121.258H180.759V126.591Z" fill="#FFA412"/>
<path d="M176.161 126.591H175.616V121.258H176.161V126.591Z" fill="#FFA412"/>
<path d="M155.627 115.935C155.541 115.935 155.457 115.944 155.375 115.962L155.341 115.97C154.903 116.082 154.563 116.443 154.483 116.894C154.477 116.924 154.475 116.955 154.472 116.987C154.47 117.003 154.469 117.019 154.467 117.035C154.467 117.055 154.466 117.074 154.466 117.094V120.105C154.466 120.126 154.467 120.146 154.467 120.165C154.469 120.192 154.47 120.219 154.475 120.245C154.482 120.299 154.492 120.349 154.505 120.4C154.636 120.899 155.091 121.266 155.627 121.266H195.551L195.562 121.258C195.886 120.967 196.208 120.672 196.525 120.373C196.71 120.201 196.891 120.028 197.071 119.852C197.512 119.431 197.946 118.999 198.37 118.561C198.555 118.373 198.737 118.184 198.915 117.994C199.328 117.562 199.732 117.123 200.127 116.677C200.312 116.472 200.494 116.268 200.672 116.06C200.698 116.031 200.723 116.002 200.748 115.973L200.78 115.935H155.627ZM198.915 115.935V117.994C199.328 117.562 199.732 117.123 200.127 116.677V115.935H198.915ZM198.915 115.935V117.994C199.328 117.562 199.732 117.123 200.127 116.677C200.312 116.472 200.494 116.268 200.672 116.06C200.698 116.031 200.723 116.002 200.748 115.973L200.78 115.935H198.915ZM198.915 115.935V117.994C199.328 117.562 199.732 117.123 200.127 116.677C200.312 116.472 200.494 116.268 200.672 116.06C200.698 116.031 200.723 116.002 200.748 115.973L200.78 115.935H198.915ZM198.915 115.935V117.994C199.328 117.562 199.732 117.123 200.127 116.677C200.312 116.472 200.494 116.268 200.672 116.06C200.698 116.031 200.723 116.002 200.748 115.973L200.78 115.935H198.915ZM198.915 115.935V117.994C199.328 117.562 199.732 117.123 200.127 116.677C200.312 116.472 200.494 116.268 200.672 116.06C200.698 116.031 200.723 116.002 200.748 115.973L200.78 115.935H198.915ZM198.915 115.935V117.994C199.328 117.562 199.732 117.123 200.127 116.677C200.312 116.472 200.494 116.268 200.672 116.06C200.698 116.031 200.723 116.002 200.748 115.973L200.78 115.935H198.915ZM198.915 115.935V117.994C199.328 117.562 199.732 117.123 200.127 116.677V115.935H198.915Z" fill="#FFB93E"/>
<path d="M181.199 121.266H155.502C154.951 121.266 154.496 120.777 154.467 120.165C154.467 120.146 154.466 120.126 154.466 120.107V117.094C154.466 117.074 154.467 117.055 154.467 117.035C154.469 117.019 154.47 117.003 154.47 116.985C154.512 116.484 154.844 116.071 155.275 115.962C155.29 115.958 155.304 115.955 155.319 115.952C155.378 115.941 155.439 115.933 155.502 115.933H178.044L178.053 115.973C178.416 117.536 179.255 119.68 181.189 121.258L181.199 121.266Z" fill="#FFA412"/>
<path d="M198.916 115.935V117.994C198.737 118.184 198.555 118.373 198.371 118.561V115.935H198.916Z" fill="#FFA412"/>
<path d="M197.071 115.935V119.852C196.891 120.028 196.709 120.201 196.525 120.373V115.935H197.071Z" fill="#FFA412"/>
<path d="M194.858 121.266H194.313V115.933H194.858V121.266Z" fill="#FFA412"/>
<path d="M191.465 121.266H190.92V115.933H191.465V121.266Z" fill="#FFA412"/>
<path d="M187.878 121.266H187.333V115.933H187.878V121.266Z" fill="#FFA412"/>
<path d="M182.38 121.266H181.835V115.933H182.38V121.266Z" fill="#FFA412"/>
<path d="M177.232 121.266H176.687V115.933H177.232V121.266Z" fill="#FFA412"/>
<path d="M172.635 121.266H172.09V115.933H172.635V121.266Z" fill="#FFA412"/>
<path d="M200.672 115.935V116.06C200.494 116.267 200.312 116.472 200.127 116.677V115.935H200.672Z" fill="#FFA412"/>
<path d="M200.748 110.772V110.639H200.572V115.935H200.78C200.918 115.778 201.053 115.619 201.187 115.459C201.371 115.243 201.553 115.025 201.732 114.806V110.772H200.748ZM204.454 111.152C204.422 111.106 204.387 111.062 204.349 111.02L204.339 111.01L204.33 111L204.302 110.972C204.289 110.961 204.278 110.949 204.265 110.937C204.252 110.926 204.24 110.914 204.227 110.904C204.201 110.882 204.173 110.862 204.144 110.841C204.106 110.815 204.067 110.792 204.026 110.772H204.025C204.006 110.762 203.987 110.751 203.968 110.743L203.939 110.73L203.909 110.718C203.84 110.69 203.769 110.671 203.696 110.658L203.68 110.655L203.666 110.653L203.644 110.65L203.622 110.647L203.608 110.645H203.603L203.58 110.644C203.551 110.641 203.522 110.639 203.492 110.639H155.527C154.908 110.639 154.399 111.129 154.367 111.741C154.367 111.76 154.366 111.78 154.366 111.8V114.811C154.366 114.832 154.367 114.851 154.367 114.871C154.369 114.906 154.372 114.941 154.376 114.976C154.449 115.468 154.831 115.863 155.319 115.952C155.338 115.956 155.357 115.959 155.376 115.962C155.425 115.968 155.476 115.972 155.527 115.972H200.748L200.78 115.935C200.918 115.778 201.053 115.619 201.187 115.459C201.371 115.243 201.553 115.025 201.732 114.806C201.927 114.572 202.118 114.333 202.307 114.095C202.493 113.864 202.675 113.633 202.854 113.399C202.955 113.271 203.054 113.143 203.151 113.014C203.335 112.774 203.516 112.531 203.696 112.287C203.769 112.191 203.84 112.094 203.909 111.997C204.095 111.747 204.276 111.495 204.454 111.241C204.465 111.227 204.475 111.215 204.484 111.2V111.199C204.474 111.183 204.464 111.167 204.454 111.152ZM200.748 110.772V110.639H200.572V115.935H200.78C200.918 115.778 201.053 115.619 201.187 115.459C201.371 115.243 201.553 115.025 201.732 114.806V110.772H200.748Z" fill="#FFB93E"/>
<path d="M181.099 115.972H155.402C155.381 115.972 155.361 115.971 155.341 115.97C155.319 115.968 155.297 115.967 155.275 115.962C154.781 115.895 154.393 115.435 154.367 114.871C154.367 114.851 154.366 114.832 154.366 114.811V111.8C154.366 111.78 154.367 111.76 154.367 111.741C154.395 111.129 154.85 110.639 155.402 110.639H177.943C177.953 110.683 177.963 110.727 177.973 110.77C178.347 112.316 179.182 114.39 181.052 115.933C181.068 115.946 181.083 115.959 181.099 115.972Z" fill="#FFA412"/>
<path d="M198.815 115.972H198.27V110.639H198.815V115.972Z" fill="#FFA412"/>
<path d="M196.97 115.972H196.425V110.639H196.97V115.972Z" fill="#FFA412"/>
<path d="M194.757 115.972H194.212V110.639H194.757V115.972Z" fill="#FFA412"/>
<path d="M191.365 115.972H190.82V110.639H191.365V115.972Z" fill="#FFA412"/>
<path d="M187.779 115.972H187.234V110.639H187.779V115.972Z" fill="#FFA412"/>
<path d="M182.28 115.972H181.735V110.639H182.28V115.972Z" fill="#FFA412"/>
<path d="M177.131 115.972H176.586V110.639H177.131V115.972Z" fill="#FFA412"/>
<path d="M172.534 115.972H171.989V110.639H172.534V115.972Z" fill="#FFA412"/>
<path d="M200.572 115.972H200.027V110.639H200.572V115.972Z" fill="#FFA412"/>
<path d="M201.732 110.64V114.806C201.553 115.025 201.372 115.243 201.187 115.46V110.64H201.732Z" fill="#FFA412"/>
<path d="M202.854 110.64V113.399C202.675 113.633 202.493 113.864 202.307 114.095V110.64H202.854Z" fill="#FFA412"/>
<path d="M203.696 110.658V112.287C203.516 112.531 203.334 112.774 203.151 113.014V110.639H203.491C203.522 110.639 203.551 110.641 203.58 110.644L203.603 110.645H203.608L203.622 110.647L203.644 110.65L203.666 110.654L203.68 110.655L203.696 110.658Z" fill="#FFA412"/>
<path d="M207.13 106.6V107.161C207.064 107.27 206.999 107.379 206.931 107.486C206.752 107.78 206.572 108.071 206.386 108.36C206.317 108.472 206.246 108.584 206.173 108.694C205.995 108.974 205.813 109.253 205.629 109.53C205.531 109.679 205.431 109.826 205.331 109.974C205.152 110.242 204.97 110.506 204.786 110.769V110.772H158.004C157.812 110.772 157.629 110.724 157.469 110.64C157.228 110.515 157.038 110.307 156.933 110.054C156.888 109.951 156.86 109.839 156.849 109.723L156.844 109.671V106.54C156.852 106.405 156.882 106.275 156.933 106.155C157.109 105.735 157.523 105.439 158.004 105.439H205.969C206.04 105.439 206.107 105.445 206.173 105.458C206.248 105.471 206.319 105.49 206.386 105.517C206.609 105.603 206.798 105.757 206.931 105.952C207.057 106.137 207.13 106.359 207.13 106.6Z" fill="#FFB93E"/>
<path d="M183.576 110.77H157.879C157.707 110.77 157.546 110.724 157.402 110.639C157.099 110.462 156.882 110.121 156.849 109.723C156.847 109.705 156.846 109.688 156.844 109.67C156.844 109.65 156.844 109.631 156.844 109.611V106.6C156.844 106.579 156.844 106.559 156.844 106.54C156.873 105.928 157.328 105.439 157.879 105.439H180.421C180.771 106.966 181.574 109.061 183.419 110.639C183.47 110.683 183.524 110.727 183.576 110.77Z" fill="#FFA412"/>
<path d="M201.294 110.772H200.748V105.439H201.294V110.772Z" fill="#FFA412"/>
<path d="M199.449 110.772H198.902V105.439H199.449V110.772Z" fill="#FFA412"/>
<path d="M197.236 110.772H196.691V105.439H197.236V110.772Z" fill="#FFA412"/>
<path d="M193.844 110.772H193.297V105.439H193.844V110.772Z" fill="#FFA412"/>
<path d="M190.256 110.772H189.711V105.439H190.256V110.772Z" fill="#FFA412"/>
<path d="M184.757 110.772H184.212V105.439H184.757V110.772Z" fill="#FFA412"/>
<path d="M179.609 110.772H179.064V105.439H179.609V110.772Z" fill="#FFA412"/>
<path d="M175.012 110.772H174.467V105.439H175.012V110.772Z" fill="#FFA412"/>
<path d="M203.049 110.772H202.504V105.439H203.049V110.772Z" fill="#FFA412"/>
<path d="M204.21 110.772H203.666V105.439H204.21V110.772Z" fill="#FFA412"/>
<path d="M205.331 105.439V109.974C205.152 110.242 204.971 110.506 204.786 110.769V105.439H205.331Z" fill="#FFA412"/>
<path d="M206.174 105.458V108.694C205.996 108.974 205.814 109.253 205.629 109.529V105.439H205.969C206.041 105.439 206.107 105.445 206.174 105.458Z" fill="#FFA412"/>
<path d="M206.931 105.952V107.486C206.752 107.78 206.572 108.07 206.386 108.36V105.517C206.61 105.603 206.799 105.757 206.931 105.952Z" fill="#FFA412"/>
<path d="M210.721 100.459C210.586 100.748 210.448 101.034 210.307 101.321C210.237 101.466 210.167 101.61 210.094 101.754C209.916 102.115 209.734 102.474 209.549 102.83C209.452 103.022 209.353 103.213 209.252 103.403C209.073 103.746 208.89 104.086 208.705 104.423C208.519 104.764 208.33 105.103 208.139 105.439H161.925C161.306 105.439 160.796 104.949 160.765 104.337C160.764 104.318 160.764 104.298 160.764 104.278V101.267C160.764 101.246 160.764 101.228 160.765 101.207C160.794 100.643 161.232 100.181 161.787 100.114C161.832 100.109 161.878 100.106 161.925 100.106H203.725H203.73H209.89C209.959 100.106 210.028 100.113 210.094 100.125C210.167 100.138 210.238 100.158 210.307 100.184C210.327 100.193 210.347 100.2 210.368 100.21C210.382 100.216 210.397 100.223 210.411 100.232C210.452 100.251 210.491 100.274 210.529 100.3C210.545 100.311 210.561 100.322 210.577 100.334L210.593 100.346L210.629 100.375C210.661 100.401 210.692 100.428 210.721 100.459Z" fill="#FFB93E"/>
<path d="M187.497 105.439H161.8C161.248 105.439 160.793 104.949 160.765 104.337C160.764 104.318 160.764 104.298 160.764 104.278V101.267C160.764 101.246 160.764 101.228 160.765 101.207C160.79 100.642 161.182 100.181 161.678 100.114C161.717 100.109 161.758 100.106 161.8 100.106H184.341L184.342 100.114C184.704 101.684 185.542 103.849 187.497 105.439Z" fill="#FFA412"/>
<path d="M205.213 105.439H204.668V100.106H205.213V105.439Z" fill="#FFA412"/>
<path d="M203.368 105.439H202.823V100.106H203.368V105.439Z" fill="#FFA412"/>
<path d="M201.155 105.439H200.61V100.106H201.155V105.439Z" fill="#FFA412"/>
<path d="M197.763 105.439H197.218V100.106H197.763V105.439Z" fill="#FFA412"/>
<path d="M194.177 105.439H193.632V100.106H194.177V105.439Z" fill="#FFA412"/>
<path d="M188.678 105.439H188.133V100.106H188.678V105.439Z" fill="#FFA412"/>
<path d="M183.53 105.439H182.985V100.106H183.53V105.439Z" fill="#FFA412"/>
<path d="M178.932 105.439H178.387V100.106H178.932V105.439Z" fill="#FFA412"/>
<path d="M206.97 105.439H206.425V100.106H206.97V105.439Z" fill="#FFA412"/>
<path d="M208.13 105.439H207.585V100.106H208.13V105.439Z" fill="#FFA412"/>
<path d="M209.251 100.107V103.403C209.073 103.746 208.89 104.086 208.705 104.423V100.107H209.251Z" fill="#FFA412"/>
<path d="M210.094 100.125V101.754C209.916 102.115 209.734 102.474 209.549 102.83V100.106H209.889C209.959 100.106 210.027 100.113 210.094 100.125Z" fill="#FFA412"/>
<path d="M210.72 100.459C210.585 100.748 210.447 101.034 210.306 101.321V100.184C210.326 100.193 210.347 100.2 210.367 100.21C210.382 100.216 210.396 100.223 210.411 100.232C210.451 100.251 210.491 100.274 210.528 100.3C210.544 100.311 210.56 100.322 210.576 100.334L210.592 100.346L210.629 100.375C210.661 100.401 210.691 100.428 210.72 100.459Z" fill="#FFA412"/>
<path d="M204.753 95.9428V98.9537C204.753 99.1949 204.68 99.4172 204.554 99.6018C204.421 99.798 204.231 99.9506 204.009 100.036C203.94 100.064 203.869 100.083 203.797 100.096C203.775 100.1 203.751 100.105 203.73 100.106C203.711 100.109 203.693 100.11 203.676 100.112L203.648 100.113C203.629 100.115 203.61 100.115 203.592 100.115H155.627C155.008 100.115 154.499 99.625 154.467 99.0147C154.467 98.9944 154.466 98.9741 154.466 98.9537V95.9428C154.466 95.9239 154.467 95.9036 154.467 95.8832C154.499 95.2729 155.008 94.7832 155.627 94.7832H203.592C203.612 94.7832 203.634 94.7832 203.654 94.7847C203.702 94.7876 203.75 94.7934 203.797 94.8007C203.869 94.8137 203.94 94.8341 204.009 94.8602C204.044 94.8748 204.077 94.8893 204.11 94.9053C204.131 94.9155 204.15 94.9256 204.17 94.9387L204.176 94.9416C204.196 94.9532 204.215 94.9649 204.234 94.9779L204.244 94.9852C204.262 94.9968 204.279 95.0085 204.296 95.023C204.337 95.0535 204.375 95.0869 204.411 95.1233L204.445 95.1567L204.45 95.1639L204.469 95.1857L204.474 95.1901C204.485 95.2032 204.497 95.2177 204.507 95.2322C204.523 95.2526 204.539 95.2729 204.554 95.2947C204.68 95.4807 204.753 95.7031 204.753 95.9428Z" fill="#FFB93E"/>
<path d="M181.199 100.115H155.502C154.951 100.115 154.496 99.625 154.467 99.0147C154.467 98.9944 154.466 98.9741 154.466 98.9537V95.9428C154.466 95.9239 154.467 95.9036 154.467 95.8832C154.496 95.2729 154.951 94.7832 155.502 94.7832H178.044C178.053 94.8225 178.062 94.8646 178.073 94.9053C178.447 96.4616 179.29 98.557 181.189 100.106L181.199 100.115Z" fill="#FFA412"/>
<path d="M198.916 100.115H198.371V94.7832H198.916V100.115Z" fill="#FFA412"/>
<path d="M197.071 100.115H196.525V94.7832H197.071V100.115Z" fill="#FFA412"/>
<path d="M194.858 100.115H194.313V94.7832H194.858V100.115Z" fill="#FFA412"/>
<path d="M191.465 100.115H190.92V94.7832H191.465V100.115Z" fill="#FFA412"/>
<path d="M187.878 100.115H187.333V94.7832H187.878V100.115Z" fill="#FFA412"/>
<path d="M182.38 100.115H181.835V94.7832H182.38V100.115Z" fill="#FFA412"/>
<path d="M177.232 100.115H176.687V94.7832H177.232V100.115Z" fill="#FFA412"/>
<path d="M172.635 100.115H172.09V94.7832H172.635V100.115Z" fill="#FFA412"/>
<path d="M200.672 100.115H200.127V94.7832H200.672V100.115Z" fill="#FFA412"/>
<path d="M201.834 100.115H201.289V94.7832H201.834V100.115Z" fill="#FFA412"/>
<path d="M202.953 100.115H202.408V94.7832H202.953V100.115Z" fill="#FFA412"/>
<path d="M203.796 94.8007V100.096C203.73 100.109 203.661 100.115 203.591 100.115H203.251V94.7832H203.591C203.661 94.7832 203.73 94.789 203.796 94.8007Z" fill="#FFA412"/>
<path d="M204.554 95.2946V99.6016C204.421 99.7978 204.231 99.9504 204.009 100.036V94.8601C204.231 94.9473 204.421 95.0999 204.554 95.2946Z" fill="#FFA412"/>
<path d="M208.28 90.7331V93.7454C208.28 93.9852 208.205 94.2075 208.08 94.3935C207.948 94.5882 207.758 94.7408 207.536 94.8266C207.467 94.8542 207.396 94.8745 207.323 94.8876C207.257 94.8992 207.188 94.905 207.118 94.905H159.154C158.968 94.905 158.79 94.8614 158.635 94.783C158.286 94.6071 158.035 94.2584 157.997 93.8515C157.996 93.837 157.996 93.821 157.994 93.805C157.994 93.7847 157.993 93.7643 157.993 93.7454V90.7331C157.993 90.7142 157.994 90.6939 157.994 90.6735C158.023 90.1083 158.461 89.6476 159.016 89.5822C159.061 89.5764 159.107 89.5735 159.154 89.5735H207.118C207.188 89.5735 207.257 89.5793 207.323 89.5924C207.396 89.6055 207.467 89.6244 207.536 89.652C207.758 89.7377 207.948 89.8903 208.08 90.0865C208.205 90.271 208.28 90.4934 208.28 90.7331Z" fill="#FFB93E"/>
<path d="M184.726 94.905H159.029C158.863 94.905 158.706 94.8614 158.567 94.783C158.254 94.6071 158.032 94.2584 157.997 93.8515C157.996 93.837 157.996 93.821 157.994 93.805C157.994 93.7847 157.993 93.7643 157.993 93.7454V90.7331C157.993 90.7142 157.994 90.6939 157.994 90.6735C158.02 90.1097 158.411 89.6476 158.907 89.5822C158.946 89.5764 158.987 89.5735 159.029 89.5735H181.57L181.573 89.5822C181.924 91.1109 182.731 93.2063 184.578 94.783C184.626 94.8237 184.675 94.8658 184.726 94.905Z" fill="#FFA412"/>
<path d="M202.442 94.905H201.897V89.5735H202.442V94.905Z" fill="#FFA412"/>
<path d="M200.597 94.905H200.052V89.5735H200.597V94.905Z" fill="#FFA412"/>
<path d="M198.383 94.905H197.838V89.5735H198.383V94.905Z" fill="#FFA412"/>
<path d="M194.992 94.905H194.447V89.5735H194.992V94.905Z" fill="#FFA412"/>
<path d="M191.406 94.905H190.861V89.5735H191.406V94.905Z" fill="#FFA412"/>
<path d="M185.907 94.905H185.362V89.5735H185.907V94.905Z" fill="#FFA412"/>
<path d="M180.759 94.905H180.214V89.5735H180.759V94.905Z" fill="#FFA412"/>
<path d="M176.161 94.905H175.616V89.5735H176.161V94.905Z" fill="#FFA412"/>
<path d="M204.199 94.905H203.654V89.5735H204.199V94.905Z" fill="#FFA412"/>
<path d="M205.36 94.905H204.814V89.5735H205.36V94.905Z" fill="#FFA412"/>
<path d="M206.48 94.905H205.935V89.5735H206.48V94.905Z" fill="#FFA412"/>
<path d="M207.324 89.591V94.8876C207.257 94.8992 207.189 94.905 207.119 94.905H206.779V89.5735H207.119C207.189 89.5735 207.257 89.5793 207.324 89.591Z" fill="#FFA412"/>
<path d="M208.081 90.0851V94.3936C207.949 94.5883 207.758 94.7409 207.536 94.8267V89.6521C207.758 89.7378 207.949 89.8904 208.081 90.0851Z" fill="#FFA412"/>
<path d="M204.753 85.4103V88.4212C204.753 88.661 204.68 88.8833 204.554 89.0693C204.421 89.264 204.231 89.4181 204.009 89.5038C203.94 89.53 203.869 89.5503 203.797 89.5634C203.775 89.5663 203.751 89.5707 203.73 89.5736L203.692 89.5765L203.654 89.5794C203.634 89.5808 203.612 89.5823 203.592 89.5823H155.627C155.008 89.5823 154.499 89.0911 154.467 88.4808C154.467 88.4605 154.466 88.4416 154.466 88.4212V85.4103C154.466 85.39 154.467 85.3697 154.467 85.3508C154.499 84.739 155.008 84.2493 155.627 84.2493H203.592C203.661 84.2493 203.73 84.2551 203.797 84.2682C203.869 84.2813 203.94 84.3002 204.009 84.3278C204.231 84.4135 204.421 84.5675 204.554 84.7622C204.68 84.9468 204.753 85.1706 204.753 85.4103Z" fill="#FFB93E"/>
<path d="M181.199 89.5823H155.502C154.951 89.5823 154.496 89.0911 154.467 88.4808C154.467 88.4605 154.466 88.4416 154.466 88.4212V85.4103C154.466 85.39 154.467 85.3697 154.467 85.3508C154.496 84.739 154.951 84.2493 155.502 84.2493H178.044C178.403 85.8172 179.239 87.9824 181.189 89.5736L181.199 89.5823Z" fill="#FFA412"/>
<path d="M198.916 89.5823H198.371V84.2493H198.916V89.5823Z" fill="#FFA412"/>
<path d="M197.071 89.5823H196.525V84.2493H197.071V89.5823Z" fill="#FFA412"/>
<path d="M194.858 89.5823H194.313V84.2493H194.858V89.5823Z" fill="#FFA412"/>
<path d="M191.465 89.5823H190.92V84.2493H191.465V89.5823Z" fill="#FFA412"/>
<path d="M187.878 89.5823H187.333V84.2493H187.878V89.5823Z" fill="#FFA412"/>
<path d="M182.38 89.5823H181.835V84.2493H182.38V89.5823Z" fill="#FFA412"/>
<path d="M177.232 89.5823H176.687V84.2493H177.232V89.5823Z" fill="#FFA412"/>
<path d="M172.635 84.2493V89.5823H172.09V84.2493H172.635Z" fill="#FFA412"/>
<path d="M200.672 89.5823H200.127V84.2493H200.672V89.5823Z" fill="#FFA412"/>
<path d="M201.834 89.5823H201.289V84.2493H201.834V89.5823Z" fill="#FFA412"/>
<path d="M202.953 89.5823H202.408V84.2493H202.953V89.5823Z" fill="#FFA412"/>
<path d="M203.796 84.2684V89.5636C203.73 89.5752 203.661 89.5811 203.591 89.5811H203.251V84.2495H203.591C203.661 84.2495 203.73 84.2553 203.796 84.2684Z" fill="#FFA412"/>
<path d="M204.554 84.7624V89.0694C204.421 89.2641 204.231 89.4167 204.009 89.5039V84.3279C204.231 84.4136 204.421 84.5662 204.554 84.7624Z" fill="#FFA412"/>
<path d="M187.424 74.3244L164.096 48.2887C161.582 45.4842 156.933 47.2614 156.933 51.0279V116.632C156.933 116.632 187.424 120.861 187.424 116.632C187.424 112.404 187.424 74.3244 187.424 74.3244Z" fill="#ED7D2B"/>
<path d="M146.544 115.721L156.76 114.416C156.76 114.416 155.907 108.118 157.361 99.6131C158.435 93.3297 160.769 85.8418 165.636 78.7956C173.934 66.7782 199.748 59.1813 199.748 59.1813L199.685 57.673L198.744 57.609C198.744 57.609 199.136 57.3111 199.662 57.1251L199.515 53.5592C198.744 53.5795 197.642 53.6711 196.562 53.9719C197.167 53.7946 198.459 53.4415 199.505 53.3165L199.428 51.442C161.687 54.0126 150.308 77.3439 147.177 95.1665C145.171 106.572 146.544 115.721 146.544 115.721Z" fill="#82B378"/>
<path d="M101.534 114.258L146.544 115.721C146.491 108.8 147.999 101.578 149.519 96.0863C151.04 90.5964 152.575 86.8357 152.575 86.8357C164.784 56.8665 199.428 51.442 199.428 51.442L160.14 37.2159C141.534 39.3927 128.811 48.8961 120.118 60.5298C103.092 83.3134 101.534 114.258 101.534 114.258Z" fill="#A8D29F"/>
<path d="M146.545 115.721C146.491 108.8 147.999 101.578 149.519 96.0863C152.577 97.2328 155.171 98.4142 157.362 99.6131C157.188 100.63 157.047 101.615 156.933 102.563C156.611 105.258 156.512 107.642 156.512 109.55C156.512 112.579 156.76 114.416 156.76 114.416L154.366 114.721L146.545 115.721Z" fill="#82B378"/>
<path d="M146.544 115.721L101.534 114.258C101.534 114.258 103.092 83.3134 120.118 60.5298C119.873 62.509 118.061 83.1593 147.177 95.1665C147.936 95.4789 148.717 95.7855 149.519 96.0863C147.999 101.578 146.491 108.8 146.544 115.721Z" fill="#95C28B"/>
<path d="M183.969 51.7822C179.694 53.356 175.728 55.1666 172.084 57.2039C166.88 60.113 162.332 63.4857 158.477 67.3045C157.949 67.8277 157.433 68.3581 156.933 68.8972C155.836 70.0742 154.802 71.2905 153.829 72.5445C150.25 77.1611 147.516 82.2921 145.667 87.8691C145.599 88.0682 145.535 88.2688 145.472 88.4693C145.441 88.5638 145.41 88.6582 145.381 88.7541C144.983 90.0299 144.643 91.2869 144.356 92.5163C144.255 92.9478 144.16 93.375 144.073 93.7994V93.8008C143.97 94.2934 143.876 94.7788 143.787 95.2612C142.951 99.8908 142.813 103.98 142.89 106.95C142.977 110.289 143.335 112.736 143.543 113.906L137.698 114.261L136.162 114.354L135.834 114.374L133.531 114.514L125.133 115.025H125.123L106.404 116.161L106.229 114.41L105.785 109.954C105.734 109.329 105.715 108.656 105.725 107.938C105.761 105.468 106.157 102.467 106.898 99.035C107.344 96.9643 107.915 94.7352 108.61 92.3695C110.263 86.7314 112.036 82.2804 112.055 82.2368C112.638 80.7358 113.251 79.2681 113.893 77.8382C113.951 77.7075 114.011 77.5767 114.072 77.4459C114.836 75.7617 115.644 74.127 116.493 72.5445C117.679 70.327 118.946 68.2098 120.288 66.2002C122.122 63.4538 124.098 60.905 126.211 58.5654C130.829 53.4504 136.106 49.3119 141.895 46.2662C148.175 42.9603 153.716 41.67 156.935 41.1687C158.625 40.9056 160.352 41.0626 161.965 41.6293L183.954 49.3439C185.101 49.7464 185.109 51.3623 183.969 51.7822ZM159.973 39.5179L159.854 39.5208C159.515 39.5266 151.472 39.7373 141.34 45.0514C135.402 48.1669 129.991 52.3998 125.258 57.634C123.426 59.6597 121.695 61.8379 120.069 64.1614C118.239 66.7756 116.542 69.5729 114.984 72.5445C114.162 74.1124 113.377 75.7283 112.633 77.3921C112.568 77.5403 112.501 77.6886 112.437 77.8368C111.873 79.1141 111.333 80.4175 110.815 81.7486C110.615 82.247 107.316 90.5603 105.525 99.035C105.334 99.9315 105.163 100.83 105.013 101.722C104.91 102.326 104.818 102.928 104.738 103.522C104.534 105.051 104.409 106.539 104.391 107.938C104.381 108.675 104.401 109.387 104.457 110.067L104.458 110.079L104.811 113.61L104.887 114.367L104.999 115.493L105.113 116.638L105.154 117.045L105.206 117.568L133.718 115.836L136.072 115.694L136.344 115.678L137.887 115.583L139.427 115.49H139.435L145.164 115.141L144.992 114.379C144.968 114.278 143.057 105.516 145.316 94.369C145.369 94.1016 145.426 93.8342 145.486 93.5639C145.664 92.7415 145.866 91.9074 146.096 91.0631C146.272 90.4121 146.462 89.7539 146.67 89.0927C146.892 88.385 147.129 87.6831 147.38 86.99C147.411 86.9057 147.441 86.82 147.473 86.7357C148.62 83.6159 150.06 80.6457 151.785 77.8382C151.876 77.6886 151.969 77.5403 152.062 77.3921C153.116 75.7167 154.271 74.0993 155.53 72.5445C155.983 71.9821 156.451 71.4271 156.933 70.8807C157.733 69.971 158.569 69.0861 159.441 68.2229C160.53 67.1461 161.675 66.1057 162.875 65.1016L162.891 65.0885C165.911 62.5674 169.282 60.2758 172.995 58.2211C173.307 58.0467 173.624 57.8752 173.942 57.7052L173.949 57.7008L173.958 57.6965C178.698 55.1637 183.974 53.0072 189.756 51.2431L191.699 50.6503L159.973 39.5179Z" fill="#82B378"/>
<path d="M124.824 70.7298C125.096 77.3182 129.121 81.1385 135.708 80.8668C142.297 80.5951 148.954 76.3316 148.681 69.7446C148.409 63.1561 144.598 59.3664 138.01 59.6395C131.422 59.9113 124.552 64.1413 124.824 70.7298Z" fill="#82B378"/>
<path d="M187.424 74.3247V127.322C186.581 127.839 185.723 128.336 184.846 128.81C184.175 129.174 183.495 129.526 182.806 129.865C181.761 130.378 180.696 130.863 179.609 131.316C179.429 131.393 179.247 131.469 179.064 131.543C178.748 131.672 178.429 131.799 178.108 131.922C177.645 132.102 177.178 132.277 176.707 132.447C175.665 132.823 174.603 133.172 173.524 133.496C173.141 133.612 172.756 133.723 172.37 133.83C170.882 134.249 169.36 134.618 167.804 134.937C166.61 135.248 165.396 135.465 164.173 135.587C161.345 136.021 158.411 136.303 155.371 136.428C154.876 136.45 154.376 136.466 153.874 136.478C153.143 136.497 152.405 136.505 151.661 136.505C150.768 136.505 149.868 136.495 148.966 136.475C141.378 136.306 133.529 135.423 125.948 133.807C125.376 133.685 124.805 133.56 124.235 133.429C117.506 131.889 111.022 129.764 105.154 127.041C105.004 126.973 104.856 126.903 104.709 126.833C103.233 126.137 101.796 125.402 100.405 124.628V74.3247C100.405 73.3453 101.206 72.5446 102.185 72.5446H185.643C185.709 72.5446 185.775 72.549 185.839 72.5548C186.727 72.6536 187.424 73.4121 187.424 74.3247Z" fill="#F5B822"/>
<path d="M173.332 133.385H171.849C171.731 133.385 171.635 133.476 171.628 133.592L171.626 133.608C171.626 133.731 171.725 133.83 171.849 133.83H172.37C172.757 133.723 173.142 133.612 173.524 133.496C173.486 133.429 173.415 133.385 173.332 133.385ZM170.365 133.385H168.881C168.758 133.385 168.659 133.484 168.659 133.608C168.659 133.731 168.758 133.83 168.881 133.83H170.365C170.487 133.83 170.587 133.731 170.587 133.608C170.587 133.484 170.487 133.385 170.365 133.385ZM167.398 133.385H165.914C165.791 133.385 165.69 133.484 165.69 133.608C165.69 133.731 165.791 133.83 165.914 133.83H167.398C167.52 133.83 167.62 133.731 167.62 133.608C167.62 133.484 167.52 133.385 167.398 133.385ZM164.429 133.385H162.945C162.823 133.385 162.723 133.484 162.723 133.608C162.723 133.731 162.823 133.83 162.945 133.83H164.429C164.553 133.83 164.653 133.731 164.653 133.608C164.653 133.484 164.553 133.385 164.429 133.385ZM161.462 133.385H159.978C159.856 133.385 159.756 133.484 159.756 133.608C159.756 133.731 159.856 133.83 159.978 133.83H161.462C161.585 133.83 161.684 133.731 161.684 133.608C161.684 133.484 161.585 133.385 161.462 133.385ZM158.494 133.385H157.011C156.887 133.385 156.788 133.484 156.788 133.608C156.788 133.731 156.887 133.83 157.011 133.83H158.494C158.618 133.83 158.717 133.731 158.717 133.608C158.717 133.484 158.618 133.385 158.494 133.385ZM155.527 133.385H154.044C153.92 133.385 153.821 133.484 153.821 133.608C153.821 133.731 153.92 133.83 154.044 133.83H155.527C155.649 133.83 155.749 133.731 155.749 133.608C155.749 133.484 155.649 133.385 155.527 133.385ZM152.56 133.385H151.076C150.953 133.385 150.852 133.484 150.852 133.608C150.852 133.731 150.953 133.83 151.076 133.83H152.56C152.682 133.83 152.782 133.731 152.782 133.608C152.782 133.484 152.682 133.385 152.56 133.385ZM149.593 133.385H148.108C148.051 133.385 148 133.407 147.961 133.442C147.914 133.481 147.885 133.541 147.885 133.608C147.885 133.731 147.985 133.83 148.108 133.83H149.593C149.715 133.83 149.815 133.731 149.815 133.608C149.815 133.484 149.715 133.385 149.593 133.385ZM146.624 133.385H145.14C145.018 133.385 144.918 133.484 144.918 133.608C144.918 133.731 145.018 133.83 145.14 133.83H146.624C146.747 133.83 146.846 133.731 146.846 133.608C146.846 133.484 146.747 133.385 146.624 133.385ZM143.657 133.385H142.173C142.049 133.385 141.951 133.484 141.951 133.608C141.951 133.731 142.049 133.83 142.173 133.83H143.657C143.78 133.83 143.879 133.731 143.879 133.608C143.879 133.484 143.78 133.385 143.657 133.385ZM140.689 133.385H139.206C139.082 133.385 138.983 133.484 138.983 133.608C138.983 133.731 139.082 133.83 139.206 133.83H140.689C140.813 133.83 140.912 133.731 140.912 133.608C140.912 133.484 140.813 133.385 140.689 133.385ZM137.722 133.385H136.238C136.115 133.385 136.015 133.484 136.015 133.608C136.015 133.731 136.115 133.83 136.238 133.83H137.722C137.844 133.83 137.944 133.731 137.944 133.608C137.944 133.484 137.844 133.385 137.722 133.385ZM134.755 133.385H133.27C133.148 133.385 133.047 133.484 133.047 133.608C133.047 133.731 133.148 133.83 133.27 133.83H134.755C134.877 133.83 134.977 133.731 134.977 133.608C134.977 133.484 134.877 133.385 134.755 133.385ZM131.786 133.385H130.302C130.18 133.385 130.08 133.484 130.08 133.608C130.08 133.731 130.18 133.83 130.302 133.83H131.786C131.91 133.83 132.01 133.731 132.01 133.608C132.01 133.484 131.91 133.385 131.786 133.385ZM128.819 133.385H127.335C127.213 133.385 127.113 133.484 127.113 133.608C127.113 133.731 127.213 133.83 127.335 133.83H128.819C128.942 133.83 129.041 133.731 129.041 133.608C129.041 133.484 128.942 133.385 128.819 133.385ZM125.851 133.385H124.368C124.318 133.385 124.272 133.401 124.236 133.429C124.805 133.56 125.376 133.685 125.949 133.807C126.023 133.772 126.074 133.696 126.074 133.608C126.074 133.484 125.975 133.385 125.851 133.385ZM181.037 128.561C181.015 128.461 180.926 128.387 180.82 128.387C180.697 128.387 180.598 128.487 180.598 128.61V130.094C180.598 130.216 180.697 130.316 180.82 130.316C180.944 130.316 181.043 130.216 181.043 130.094V128.61C181.043 128.593 181.041 128.577 181.037 128.561ZM104.932 125.446C104.809 125.446 104.71 125.546 104.71 125.668V126.833C104.857 126.903 105.005 126.973 105.155 127.041V125.668C105.155 125.546 105.054 125.446 104.932 125.446ZM180.82 125.419C180.798 125.419 180.778 125.422 180.759 125.428C180.666 125.454 180.598 125.54 180.598 125.642V127.125C180.598 127.249 180.697 127.349 180.82 127.349C180.944 127.349 181.043 127.249 181.043 127.125V125.642C181.043 125.52 180.944 125.419 180.82 125.419ZM104.932 122.478C104.809 122.478 104.71 122.579 104.71 122.701V124.184C104.71 124.308 104.809 124.407 104.932 124.407C105.054 124.407 105.155 124.308 105.155 124.184V122.701C105.155 122.579 105.054 122.478 104.932 122.478ZM180.82 122.452C180.798 122.452 180.778 122.455 180.759 122.461C180.666 122.487 180.598 122.573 180.598 122.674V124.158C180.598 124.26 180.666 124.346 180.759 124.372C180.778 124.377 180.798 124.38 180.82 124.38C180.944 124.38 181.043 124.282 181.043 124.158V122.674C181.043 122.552 180.944 122.452 180.82 122.452ZM104.932 119.511C104.809 119.511 104.71 119.61 104.71 119.733V121.217C104.71 121.34 104.809 121.439 104.932 121.439C105.054 121.439 105.155 121.34 105.155 121.217V119.733C105.155 119.61 105.054 119.511 104.932 119.511ZM180.82 119.485C180.697 119.485 180.598 119.584 180.598 119.707V121.191C180.598 121.214 180.601 121.237 180.61 121.258L180.612 121.266C180.634 121.333 180.689 121.386 180.759 121.404C180.778 121.41 180.798 121.413 180.82 121.413C180.918 121.413 180.999 121.352 181.028 121.266L181.031 121.258C181.04 121.237 181.043 121.214 181.043 121.191V119.707C181.043 119.584 180.944 119.485 180.82 119.485ZM105.114 116.638C105.073 116.581 105.008 116.544 104.932 116.544C104.809 116.544 104.71 116.643 104.71 116.766V118.25C104.71 118.372 104.809 118.472 104.932 118.472C105.054 118.472 105.155 118.372 105.155 118.25V116.766C105.155 116.718 105.14 116.674 105.114 116.638ZM180.82 116.518C180.697 116.518 180.598 116.616 180.598 116.74V118.224C180.598 118.347 180.697 118.446 180.82 118.446C180.944 118.446 181.043 118.347 181.043 118.224V116.74C181.043 116.616 180.944 116.518 180.82 116.518ZM104.932 113.575C104.887 113.575 104.847 113.588 104.812 113.61C104.751 113.651 104.71 113.72 104.71 113.799V115.282C104.71 115.404 104.809 115.505 104.932 115.505C104.956 115.505 104.979 115.5 104.999 115.493C105.089 115.465 105.155 115.381 105.155 115.282V113.799C105.155 113.675 105.054 113.575 104.932 113.575ZM180.82 113.549C180.697 113.549 180.598 113.649 180.598 113.773V115.256C180.598 115.378 180.697 115.479 180.82 115.479C180.944 115.479 181.043 115.378 181.043 115.256V113.773C181.043 113.649 180.944 113.549 180.82 113.549ZM104.932 110.608C104.809 110.608 104.71 110.708 104.71 110.83V112.315C104.71 112.437 104.809 112.537 104.932 112.537C105.054 112.537 105.155 112.437 105.155 112.315V110.83C105.155 110.708 105.054 110.608 104.932 110.608ZM181.04 110.772C181.032 110.72 181.006 110.672 180.968 110.64C180.929 110.603 180.877 110.582 180.82 110.582C180.764 110.582 180.711 110.603 180.672 110.64C180.634 110.672 180.608 110.72 180.601 110.772L180.598 110.804V112.289C180.598 112.411 180.697 112.511 180.82 112.511C180.944 112.511 181.043 112.411 181.043 112.289V110.804L181.04 110.772ZM104.932 107.64C104.809 107.64 104.71 107.741 104.71 107.863V109.346C104.71 109.47 104.809 109.57 104.932 109.57C105.054 109.57 105.155 109.47 105.155 109.346V107.863C105.155 107.741 105.054 107.64 104.932 107.64ZM180.82 107.614C180.697 107.614 180.598 107.715 180.598 107.837V109.32C180.598 109.444 180.697 109.544 180.82 109.544C180.944 109.544 181.043 109.444 181.043 109.32V107.837C181.043 107.715 180.944 107.614 180.82 107.614ZM104.932 104.673C104.809 104.673 104.71 104.772 104.71 104.895V106.379C104.71 106.503 104.809 106.601 104.932 106.601C105.054 106.601 105.155 106.503 105.155 106.379V104.895C105.155 104.772 105.054 104.673 104.932 104.673ZM180.82 104.647C180.697 104.647 180.598 104.746 180.598 104.869V106.353C180.598 106.449 180.656 106.527 180.739 106.559H180.74C180.765 106.569 180.793 106.575 180.82 106.575C180.944 106.575 181.043 106.476 181.043 106.353V104.869C181.043 104.746 180.944 104.647 180.82 104.647ZM105.014 101.722C104.989 101.712 104.961 101.706 104.932 101.706C104.809 101.706 104.71 101.805 104.71 101.928V103.412C104.71 103.453 104.72 103.49 104.739 103.522C104.777 103.589 104.849 103.634 104.932 103.634C105.054 103.634 105.155 103.535 105.155 103.412V101.928C105.155 101.834 105.096 101.754 105.014 101.722ZM180.82 101.68C180.697 101.68 180.598 101.778 180.598 101.902V103.386C180.598 103.509 180.697 103.608 180.82 103.608C180.944 103.608 181.043 103.509 181.043 103.386V101.902C181.043 101.778 180.944 101.68 180.82 101.68ZM104.932 98.7371C104.809 98.7371 104.71 98.8374 104.71 98.9609V100.445C104.71 100.567 104.809 100.667 104.932 100.667C105.054 100.667 105.155 100.567 105.155 100.445V98.9609C105.155 98.8374 105.054 98.7371 104.932 98.7371ZM180.82 98.7124C180.697 98.7124 180.598 98.8112 180.598 98.9347V100.418C180.598 100.54 180.697 100.641 180.82 100.641C180.944 100.641 181.043 100.54 181.043 100.418V98.9347C181.043 98.8112 180.944 98.7124 180.82 98.7124ZM104.932 95.7698C104.809 95.7698 104.71 95.8701 104.71 95.9921V97.4772C104.71 97.5993 104.809 97.6996 104.932 97.6996C105.054 97.6996 105.155 97.5993 105.155 97.4772V95.9921C105.155 95.8701 105.054 95.7698 104.932 95.7698ZM180.82 95.7437C180.697 95.7437 180.598 95.8439 180.598 95.966V97.4511C180.598 97.5732 180.697 97.6734 180.82 97.6734C180.944 97.6734 181.043 97.5732 181.043 97.4511V95.966C181.043 95.8439 180.944 95.7437 180.82 95.7437ZM104.932 92.8025C104.809 92.8025 104.71 92.9028 104.71 93.0249V94.5085C104.71 94.5608 104.727 94.6073 104.758 94.6451C104.797 94.6989 104.861 94.7323 104.932 94.7323C105.054 94.7323 105.155 94.632 105.155 94.5085V93.0249C105.155 92.9028 105.054 92.8025 104.932 92.8025ZM180.82 92.7764C180.798 92.7764 180.778 92.7793 180.759 92.7851C180.666 92.8113 180.598 92.897 180.598 92.9987V94.4824C180.598 94.5841 180.666 94.6713 180.759 94.6974C180.778 94.7032 180.798 94.7061 180.82 94.7061C180.944 94.7061 181.043 94.6059 181.043 94.4824V92.9987C181.043 92.8767 180.944 92.7764 180.82 92.7764ZM104.932 89.8353C104.809 89.8353 104.71 89.9341 104.71 90.0576V91.5412C104.71 91.6647 104.809 91.7636 104.932 91.7636C105.054 91.7636 105.155 91.6647 105.155 91.5412V90.0576C105.155 89.9341 105.054 89.8353 104.932 89.8353ZM180.82 89.8091C180.798 89.8091 180.778 89.812 180.759 89.8178C180.666 89.844 180.598 89.9297 180.598 90.0314V91.5151C180.598 91.6168 180.666 91.7025 180.759 91.7287C180.778 91.7345 180.798 91.7374 180.82 91.7374C180.944 91.7374 181.043 91.6386 181.043 91.5151V90.0314C181.043 89.9094 180.944 89.8091 180.82 89.8091ZM104.932 86.868C104.809 86.868 104.71 86.9668 104.71 87.0903V88.5739C104.71 88.6975 104.809 88.7963 104.932 88.7963C105.054 88.7963 105.155 88.6975 105.155 88.5739V87.0903C105.155 86.9668 105.054 86.868 104.932 86.868ZM180.82 86.8418C180.697 86.8418 180.598 86.9406 180.598 87.0642V88.5478C180.598 88.6713 180.697 88.7701 180.82 88.7701C180.944 88.7701 181.043 88.6713 181.043 88.5478V87.0642C181.043 86.9406 180.944 86.8418 180.82 86.8418ZM104.932 83.9007C104.809 83.9007 104.71 83.9995 104.71 84.123V85.6067C104.71 85.7287 104.809 85.829 104.932 85.829C105.054 85.829 105.155 85.7287 105.155 85.6067V84.123C105.155 83.9995 105.054 83.9007 104.932 83.9007ZM180.82 83.8745C180.697 83.8745 180.598 83.9734 180.598 84.0969V85.5805C180.598 85.7026 180.697 85.8028 180.82 85.8028C180.944 85.8028 181.043 85.7026 181.043 85.5805V84.0969C181.043 83.9734 180.944 83.8745 180.82 83.8745ZM104.932 80.932C104.809 80.932 104.71 81.0322 104.71 81.1543V82.6394C104.71 82.7615 104.809 82.8617 104.932 82.8617C105.054 82.8617 105.155 82.7615 105.155 82.6394V81.1543C105.155 81.0322 105.054 80.932 104.932 80.932ZM180.82 80.9058C180.697 80.9058 180.598 81.0061 180.598 81.1296V82.6132C180.598 82.7353 180.697 82.8356 180.82 82.8356C180.944 82.8356 181.043 82.7353 181.043 82.6132V81.1296C181.043 81.0061 180.944 80.9058 180.82 80.9058ZM105.365 78.0722C105.265 77.9996 105.127 78.0214 105.053 78.1202C104.829 78.4268 104.71 78.7886 104.71 79.1679V79.6707C104.71 79.7942 104.809 79.8944 104.932 79.8944C105.054 79.8944 105.155 79.7942 105.155 79.6707V79.1679C105.155 78.8845 105.243 78.6128 105.412 78.3846C105.484 78.2844 105.464 78.1449 105.365 78.0722ZM180.681 78.0969C180.607 77.9981 180.467 77.9792 180.37 78.0548C180.271 78.1289 180.252 78.2684 180.326 78.3657C180.503 78.5997 180.598 78.8758 180.598 79.1679V79.6445C180.598 79.768 180.697 79.8683 180.82 79.8683C180.944 79.8683 181.043 79.768 181.043 79.6445V79.1679C181.043 78.7784 180.918 78.4079 180.681 78.0969ZM179.216 77.3922H177.732C177.609 77.3922 177.51 77.4924 177.51 77.6145C177.51 77.738 177.609 77.8383 177.732 77.8383H179.216C179.338 77.8383 179.438 77.738 179.438 77.6145C179.438 77.4924 179.338 77.3922 179.216 77.3922ZM176.249 77.3922H174.765C174.642 77.3922 174.541 77.4924 174.541 77.6145C174.541 77.738 174.642 77.8383 174.765 77.8383H176.249C176.371 77.8383 176.471 77.738 176.471 77.6145C176.471 77.4924 176.371 77.3922 176.249 77.3922ZM173.28 77.3922H171.796C171.674 77.3922 171.574 77.4924 171.574 77.6145C171.574 77.738 171.674 77.8383 171.796 77.8383H173.28C173.403 77.8383 173.504 77.738 173.504 77.6145C173.504 77.4924 173.403 77.3922 173.28 77.3922ZM170.313 77.3922H168.829C168.707 77.3922 168.607 77.4924 168.607 77.6145C168.607 77.738 168.707 77.8383 168.829 77.8383H170.313C170.436 77.8383 170.535 77.738 170.535 77.6145C170.535 77.4924 170.436 77.3922 170.313 77.3922ZM167.345 77.3922H165.862C165.738 77.3922 165.639 77.4924 165.639 77.6145C165.639 77.738 165.738 77.8383 165.862 77.8383H167.345C167.469 77.8383 167.568 77.738 167.568 77.6145C167.568 77.4924 167.469 77.3922 167.345 77.3922ZM164.378 77.3922H162.895C162.771 77.3922 162.672 77.4924 162.672 77.6145C162.672 77.738 162.771 77.8383 162.895 77.8383H164.378C164.5 77.8383 164.6 77.738 164.6 77.6145C164.6 77.4924 164.5 77.3922 164.378 77.3922ZM161.411 77.3922H159.927C159.804 77.3922 159.703 77.4924 159.703 77.6145C159.703 77.738 159.804 77.8383 159.927 77.8383H161.411C161.533 77.8383 161.633 77.738 161.633 77.6145C161.633 77.4924 161.533 77.3922 161.411 77.3922ZM158.442 77.3922H156.958L156.934 77.3951C156.823 77.4067 156.736 77.5011 156.736 77.6145C156.736 77.7293 156.823 77.8237 156.934 77.8354L156.958 77.8383H158.442C158.566 77.8383 158.666 77.738 158.666 77.6145C158.666 77.4924 158.566 77.3922 158.442 77.3922ZM155.475 77.3922H153.991C153.869 77.3922 153.769 77.4924 153.769 77.6145C153.769 77.738 153.869 77.8383 153.991 77.8383H155.475C155.598 77.8383 155.697 77.738 155.697 77.6145C155.697 77.4924 155.598 77.3922 155.475 77.3922ZM152.508 77.3922H151.024C150.9 77.3922 150.802 77.4924 150.802 77.6145C150.802 77.738 150.9 77.8383 151.024 77.8383H152.508C152.631 77.8383 152.73 77.738 152.73 77.6145C152.73 77.4924 152.631 77.3922 152.508 77.3922ZM149.54 77.3922H148.057C147.933 77.3922 147.834 77.4924 147.834 77.6145C147.834 77.738 147.933 77.8383 148.057 77.8383H149.54C149.662 77.8383 149.763 77.738 149.763 77.6145C149.763 77.4924 149.662 77.3922 149.54 77.3922ZM146.573 77.3922H145.089C144.973 77.3922 144.877 77.4808 144.867 77.5941V77.5956L144.866 77.6145C144.866 77.738 144.966 77.8383 145.089 77.8383H146.573C146.695 77.8383 146.795 77.738 146.795 77.6145C146.795 77.4924 146.695 77.3922 146.573 77.3922ZM143.606 77.3922H142.121C141.999 77.3922 141.898 77.4924 141.898 77.6145C141.898 77.738 141.999 77.8383 142.121 77.8383H143.606C143.728 77.8383 143.828 77.738 143.828 77.6145C143.828 77.4924 143.728 77.3922 143.606 77.3922ZM140.637 77.3922H139.153C139.031 77.3922 138.931 77.4924 138.931 77.6145C138.931 77.738 139.031 77.8383 139.153 77.8383H140.637C140.761 77.8383 140.861 77.738 140.861 77.6145C140.861 77.4924 140.761 77.3922 140.637 77.3922ZM137.67 77.3922H136.186C136.064 77.3922 135.964 77.4924 135.964 77.6145C135.964 77.738 136.064 77.8383 136.186 77.8383H137.67C137.793 77.8383 137.892 77.738 137.892 77.6145C137.892 77.4924 137.793 77.3922 137.67 77.3922ZM134.702 77.3922H133.219C133.095 77.3922 132.996 77.4924 132.996 77.6145C132.996 77.738 133.095 77.8383 133.219 77.8383H134.702C134.826 77.8383 134.925 77.738 134.925 77.6145C134.925 77.4924 134.826 77.3922 134.702 77.3922ZM131.735 77.3922H130.252C130.128 77.3922 130.029 77.4924 130.029 77.6145C130.029 77.738 130.128 77.8383 130.252 77.8383H131.735C131.857 77.8383 131.957 77.738 131.957 77.6145C131.957 77.4924 131.857 77.3922 131.735 77.3922ZM128.768 77.3922H127.283C127.201 77.3922 127.13 77.4357 127.092 77.5011C127.072 77.5346 127.06 77.5738 127.06 77.6145C127.06 77.738 127.161 77.8383 127.283 77.8383H128.768C128.89 77.8383 128.99 77.738 128.99 77.6145C128.99 77.4924 128.89 77.3922 128.768 77.3922ZM125.799 77.3922H124.316C124.193 77.3922 124.093 77.4924 124.093 77.6145C124.093 77.738 124.193 77.8383 124.316 77.8383H125.799C125.923 77.8383 126.023 77.738 126.023 77.6145C126.023 77.4924 125.923 77.3922 125.799 77.3922ZM122.832 77.3922H121.348C121.226 77.3922 121.126 77.4924 121.126 77.6145C121.126 77.738 121.226 77.8383 121.348 77.8383H122.832C122.955 77.8383 123.054 77.738 123.054 77.6145C123.054 77.4924 122.955 77.3922 122.832 77.3922ZM119.865 77.3922H118.381C118.257 77.3922 118.159 77.4924 118.159 77.6145C118.159 77.738 118.257 77.8383 118.381 77.8383H119.865C119.988 77.8383 120.087 77.738 120.087 77.6145C120.087 77.4924 119.988 77.3922 119.865 77.3922ZM116.897 77.3922H115.414C115.29 77.3922 115.191 77.4924 115.191 77.6145C115.191 77.738 115.29 77.8383 115.414 77.8383H116.897C117.019 77.8383 117.12 77.738 117.12 77.6145C117.12 77.4924 117.019 77.3922 116.897 77.3922ZM114.072 77.4459C114.033 77.4125 113.984 77.3922 113.93 77.3922H112.446C112.323 77.3922 112.223 77.4924 112.223 77.6145C112.223 77.7351 112.319 77.8339 112.438 77.8368L112.446 77.8383H113.93C114.052 77.8383 114.152 77.738 114.152 77.6145C114.152 77.5462 114.122 77.4852 114.072 77.4459ZM110.961 77.3922H109.478C109.356 77.3922 109.255 77.4924 109.255 77.6145C109.255 77.738 109.356 77.8383 109.478 77.8383H110.961C111.085 77.8383 111.185 77.738 111.185 77.6145C111.185 77.4924 111.085 77.3922 110.961 77.3922ZM107.994 77.3922H106.51C106.388 77.3922 106.288 77.4924 106.288 77.6145C106.288 77.738 106.388 77.8383 106.51 77.8383H107.994C108.118 77.8383 108.216 77.738 108.216 77.6145C108.216 77.4924 108.118 77.3922 107.994 77.3922Z" fill="#ED7D2B"/>
<path d="M107.959 107.937H94.6194C92.7384 107.937 91.1992 106.398 91.1992 104.517V102.455C91.1992 100.574 92.7384 99.0347 94.6194 99.0347H107.959C109.84 99.0347 111.379 100.574 111.379 102.455V104.517C111.379 106.398 109.84 107.937 107.959 107.937Z" fill="#F5B822"/>
<path d="M191.995 110.64C191.995 110.685 191.994 110.728 191.992 110.772C191.944 112.513 191.735 114.242 191.37 115.935L191.365 115.965L191.363 115.973C191.235 116.567 191.087 117.156 190.92 117.74C190.58 118.939 190.16 120.114 189.663 121.258L189.66 121.266C189.035 122.711 188.288 124.106 187.424 125.434C187.169 125.826 186.905 126.211 186.629 126.591C186.077 127.357 185.481 128.098 184.846 128.81C184.175 129.174 183.494 129.526 182.806 129.865C181.761 130.378 180.696 130.863 179.609 131.316C179.429 131.393 179.247 131.469 179.064 131.543C178.747 131.672 178.429 131.799 178.108 131.922C177.644 132.102 177.178 132.277 176.707 132.447C175.665 132.823 174.603 133.172 173.523 133.496C173.141 133.612 172.756 133.723 172.369 133.83C170.881 134.249 169.36 134.618 167.804 134.937C166.609 135.248 165.396 135.465 164.172 135.587C161.344 136.022 158.411 136.303 155.371 136.428C154.875 136.45 154.375 136.466 153.874 136.478C152.02 135.788 150.235 134.903 148.554 133.83C148.354 133.705 148.156 133.574 147.96 133.442C144.353 131.017 141.255 127.718 139.011 123.65C137.602 121.092 136.63 118.411 136.072 115.694C136.05 115.589 136.028 115.484 136.009 115.378C135.944 115.044 135.886 114.71 135.833 114.374C134.622 106.623 136.715 98.6849 141.541 92.5454C142.697 91.0734 144.01 89.706 145.472 88.4694C146.082 87.9521 146.719 87.458 147.38 86.9901C147.919 86.6051 148.476 86.2403 149.048 85.8916L149.055 85.8887C149.249 85.7695 149.445 85.6533 149.642 85.5399C149.798 85.4498 149.955 85.3612 150.113 85.274C151.411 84.5576 152.742 83.956 154.092 83.4634C155.031 83.119 155.978 82.8299 156.933 82.5915C159.187 82.0306 161.475 81.7574 163.748 81.7589C167.751 81.7618 171.705 82.6177 175.337 84.2495C175.791 84.453 176.242 84.6695 176.687 84.8976C176.87 84.9906 177.051 85.0866 177.231 85.1854C177.689 85.4324 178.14 85.6925 178.583 85.9671C179.272 86.39 179.944 86.8448 180.597 87.3302C180.747 87.4392 180.895 87.5525 181.042 87.6658C181.309 87.8722 181.573 88.0858 181.835 88.3038C182.018 88.4549 182.2 88.6104 182.38 88.7688C182.678 89.0303 182.971 89.2992 183.261 89.5738L183.269 89.5825C184.002 90.2829 184.701 91.0269 185.362 91.8145C185.548 92.0339 185.729 92.2592 185.907 92.4859C186.441 93.1616 186.947 93.8663 187.424 94.6002C187.463 94.6612 187.502 94.7222 187.54 94.7833C187.568 94.8239 187.594 94.8646 187.617 94.9053C187.707 95.0448 187.794 95.1843 187.879 95.3253C188.089 95.6697 188.293 96.0199 188.489 96.3759C189.16 97.5951 189.733 98.8418 190.208 100.106L190.211 100.115C190.868 101.863 191.34 103.644 191.633 105.439C191.917 107.17 192.036 108.912 191.995 110.64Z" fill="#E2810E"/>
<path d="M189.441 115.935L189.436 115.973C189.125 117.777 188.641 119.547 187.988 121.258L187.985 121.266C187.811 121.727 187.624 122.183 187.424 122.634C186.978 123.645 186.473 124.632 185.907 125.587C185.732 125.886 185.55 126.181 185.362 126.472C185.338 126.512 185.312 126.551 185.285 126.591C184.544 127.736 183.718 128.83 182.806 129.865C181.762 130.378 180.696 130.863 179.61 131.316C179.429 131.393 179.248 131.469 179.065 131.543C178.748 131.672 178.43 131.799 178.108 131.922C177.645 132.102 177.178 132.277 176.708 132.447C175.666 132.823 174.604 133.172 173.524 133.496C173.142 133.612 172.757 133.723 172.37 133.83C170.882 134.249 169.361 134.618 167.804 134.937C166.61 135.248 165.396 135.465 164.173 135.587C161.345 136.021 158.411 136.303 155.371 136.428C154.876 136.45 154.376 136.466 153.875 136.478C153.144 136.497 152.406 136.505 151.662 136.505C150.768 136.505 149.868 136.495 148.966 136.475C144.011 134.005 139.728 130.055 136.853 124.84C135.262 121.954 134.228 118.912 133.718 115.836C133.688 115.659 133.66 115.48 133.636 115.301C133.596 115.04 133.561 114.777 133.531 114.514C132.576 106.401 135.202 98.1836 140.751 92.124C142.037 90.7189 143.48 89.4299 145.073 88.2849C145.269 88.1439 145.467 88.0059 145.667 87.8693C146.25 87.4711 146.853 87.0933 147.474 86.7358C147.632 86.6428 147.793 86.5528 147.955 86.4641C148.316 86.2636 148.683 86.0732 149.049 85.8916L149.056 85.8887C149.242 85.7957 149.428 85.7056 149.616 85.6169C149.786 85.5385 149.956 85.46 150.126 85.3844C151.231 84.8918 152.355 84.4762 153.49 84.1362C153.597 84.1042 153.705 84.0723 153.812 84.0418C154.845 83.7439 155.887 83.5085 156.933 83.3341C157.49 83.2396 158.047 83.1641 158.605 83.1059C160.09 82.949 161.576 82.9112 163.053 82.9882C165.433 83.1132 167.783 83.539 170.045 84.2496C170.735 84.4661 171.417 84.7087 172.09 84.9776C172.273 85.0502 172.454 85.1243 172.635 85.2028C173.104 85.4004 173.567 85.6126 174.027 85.8364C174.936 86.281 175.826 86.7765 176.687 87.3215C176.87 87.4348 177.052 87.5525 177.232 87.6746C178.111 88.2558 178.96 88.8894 179.774 89.5738L179.784 89.5825C179.928 89.7031 180.072 89.8267 180.214 89.9516C180.342 90.0635 180.471 90.1783 180.598 90.2931C180.651 90.3425 180.705 90.3919 180.759 90.4428C180.853 90.53 180.948 90.6186 181.042 90.7072C181.573 91.21 182.086 91.7375 182.58 92.2868C183.287 93.0729 183.957 93.9056 184.582 94.7833L184.588 94.7905V94.792L184.589 94.7934C184.616 94.8312 184.643 94.8675 184.668 94.9053C185.265 95.751 185.82 96.6389 186.332 97.566C186.695 98.2257 187.029 98.8941 187.334 99.5684C187.365 99.6352 187.395 99.7021 187.424 99.7689C187.474 99.8808 187.523 99.9942 187.571 100.106L187.576 100.115C187.775 100.581 187.961 101.051 188.134 101.521C188.334 102.066 188.514 102.614 188.678 103.165C188.904 103.919 189.096 104.678 189.254 105.439C189.462 106.436 189.614 107.439 189.712 108.443C189.784 109.175 189.826 109.909 189.84 110.64C189.841 110.685 189.842 110.728 189.842 110.772C189.867 112.508 189.732 114.236 189.441 115.935Z" fill="#FFB93E"/>
<path d="M187.493 110.772C187.493 110.727 187.491 110.683 187.488 110.639C187.478 110.243 187.455 109.847 187.424 109.452C187.317 108.101 187.102 106.76 186.781 105.439C186.705 105.131 186.624 104.825 186.538 104.52C186.111 103.015 185.544 101.541 184.838 100.114L184.833 100.106C184.662 99.7569 184.482 99.4125 184.293 99.0696C183.719 98.0277 183.079 97.0352 182.38 96.0951C182.203 95.8567 182.02 95.6199 181.836 95.3888C181.705 95.2261 181.573 95.0633 181.439 94.9049C181.404 94.8643 181.371 94.8236 181.336 94.7829C181.238 94.6681 181.141 94.5547 181.042 94.4429C180.949 94.3353 180.855 94.2307 180.759 94.1261C180.706 94.0665 180.651 94.0084 180.597 93.9502C180.471 93.8151 180.345 93.68 180.214 93.5477C178.985 92.2762 177.627 91.1399 176.161 90.1532C175.981 90.0312 175.799 89.912 175.616 89.7958C175.503 89.7246 175.391 89.6534 175.276 89.5822L175.262 89.5734C174.417 89.0561 173.541 88.5853 172.634 88.1654C172.454 88.0811 172.273 87.9997 172.089 87.9198C171.064 87.4722 170 87.0886 168.906 86.7718C166.514 86.0801 164.075 85.7401 161.653 85.7459C160.068 85.7503 158.488 85.9014 156.933 86.2007C156.104 86.3591 155.28 86.5597 154.466 86.8023C153.734 87.0188 153.008 87.2702 152.295 87.555H152.294C151.285 87.9561 150.295 88.4226 149.329 88.9559C149.028 89.1215 148.73 89.293 148.438 89.4703C147.623 89.9614 146.843 90.4933 146.096 91.0629C145.493 91.5221 144.912 92.0074 144.357 92.516C144.018 92.8226 143.69 93.1394 143.371 93.4649C140.414 96.47 138.235 100.18 137.03 104.343C136.074 107.646 135.79 111.036 136.162 114.354C136.2 114.699 136.245 115.044 136.299 115.388C136.313 115.484 136.328 115.581 136.344 115.677C136.816 118.53 137.777 121.313 139.214 123.919C141.385 127.856 144.473 131.086 148.197 133.385C148.444 133.538 148.694 133.686 148.947 133.83C150.708 134.837 152.603 135.64 154.601 136.219C154.857 136.293 155.114 136.363 155.371 136.428C158.411 136.303 161.345 136.021 164.173 135.587C161.139 135.893 158.045 135.617 155.028 134.744C154.138 134.487 153.27 134.181 152.426 133.83C152.086 133.689 151.75 133.541 151.419 133.385C146.833 131.232 143.052 127.701 140.558 123.178C139.233 120.773 138.339 118.212 137.887 115.583C137.879 115.535 137.871 115.487 137.864 115.439C137.799 115.048 137.743 114.654 137.698 114.261C137.335 111.116 137.6 107.9 138.505 104.769C139.542 101.181 141.353 97.9507 143.787 95.261C144.13 94.8831 144.484 94.5155 144.851 94.1595C145.058 93.9575 145.271 93.7584 145.486 93.5637C146.243 92.8807 147.045 92.2428 147.891 91.6543C148.588 91.1675 149.316 90.7156 150.07 90.3C150.564 90.0283 151.064 89.774 151.57 89.5386C152.516 89.0968 153.484 88.7205 154.466 88.408C155.28 88.1494 156.104 87.9358 156.933 87.7657C158.26 87.494 159.606 87.3371 160.958 87.2935C163.467 87.2136 165.999 87.5289 168.478 88.2467C169.703 88.6013 170.888 89.0445 172.023 89.5734L172.041 89.5822C173.296 90.1678 174.491 90.8565 175.616 91.6412C175.799 91.7691 175.981 91.8999 176.161 92.0321C177.274 92.856 178.315 93.7759 179.272 94.7829C179.311 94.8236 179.351 94.8643 179.388 94.9049C179.808 95.3525 180.211 95.8161 180.597 96.297C180.749 96.4845 180.895 96.6749 181.042 96.8681C181.317 97.2314 181.581 97.6034 181.836 97.9841C182.023 98.2631 182.206 98.5465 182.38 98.8356C182.578 99.1553 182.767 99.4808 182.949 99.8107C183.002 99.9081 183.056 100.007 183.108 100.106V100.107L183.113 100.114C183.258 100.385 183.396 100.658 183.53 100.934C184.239 102.39 184.794 103.898 185.194 105.439C185.638 107.142 185.891 108.885 185.951 110.639C185.952 110.683 185.954 110.728 185.955 110.772C186.006 112.491 185.869 114.218 185.547 115.935L185.54 115.972C185.403 116.695 185.231 117.414 185.028 118.129C185.019 118.159 185.011 118.19 185.002 118.22C184.7 119.265 184.332 120.278 183.903 121.257L183.899 121.266C183.136 123.007 182.177 124.639 181.042 126.134C180.949 126.256 180.855 126.378 180.759 126.499C180.736 126.529 180.711 126.56 180.686 126.59C180.657 126.628 180.628 126.664 180.597 126.702C180.281 127.093 179.952 127.475 179.609 127.846C179.434 128.042 179.25 128.234 179.064 128.424C177.848 129.664 176.492 130.777 175.012 131.742C174.919 131.804 174.824 131.865 174.73 131.922C174.308 132.191 173.877 132.446 173.436 132.689C172.989 132.936 172.536 133.169 172.076 133.385C171.928 133.456 171.778 133.525 171.627 133.591C170.383 134.151 169.105 134.6 167.804 134.937C169.36 134.617 170.882 134.248 172.37 133.83C172.756 133.722 173.142 133.612 173.524 133.496C174.603 133.172 175.666 132.823 176.707 132.446C176.947 132.275 177.184 132.101 177.418 131.922C177.988 131.487 178.537 131.031 179.064 130.553C179.249 130.386 179.431 130.217 179.609 130.044C179.948 129.72 180.278 129.386 180.597 129.045C180.746 128.885 180.892 128.724 181.036 128.561C181.594 127.93 182.122 127.273 182.614 126.59C183.698 125.092 184.62 123.472 185.362 121.751C185.432 121.592 185.5 121.429 185.567 121.266L185.57 121.257C185.916 120.41 186.218 119.538 186.477 118.648C186.581 118.284 186.679 117.92 186.766 117.555C186.894 117.029 187.006 116.501 187.1 115.972L187.107 115.935C187.154 115.672 187.196 115.407 187.234 115.144C187.317 114.577 187.381 114.009 187.424 113.441C187.494 112.55 187.517 111.659 187.493 110.772Z" fill="#FFA412"/>
<path d="M174.757 115.973L174.752 115.935C174.659 115.288 174.475 114.627 174.201 113.954C174.146 113.815 174.086 113.68 174.026 113.547C173.618 112.651 173.121 111.905 172.534 111.312C172.461 111.24 172.389 111.169 172.313 111.1C172.207 111.004 172.1 110.911 171.989 110.821C171.969 110.805 171.949 110.788 171.928 110.772C171.871 110.727 171.815 110.683 171.757 110.64C171.117 110.16 170.404 109.784 169.616 109.513C168.592 109.16 167.448 108.945 166.188 108.87C164.928 108.791 163.555 108.774 162.073 108.816C161.156 108.844 160.373 108.828 159.723 108.768C159.072 108.708 158.52 108.588 158.068 108.406C157.615 108.225 157.247 107.975 156.964 107.658L156.933 107.621C156.903 107.587 156.872 107.55 156.845 107.514C156.743 107.389 156.65 107.255 156.564 107.111C156.452 106.924 156.352 106.721 156.262 106.5C156.076 106.045 155.971 105.591 155.944 105.142C155.915 104.695 155.983 104.269 156.144 103.865C156.303 103.471 156.556 103.107 156.909 102.772L156.932 102.749L156.933 102.748C157.297 102.406 157.776 102.116 158.372 101.873C159.212 101.531 160.01 101.457 160.764 101.648C160.999 101.706 161.23 101.792 161.458 101.902C162.413 102.37 163.191 103.342 163.791 104.821L169.547 102.485C169.185 101.595 168.756 100.805 168.262 100.115L168.256 100.106C168.067 99.8429 167.87 99.5944 167.662 99.3619C166.908 98.5118 166.058 97.855 165.112 97.3915C164.166 96.9279 163.135 96.6576 162.021 96.5777C160.908 96.4992 159.748 96.6169 158.548 96.9337L158.125 95.8918L157.674 94.7831L156.933 92.958L156.917 92.9187L153.732 94.2135L154.466 96.0197L155.339 98.1703C155.207 98.2386 155.078 98.3084 154.951 98.381C154.786 98.4726 154.624 98.567 154.466 98.6644C153.687 99.1396 153.004 99.6685 152.414 100.253C151.615 101.045 151 101.9 150.572 102.822C150.14 103.745 149.915 104.711 149.893 105.725C149.873 106.739 150.075 107.771 150.5 108.817C150.992 110.026 151.624 110.984 152.397 111.689C152.982 112.223 153.639 112.654 154.366 112.982C154.6 113.088 154.842 113.183 155.091 113.267C155.591 113.437 156.123 113.573 156.682 113.677C156.765 113.693 156.849 113.707 156.933 113.72C157.439 113.804 157.968 113.86 158.52 113.889C159.784 113.957 161.161 113.956 162.646 113.884C163.507 113.835 164.256 113.839 164.891 113.899C165.526 113.957 166.074 114.079 166.536 114.265C166.998 114.451 167.381 114.711 167.688 115.047C167.913 115.293 168.114 115.589 168.287 115.935L168.306 115.973C168.361 116.084 168.413 116.202 168.462 116.326C168.648 116.783 168.74 117.237 168.737 117.69C168.737 117.776 168.733 117.86 168.724 117.944C168.694 118.306 168.596 118.655 168.431 118.989C168.227 119.402 167.922 119.786 167.516 120.137C167.11 120.489 166.595 120.79 165.97 121.044C165.77 121.125 165.566 121.197 165.36 121.258L165.331 121.266C164.988 121.367 164.639 121.438 164.282 121.483C163.699 121.553 163.132 121.496 162.577 121.311C162.535 121.297 162.493 121.282 162.451 121.266L162.428 121.258C161.929 121.064 161.461 120.749 161.022 120.306C160.539 119.822 160.119 119.14 159.763 118.264L154.505 120.4H154.502L154.01 120.601C154.61 122.08 155.364 123.254 156.272 124.119C156.814 124.638 157.388 125.068 157.993 125.409C158.4 125.639 158.82 125.829 159.254 125.979C160.334 126.352 161.463 126.516 162.641 126.467C163.82 126.419 164.984 126.229 166.13 125.89L166.415 126.591L167.617 129.553L170.783 128.267L170.102 126.591L169.288 124.588C170.439 123.991 171.422 123.304 172.243 122.525C172.668 122.124 173.04 121.704 173.361 121.266L173.367 121.258C173.618 120.915 173.838 120.562 174.026 120.197C174.061 120.13 174.095 120.063 174.127 119.993C174.377 119.47 174.56 118.93 174.675 118.37C174.762 117.959 174.81 117.538 174.821 117.106C174.832 116.733 174.81 116.355 174.757 115.973Z" fill="#FFD263"/>
<path d="M92.8848 103.377C92.8848 102.216 93.8261 101.274 94.9871 101.274C96.1483 101.274 97.0897 102.216 97.0897 103.377C97.0897 104.538 96.1483 105.479 94.9871 105.479C93.8261 105.479 92.8848 104.538 92.8848 103.377Z" fill="#FFD263"/>
<path d="M431.848 269.72H32.8872C32.638 269.72 32.4341 269.517 32.4341 269.268V269.113C32.4341 268.864 32.638 268.659 32.8872 268.659H431.848C432.097 268.659 432.3 268.864 432.3 269.113V269.268C432.3 269.517 432.097 269.72 431.848 269.72Z" fill="#2E3552"/>
</svg>
