<svg width="30" height="30" viewBox="0 0 30 30" fill="none" xmlns="http://www.w3.org/2000/svg">
<path d="M15 30C6.69767 30 0 23.3023 0 15C0 6.69767 6.69767 0 15 0C23.3023 0 30 6.69767 30 15C30 23.3023 23.3023 30 15 30ZM15 0.697674C7.11628 0.697674 0.697674 7.11628 0.697674 15C0.697674 22.8837 7.11628 29.3023 15 29.3023C22.8837 29.3023 29.3023 22.8837 29.3023 15C29.3023 7.11628 22.8837 0.697674 15 0.697674Z" fill="#696969"/>
<path d="M14.8606 6.62789C16.6048 6.62789 17.9304 6.97673 18.7676 7.6744C19.6745 8.37208 20.0931 9.34882 20.0931 10.7442C20.0931 12.1395 19.6745 13.1163 18.8373 13.8139C18.0001 14.5116 16.7443 14.8604 15.0699 14.8604H12.349V21.3488H10.9536V6.62789H14.8606ZM12.4187 13.6046H15.4187C16.4652 13.6046 17.3025 13.3256 17.8606 12.8372C18.4187 12.3488 18.6978 11.6511 18.6978 10.6744C18.6978 9.69766 18.4187 8.93022 17.7908 8.51161C17.1629 8.02324 16.2559 7.81394 15.0699 7.81394H12.4187V13.6046Z" fill="#5E5E5E"/>
</svg>
