<svg width="412" height="237" viewBox="0 0 412 237" fill="none" xmlns="http://www.w3.org/2000/svg">
<g clip-path="url(#clip0)">
<path opacity="0.5" d="M102.094 155.214C77.2192 146.624 48.7785 139.353 25.5386 151.697C22.5932 153.262 19.6909 155.231 18.1039 158.162C13.9122 165.873 20.5749 175.873 17.3276 184.024C14.0803 192.174 1.85882 196.277 2.85931 204.984C3.12237 207.26 4.35574 209.32 5.80904 211.096C14.9127 222.212 31.6019 223.337 45.708 220.578C59.8141 217.82 73.6097 212.1 87.9702 212.82C101.77 213.531 114.466 220.147 127.11 225.716C148.427 235.129 173.323 241.883 194.622 232.423C204.381 228.087 212.45 220.703 221.79 215.548C234.378 208.665 248.848 206.012 263.061 207.98C272.548 209.316 281.604 212.678 290.889 214.997C311.977 220.259 333.988 220.087 355.718 219.88C359.763 219.841 363.873 219.794 367.75 218.639C373.49 216.915 378.225 212.945 382.783 209.061C388.773 203.962 395.083 198.359 397.015 190.734C399.296 181.683 394.574 172.063 387.57 165.912C380.567 159.761 371.614 156.4 362.877 153.158C360.721 152.365 358.418 151.559 356.21 152.158C354.761 152.555 353.541 153.52 352.458 154.559C346.257 160.524 341.017 170.615 332.56 168.994C329.542 168.416 327.071 166.317 324.682 164.378C311.925 154.033 294.766 146.046 279.37 151.762C268.111 155.943 260.163 166.679 248.752 170.468C240.636 173.166 231.817 171.998 223.278 172.524C210.858 173.283 198.77 177.67 186.333 177.403C154.619 176.722 128.197 146.413 96.6124 149.301C94.137 149.525 91.4374 150.094 89.9194 152.051" fill="#F5B822" fill-opacity="0.4"/>
<path d="M62.0996 126.383C62.0996 126.383 35.7461 142.284 84.3433 166.774C84.3433 166.774 95.0512 146.904 83.2134 130.702C80.9162 127.545 77.5404 125.34 73.7254 124.505C69.9104 123.669 65.9213 124.261 62.5136 126.168L62.0996 126.383Z" fill="#F5B822"/>
<path d="M62.4146 126.052C62.4146 126.052 84.9774 143.292 84.3478 166.761" stroke="#535461" stroke-miterlimit="10"/>
<path d="M395.518 113.138C400.857 132.65 378.083 188.239 378.083 188.239C378.083 188.239 330.163 151.977 324.819 132.465C323.422 127.787 322.974 122.876 323.502 118.022C324.03 113.169 325.523 108.469 327.894 104.201C330.265 99.9317 333.466 96.1797 337.309 93.1649C341.151 90.1501 345.558 87.9333 350.27 86.6449C354.982 85.3564 359.904 85.0223 364.747 85.6621C369.589 86.3019 374.256 87.9028 378.471 90.3706C382.686 92.8384 386.365 96.1233 389.292 100.032C392.218 103.942 394.334 108.396 395.514 113.134L395.518 113.138Z" fill="#F5B822"/>
<path opacity="0.1" d="M395.518 113.138C400.857 132.65 378.083 188.239 378.083 188.239C378.083 188.239 330.163 151.977 324.819 132.465C323.422 127.787 322.974 122.876 323.502 118.022C324.03 113.169 325.523 108.469 327.894 104.201C330.265 99.9317 333.466 96.1797 337.309 93.1649C341.151 90.1501 345.558 87.9333 350.27 86.6449C354.982 85.3564 359.904 85.0223 364.747 85.6621C369.589 86.3019 374.256 87.9028 378.471 90.3706C382.686 92.8384 386.365 96.1233 389.292 100.032C392.218 103.942 394.334 108.396 395.514 113.134L395.518 113.138Z" fill="#FFA412"/>
<path d="M350.694 87.583C350.694 87.583 380.524 132.59 378.294 188.347" stroke="#535461" stroke-miterlimit="10"/>
<path d="M403.129 148.801C403.129 148.801 376.082 134.094 379.506 188.381C379.506 188.381 402.069 187.575 410.077 169.179C411.643 165.601 411.841 161.574 410.633 157.86C409.426 154.146 406.897 151.004 403.526 149.029L403.129 148.801Z" fill="#F5B822"/>
<path d="M403.574 148.896C403.574 148.896 400.081 177.076 379.506 188.381" stroke="#535461" stroke-miterlimit="10"/>
<path d="M7.1415 142.749C7.1415 142.749 -19.2249 158.645 29.3766 183.123C29.3766 183.123 40.0844 163.253 28.2467 147.051C25.9495 143.894 22.5737 141.689 18.7587 140.853C14.9437 140.018 10.9545 140.609 7.54687 142.516L7.1415 142.749Z" fill="#F5B822"/>
<path d="M7.44336 142.417C7.44336 142.417 30.0062 159.658 29.3766 183.127" stroke="#535461" stroke-miterlimit="10"/>
<path d="M35.6599 61.071C35.6599 61.071 24.3526 84.4495 31.7786 112.117C39.2047 139.784 36.8458 172.89 29.4413 181.08" stroke="#535461" stroke-width="2" stroke-miterlimit="10"/>
<path d="M35.6599 64.1915C37.3819 64.1915 38.7778 62.7963 38.7778 61.0752C38.7778 59.3542 37.3819 57.959 35.6599 57.959C33.9379 57.959 32.542 59.3542 32.542 61.0752C32.542 62.7963 33.9379 64.1915 35.6599 64.1915Z" fill="#FFA412"/>
<path d="M30.959 76.1092C30.959 76.1092 42.6803 78.2212 45.7982 73.9541" stroke="#535461" stroke-width="2" stroke-miterlimit="10"/>
<path d="M29.8467 82.8978C29.8467 82.8978 22.7958 75.1006 23.1839 70.4241" stroke="#535461" stroke-width="2" stroke-miterlimit="10"/>
<path d="M29.2471 97.1817C29.2471 97.1817 35.6597 98.8713 41.5117 86.4062" stroke="#535461" stroke-width="2" stroke-miterlimit="10"/>
<path d="M30.9593 107.57C30.9593 107.57 15.0031 97.307 16.9481 90.6865" stroke="#535461" stroke-width="2" stroke-miterlimit="10"/>
<path d="M33.4517 119.315C33.4517 119.315 44.6296 109.401 43.4609 99.6472" stroke="#535461" stroke-width="2" stroke-miterlimit="10"/>
<path d="M34.6679 126.219C34.6679 126.219 20.4368 122.245 20.868 116.013" stroke="#535461" stroke-width="2" stroke-miterlimit="10"/>
<path d="M35.6597 134.448C35.6597 134.448 44.6253 126.146 45.794 121.086" stroke="#535461" stroke-width="2" stroke-miterlimit="10"/>
<path d="M36.2853 148.564C36.2853 148.564 27.0868 137.831 26.6943 132.379" stroke="#535461" stroke-width="2" stroke-miterlimit="10"/>
<path d="M36.2852 157.447C36.2852 157.447 46.579 146.016 47.3553 140.564" stroke="#535461" stroke-width="2" stroke-miterlimit="10"/>
<path d="M23.1838 74.3207C24.9058 74.3207 26.3018 72.9255 26.3018 71.2044C26.3018 69.4833 24.9058 68.0881 23.1838 68.0881C21.4619 68.0881 20.0659 69.4833 20.0659 71.2044C20.0659 72.9255 21.4619 74.3207 23.1838 74.3207Z" fill="#FFA412"/>
<path d="M19.678 119.129C21.3999 119.129 22.7959 117.734 22.7959 116.013C22.7959 114.292 21.3999 112.897 19.678 112.897C17.956 112.897 16.5601 114.292 16.5601 116.013C16.5601 117.734 17.956 119.129 19.678 119.129Z" fill="#FFA412"/>
<path d="M16.948 93.8026C18.67 93.8026 20.0659 92.4074 20.0659 90.6863C20.0659 88.9653 18.67 87.5701 16.948 87.5701C15.226 87.5701 13.8301 88.9653 13.8301 90.6863C13.8301 92.4074 15.226 93.8026 16.948 93.8026Z" fill="#FFA412"/>
<path d="M45.7981 77.0489C47.5201 77.0489 48.916 75.6537 48.916 73.9327C48.916 72.2116 47.5201 70.8164 45.7981 70.8164C44.0761 70.8164 42.6802 72.2116 42.6802 73.9327C42.6802 75.6537 44.0761 77.0489 45.7981 77.0489Z" fill="#FFA412"/>
<path d="M45.7981 124.974C47.5201 124.974 48.916 123.579 48.916 121.857C48.916 120.136 47.5201 118.741 45.7981 118.741C44.0761 118.741 42.6802 120.136 42.6802 121.857C42.6802 123.579 44.0761 124.974 45.7981 124.974Z" fill="#FFA412"/>
<path d="M40.7312 89.5182C42.4532 89.5182 43.8491 88.123 43.8491 86.4019C43.8491 84.6808 42.4532 83.2856 40.7312 83.2856C39.0092 83.2856 37.6133 84.6808 37.6133 86.4019C37.6133 88.123 39.0092 89.5182 40.7312 89.5182Z" fill="#FFA412"/>
<path d="M46.967 145.628C48.689 145.628 50.0849 144.233 50.0849 142.512C50.0849 140.791 48.689 139.396 46.967 139.396C45.2451 139.396 43.8491 140.791 43.8491 142.512C43.8491 144.233 45.2451 145.628 46.967 145.628Z" fill="#F5B822"/>
<path d="M25.9138 137.443C27.6358 137.443 29.0317 136.048 29.0317 134.327C29.0317 132.606 27.6358 131.211 25.9138 131.211C24.1918 131.211 22.7959 132.606 22.7959 134.327C22.7959 136.048 24.1918 137.443 25.9138 137.443Z" fill="#FFA412"/>
<path d="M43.8489 102.764C45.5709 102.764 46.9668 101.368 46.9668 99.6473C46.9668 97.9262 45.5709 96.531 43.8489 96.531C42.1269 96.531 40.731 97.9262 40.731 99.6473C40.731 101.368 42.1269 102.764 43.8489 102.764Z" fill="#FFA412"/>
</g>
<g clip-path="url(#clip1)">
<path d="M225.291 114.822C225.623 114.354 226.06 113.97 226.567 113.702C227.073 113.433 227.636 113.286 228.209 113.274C228.782 113.261 229.35 113.383 229.868 113.629C230.386 113.876 230.839 114.24 231.192 114.693L243.56 110.483L241.845 117.061L230.363 120.05C229.644 120.538 228.777 120.757 227.913 120.668C227.049 120.579 226.244 120.189 225.639 119.565C225.034 118.941 224.667 118.124 224.604 117.257C224.54 116.39 224.783 115.528 225.291 114.822Z" fill="#FFB8B8"/>
<path d="M322.437 206.234C323.349 196.404 325.866 186.79 329.889 177.777C331.01 175.269 332.244 172.816 333.591 170.418C333.937 169.801 332.99 169.247 332.644 169.864C327.746 178.597 324.315 188.077 322.487 197.925C321.979 200.675 321.596 203.445 321.341 206.234C321.276 206.937 322.373 206.933 322.437 206.234Z" fill="#E6E6E6"/>
<path d="M336.247 172.179C340.083 172.179 343.193 169.065 343.193 165.224C343.193 161.383 340.083 158.269 336.247 158.269C332.411 158.269 329.302 161.383 329.302 165.224C329.302 169.065 332.411 172.179 336.247 172.179Z" fill="#E6E6E6"/>
<path d="M323.148 206.418C323.739 200.041 325.372 193.804 327.982 187.957C328.709 186.33 329.51 184.739 330.384 183.183C330.428 183.102 330.438 183.007 330.413 182.918C330.388 182.829 330.33 182.753 330.25 182.706C330.171 182.66 330.076 182.646 329.986 182.668C329.897 182.69 329.819 182.745 329.77 182.824C326.592 188.489 324.366 194.639 323.18 201.028C322.85 202.812 322.602 204.609 322.436 206.418C322.394 206.875 323.106 206.872 323.148 206.418H323.148Z" fill="#E6E6E6"/>
<path d="M332.107 184.326C334.595 184.326 336.613 182.306 336.613 179.814C336.613 177.321 334.595 175.301 332.107 175.301C329.618 175.301 327.601 177.321 327.601 179.814C327.601 182.306 329.618 184.326 332.107 184.326Z" fill="#E6E6E6"/>
<path d="M322.25 205.992C318.799 200.6 316.256 194.677 314.723 188.459C314.297 186.728 313.951 184.98 313.685 183.215C313.669 183.124 313.619 183.042 313.545 182.988C313.47 182.933 313.378 182.909 313.286 182.921C313.195 182.934 313.112 182.981 313.054 183.054C312.997 183.126 312.97 183.218 312.979 183.31C313.954 189.734 315.976 195.955 318.965 201.723C319.8 203.332 320.708 204.902 321.689 206.431C321.936 206.816 322.495 206.376 322.25 205.992V205.992Z" fill="#E6E6E6"/>
<path d="M312.974 184.009C315.462 184.009 317.48 181.989 317.48 179.497C317.48 177.005 315.462 174.985 312.974 174.985C310.485 174.985 308.468 177.005 308.468 179.497C308.468 181.989 310.485 184.009 312.974 184.009Z" fill="#E6E6E6"/>
<path d="M286.203 140.927C286.499 140.478 286.693 139.969 286.771 139.437C286.85 138.905 286.811 138.361 286.657 137.846C286.503 137.33 286.238 136.855 285.88 136.453C285.523 136.051 285.082 135.732 284.588 135.519L285.535 122.472L279.613 125.793L279.621 137.674C279.319 138.528 279.34 139.463 279.681 140.303C280.022 141.142 280.658 141.827 281.469 142.228C282.281 142.629 283.211 142.718 284.083 142.479C284.956 142.239 285.71 141.687 286.203 140.927V140.927Z" fill="#FFB8B8"/>
<path d="M284.73 90.2099L286.349 131.729L279.769 131.363L278.307 87.8005L279.695 87.1466C280.223 86.8978 280.804 86.7838 281.387 86.8148C281.969 86.8458 282.535 87.0208 283.034 87.3242C283.532 87.6275 283.948 88.0499 284.244 88.5534C284.54 89.057 284.707 89.6261 284.73 90.2099Z" fill="#7299FF"/>
<path d="M264.38 202.321L259.899 202.32L257.767 185.01L264.381 185.01L264.38 202.321Z" fill="#FFB8B8"/>
<path d="M256.698 201.038H265.341V206.488H251.256C251.256 205.772 251.397 205.064 251.67 204.402C251.944 203.741 252.344 203.141 252.85 202.634C253.355 202.128 253.955 201.727 254.615 201.453C255.276 201.179 255.983 201.038 256.698 201.038Z" fill="#2F2E41"/>
<path d="M301.668 196.957L297.601 198.843L288.403 184.031L294.406 181.249L301.668 196.957Z" fill="#FFB8B8"/>
<path d="M294.158 199.026L302.002 195.39L304.288 200.335L291.506 206.261C290.9 204.949 290.838 203.45 291.336 202.093C291.833 200.737 292.848 199.633 294.158 199.026Z" fill="#2F2E41"/>
<path d="M253.739 145.827L258.361 198.646L264.575 197.914L269.168 149.666L294.551 195.718L301.131 193.887C301.131 193.887 279.952 130.448 278.307 125.14C276.504 119.321 262.223 117.086 262.223 117.086L261.674 116.537C255.538 124.809 253.08 135.543 253.739 145.827Z" fill="#2F2E41"/>
<path d="M278.362 82.5644C283.32 82.5644 287.34 78.5389 287.34 73.5733C287.34 68.6077 283.32 64.5823 278.362 64.5823C273.403 64.5823 269.383 68.6077 269.383 73.5733C269.383 78.5389 273.403 82.5644 278.362 82.5644Z" fill="#FFB8B8"/>
<path d="M283.999 90.9217L277.759 123.491C277.759 123.491 268.276 121.595 264.899 119.31C263.561 118.402 262.347 117.465 261.324 116.616C261.123 116.451 260.932 116.287 260.746 116.129C259.057 114.683 258.019 113.607 258.019 113.607C258.019 113.607 258.56 110.953 259.222 107.812C259.96 104.294 260.856 100.161 261.313 98.4737C262.318 94.7727 265.769 90.4604 268.459 87.5246C269.433 86.4599 270.678 85.6807 272.061 85.2706C273.444 84.8604 274.912 84.8348 276.308 85.1964L281.177 86.4556C282.126 86.7009 282.947 87.2993 283.471 88.129C283.995 88.9588 284.184 89.9574 283.999 90.9217Z" fill="#7299FF"/>
<path opacity="0.2" d="M268.909 105.147C268.909 105.147 265.553 112.132 260.746 116.129C259.057 114.683 258.019 113.607 258.019 113.607C258.019 113.607 258.56 110.953 259.222 107.812C263.25 105.681 267.403 104.338 268.909 105.147Z" fill="black"/>
<path d="M274.86 92.3619C274.528 92.1927 274.182 92.0548 273.825 91.9502C273.096 91.7502 272.329 91.7344 271.592 91.9044C270.856 92.0743 270.173 92.4247 269.605 92.924L249.88 107.392L234.193 112.676L237.027 119.39L260.414 113.671L275.924 99.8673C276.458 99.3547 276.862 98.7222 277.104 98.0222C277.345 97.3222 277.417 96.5747 277.313 95.8414C277.209 95.1082 276.932 94.4102 276.506 93.8052C276.079 93.2002 275.515 92.7055 274.86 92.3619Z" fill="#7299FF"/>
<path d="M278.893 82.4814C280.171 80.5661 281.179 77.9101 279.772 76.0877C278.384 74.2888 275.644 74.5538 273.517 73.7578C270.555 72.6491 268.837 69.1639 269.373 66.0427C269.909 62.9214 272.411 60.334 275.391 59.2753C278.372 58.2167 281.733 58.561 284.652 59.7801C288.245 61.2809 291.327 64.184 292.62 67.8615C293.912 71.5391 293.221 75.9546 290.54 78.7812C287.665 81.8117 283.154 82.6193 278.98 82.5703" fill="#2F2E41"/>
<path d="M292.992 71.8802C293.358 73.9269 295.6 75.0894 297.66 75.3449C299.721 75.6004 301.852 75.2727 303.858 75.8094C307.395 76.7555 309.727 80.1613 311.011 83.594C312.295 87.0268 312.864 90.7318 314.532 93.9946C316.2 97.2575 319.434 100.134 323.082 99.8289C322.368 101.631 321.115 103.168 319.496 104.23C317.877 105.293 315.97 105.829 314.035 105.766C312.1 105.704 310.232 105.045 308.685 103.879C307.138 102.714 305.988 101.099 305.391 99.2544C304.051 95.1117 305.59 90.1712 303.246 86.503C301.949 84.4731 299.71 83.2791 297.551 82.2152C295.392 81.1514 293.126 80.0594 291.678 78.1344C290.231 76.2095 289.941 73.1695 291.725 71.5522" fill="#2F2E41"/>
<path d="M336.713 206.681H219.629C219.513 206.681 219.402 206.635 219.321 206.553C219.239 206.471 219.193 206.36 219.193 206.245C219.193 206.129 219.239 206.018 219.321 205.936C219.402 205.855 219.513 205.809 219.629 205.809H336.713C336.828 205.809 336.939 205.855 337.021 205.936C337.102 206.018 337.148 206.129 337.148 206.245C337.148 206.36 337.102 206.471 337.021 206.553C336.939 206.635 336.828 206.681 336.713 206.681Z" fill="#3F3D56"/>
<path d="M194.879 206.681H77.7941C77.6787 206.681 77.568 206.635 77.4864 206.553C77.4047 206.471 77.3589 206.36 77.3589 206.245C77.3589 206.129 77.4047 206.018 77.4864 205.936C77.568 205.855 77.6787 205.809 77.7941 205.809H194.879C194.994 205.809 195.105 205.855 195.186 205.936C195.268 206.018 195.314 206.129 195.314 206.245C195.314 206.36 195.268 206.471 195.186 206.553C195.105 206.635 194.994 206.681 194.879 206.681Z" fill="#3F3D56"/>
<path d="M152.59 201.918L156.875 200.601L153.842 183.426L147.519 185.369L152.59 201.918Z" fill="#A0616A"/>
<path d="M166.358 202.046L152.893 206.184L151.297 200.974L159.559 198.435C160.939 198.011 162.431 198.153 163.706 198.83C164.981 199.507 165.935 200.664 166.358 202.046Z" fill="#2F2E41"/>
<path d="M114.573 202.017H119.055L121.187 184.706L114.573 184.706L114.573 202.017Z" fill="#A0616A"/>
<path d="M127.698 206.183L113.613 206.184L113.613 200.734L122.256 200.734C123.699 200.734 125.084 201.308 126.104 202.33C127.125 203.352 127.698 204.738 127.698 206.183Z" fill="#2F2E41"/>
<path d="M115.714 144.515C115.346 144.192 115.053 143.792 114.856 143.343C114.659 142.894 114.563 142.407 114.574 141.917C114.585 141.427 114.703 140.945 114.92 140.506C115.137 140.066 115.448 139.68 115.83 139.374L119.305 95.5571L126.372 97.3251L120.714 140.067C121.185 140.744 121.391 141.571 121.294 142.391C121.197 143.211 120.803 143.966 120.187 144.515C119.571 145.063 118.775 145.366 117.951 145.366C117.126 145.366 116.331 145.063 115.714 144.515Z" fill="#A0616A"/>
<path d="M132.424 78.9288C137.383 78.9288 141.403 74.9034 141.403 69.9378C141.403 64.9722 137.383 60.9468 132.424 60.9468C127.466 60.9468 123.446 64.9722 123.446 69.9378C123.446 74.9034 127.466 78.9288 132.424 78.9288Z" fill="#A0616A"/>
<path d="M120.16 96.4266C118.027 93.4933 117.961 89.4533 120.259 86.6475C121.759 84.8165 124.268 83.3513 128.457 83.3513C139.622 83.3513 143.857 92.2189 143.857 92.2189C143.857 92.2189 148.477 100.701 145.782 108.412C143.087 116.123 143.087 116.894 143.087 116.894L125.377 115.352C125.377 115.352 128.365 107.706 120.16 96.4266Z" fill="#CCCCCC"/>
<path d="M114.7 104.102L118.515 91.6023C118.77 90.7653 119.206 89.9948 119.792 89.3451C120.378 88.6954 121.099 88.1824 121.904 87.8424C122.709 87.5024 123.579 87.3437 124.453 87.3775C125.326 87.4113 126.181 87.6367 126.958 88.0379C128.306 88.7369 129.338 89.9229 129.844 91.3554C130.351 92.788 130.295 94.36 129.687 95.7526L124.837 106.814L114.7 104.102Z" fill="#CCCCCC"/>
<path d="M142.702 114.966L157.717 192.846L149.632 195.159L129.997 143.882L121.142 196.316L112.672 197.473C112.672 197.473 108.957 128.096 125.377 115.352L142.702 114.966Z" fill="#2F2E41"/>
<path d="M162.883 106.882C162.753 107.037 162.635 107.203 162.531 107.376L144.423 108.255L140.937 97.5957L134.882 100.477L140.58 116.354L162.975 111.968C163.501 112.544 164.19 112.945 164.949 113.119C165.709 113.293 166.503 113.231 167.227 112.941C167.95 112.652 168.569 112.149 169 111.499C169.431 110.849 169.655 110.084 169.64 109.303C169.626 108.523 169.375 107.766 168.921 107.132C168.467 106.499 167.83 106.018 167.097 105.756C166.363 105.493 165.567 105.46 164.814 105.661C164.062 105.862 163.388 106.288 162.883 106.882V106.882Z" fill="#A0616A"/>
<path d="M132.155 93.3386C132.053 92.4693 132.142 91.5882 132.418 90.7575C132.693 89.9269 133.147 89.1669 133.748 88.5313C134.349 87.8957 135.082 87.4001 135.895 87.0794C136.708 86.7587 137.582 86.6208 138.454 86.6755C139.969 86.7728 141.39 87.4433 142.429 88.551C143.468 89.6587 144.048 91.1207 144.05 92.6405V104.722L133.68 106.319L132.155 93.3386Z" fill="#CCCCCC"/>
<path d="M134.398 79.0103C133.051 79.0044 132.011 77.5837 132.072 76.2355C132.132 74.8874 133.036 73.7013 134.125 72.9069C135.215 72.1125 136.492 71.6286 137.707 71.0446C138.922 70.4605 140.126 69.732 140.876 68.6108C141.329 67.8771 141.6 67.045 141.665 66.1847C141.73 65.3245 141.588 64.4611 141.25 63.6673C140.552 62.0797 139.354 60.765 137.839 59.9245C135.584 58.6156 132.923 58.1944 130.375 58.7429C127.857 59.2961 124.104 60.8277 122.629 62.9448L121.091 67.1391C119.523 69.0266 120.737 71.8297 121.7 74.087C122.664 76.3443 124.715 78.0427 127.031 78.8501C129.379 79.606 131.894 79.6815 134.284 79.0679" fill="#2F2E41"/>
<path d="M126.193 65.0412C125.532 63.9799 124.386 63.3049 123.201 62.9087C121.828 62.4498 120.368 62.3143 118.934 62.5129C117.501 62.7115 116.132 63.2387 114.936 64.0535C113.739 64.8684 112.746 65.9489 112.034 67.2108C111.323 68.4728 110.912 69.8822 110.833 71.3293C110.707 73.6408 111.43 75.9012 111.855 78.1767C112.28 80.4522 112.364 82.9655 111.111 84.9109C110.157 86.3927 108.566 87.3256 106.995 88.1223C105.686 88.7862 104.27 89.4093 102.808 89.277C101.347 89.1447 99.8776 87.9855 99.9164 86.5164C99.4271 87.5697 99.0968 88.69 98.9361 89.8405C98.8333 90.9957 99.1177 92.2423 99.9509 93.0479C101.162 94.2188 103.081 94.1332 104.745 93.8805C108.349 93.3336 111.997 92.3081 114.844 90.0294C117.691 87.7506 119.58 83.9984 118.83 80.4269C118.517 78.935 117.781 77.573 117.186 76.1696C116.591 74.7663 116.127 73.2312 116.4 71.7314C116.562 70.9588 116.891 70.231 117.364 69.5997C117.838 68.9683 118.444 68.4487 119.139 68.0774C120.546 67.3448 122.156 67.1003 123.717 67.3822C124.74 67.5504 126.018 67.8115 126.625 66.9695C126.785 66.7028 126.868 66.3959 126.862 66.0844C126.855 65.7729 126.761 65.4695 126.59 65.2093C126.24 64.6945 125.794 64.2521 125.277 63.9062" fill="#2F2E41"/>
</g>
<path d="M188.398 126.032C213.625 132.8 239.563 117.837 246.332 92.6093C253.101 67.382 238.137 41.4441 212.91 34.6754C187.682 27.9068 161.744 42.8705 154.976 68.0978C148.207 93.3252 163.171 119.263 188.398 126.032Z" fill="#5E5E5E"/>
<path opacity="0.1" d="M190.113 119.636C211.809 125.457 234.116 112.589 239.937 90.8931C245.758 69.1976 232.889 46.891 211.193 41.07C189.498 35.2489 167.191 48.1177 161.37 69.8132C155.549 91.5087 168.418 113.815 190.113 119.636Z" fill="black"/>
<path d="M192.552 103.029L194.086 97.3117C191.211 96.4798 188.494 94.6583 187.13 92.7752L189.343 89.3033C190.999 91.4125 193.284 92.9395 195.866 93.6626C199.404 94.6119 202.419 92.9327 203.285 89.7061C204.12 86.5924 202.693 84.1464 199.461 81.4586C194.986 77.8305 192.545 74.384 193.866 69.4592C195.127 64.7604 199.024 61.9829 203.836 62.3639L205.371 56.6463L208.46 57.4752L206.987 62.9664C209.282 63.616 211.345 64.9062 212.933 66.6858L210.685 70.0878C209.176 68.3266 207.166 67.0674 204.923 66.4784C201.086 65.4489 198.942 67.6651 198.334 69.9296C197.544 72.8733 198.993 74.8398 202.782 78.0412C207.277 81.7958 209.078 85.4347 207.726 90.4729C206.526 94.945 202.662 98.399 197.271 97.9837L195.691 103.872L192.552 103.029Z" fill="#F5B822"/>
<defs>
<clipPath id="clip0">
<rect width="411.409" height="237" fill="white"/>
</clipPath>
<clipPath id="clip1">
<rect width="265.834" height="175.113" fill="white" transform="translate(77.3589 31.6467)"/>
</clipPath>
</defs>
</svg>
