<svg width="16" height="15" viewBox="0 0 16 15" fill="none" xmlns="http://www.w3.org/2000/svg">
<g clip-path="url(#clip0)">
<path d="M3.6107 4.27346H3.8607V4.02346V2.57918L3.8607 2.32918H3.6107C1.48674 2.32918 -0.25 4.06592 -0.25 6.18988L-0.25 9.80058C-0.25 11.9245 1.48674 13.6613 3.6107 13.6613H7.65469H7.90469V13.4113V11.967V11.717H7.65469H3.6107C2.55724 11.717 1.69428 10.854 1.69428 9.80058L1.69428 6.18988C1.69428 5.13642 2.55724 4.27346 3.6107 4.27346Z" fill="#5E5E5E" stroke="#5E5E5E" stroke-width="0.5"/>
<path d="M6.61032 15V15.5048L7.01183 15.1989L10.0448 12.888L10.3058 12.6892L10.0448 12.4903L7.01183 10.1794L6.61032 9.87353V10.3783V15Z" fill="#5E5E5E" stroke="#5E5E5E" stroke-width="0.5"/>
<path d="M11.5543 11.717H11.3043V11.967V13.4113V13.6613H11.5543C13.6782 13.6613 15.415 11.9245 15.415 9.80058V6.18988C15.415 4.06592 13.6782 2.32918 11.5543 2.32918H7.22144H6.97144V2.57918V4.02346V4.27346H7.22144H11.5543C12.6077 4.27346 13.4707 5.13642 13.4707 6.18988V9.80058C13.4707 10.854 12.6077 11.717 11.5543 11.717Z" fill="#5E5E5E" stroke="#5E5E5E" stroke-width="0.5"/>
<path d="M8.15309 5.81103L8.5546 6.11694V5.61217V0.990469V0.485697L8.15309 0.791611L5.1201 3.10246L4.85909 3.30132L5.1201 3.50018L8.15309 5.81103Z" fill="#5E5E5E" stroke="#5E5E5E" stroke-width="0.5"/>
</g>
<defs>
<clipPath id="clip0">
<rect width="14.0095" height="15.1649" fill="white" transform="translate(0 15) rotate(-90)"/>
</clipPath>
</defs>
</svg>
