<svg width="67" height="67" viewBox="0 0 67 67" fill="none" xmlns="http://www.w3.org/2000/svg">
<path d="M33.5 67C52.0015 67 67 52.0015 67 33.5C67 14.9985 52.0015 0 33.5 0C14.9985 0 0 14.9985 0 33.5C0 52.0015 14.9985 67 33.5 67Z" fill="url(#paint0_linear)"/>
<path d="M14 24.9016V50.5508C14 51.5982 14.8525 52.4507 15.8999 52.4507H50.5495C51.5969 52.4507 52.4494 51.5982 52.4494 50.5508V24.9016H14Z" fill="white"/>
<path d="M50.5373 17.7525H15.8999C14.8525 17.7525 14 18.605 14 19.6524V24.9869H52.4372V19.6524C52.4372 18.605 51.5847 17.7525 50.5373 17.7525Z" fill="#FF7058"/>
<path d="M39.7471 28.7258H35.2773V33.1956H39.7471V28.7258Z" fill="#E6E9EE"/>
<path d="M48.3232 28.7258H43.8535V33.1956H48.3232V28.7258Z" fill="#E6E9EE"/>
<path d="M22.5869 36.4108H18.1172V40.8806H22.5869V36.4108Z" fill="#E6E9EE"/>
<path d="M31.1611 36.4108H26.6914V40.8806H31.1611V36.4108Z" fill="#E6E9EE"/>
<path d="M39.7471 36.4109H35.2773V40.8806H39.7471V36.4109Z" fill="#FF7058"/>
<path d="M48.3232 36.4108H43.8535V40.8806H48.3232V36.4108Z" fill="#E6E9EE"/>
<path d="M22.5869 44.0837H18.1172V48.5534H22.5869V44.0837Z" fill="#E6E9EE"/>
<path d="M31.1611 44.0837H26.6914V48.5534H31.1611V44.0837Z" fill="#E6E9EE"/>
<path d="M46.0928 23.0504C47.0211 23.0504 47.7735 22.2979 47.7735 21.3697C47.7735 20.4414 47.0211 19.6889 46.0928 19.6889C45.1646 19.6889 44.4121 20.4414 44.4121 21.3697C44.4121 22.2979 45.1646 23.0504 46.0928 23.0504Z" fill="#FFD05B"/>
<path d="M37.5069 23.0504C38.4351 23.0504 39.1876 22.2979 39.1876 21.3697C39.1876 20.4414 38.4351 19.6889 37.5069 19.6889C36.5787 19.6889 35.8262 20.4414 35.8262 21.3697C35.8262 22.2979 36.5787 23.0504 37.5069 23.0504Z" fill="#FFD05B"/>
<path d="M28.9327 23.0504C29.8609 23.0504 30.6134 22.2979 30.6134 21.3697C30.6134 20.4414 29.8609 19.6889 28.9327 19.6889C28.0044 19.6889 27.252 20.4414 27.252 21.3697C27.252 22.2979 28.0044 23.0504 28.9327 23.0504Z" fill="#FFD05B"/>
<path d="M20.3448 23.0504C21.273 23.0504 22.0255 22.2979 22.0255 21.3697C22.0255 20.4414 21.273 19.6889 20.3448 19.6889C19.4165 19.6889 18.6641 20.4414 18.6641 21.3697C18.6641 22.2979 19.4165 23.0504 20.3448 23.0504Z" fill="#FFD05B"/>
<path d="M46.0917 21.0895C45.7264 21.0895 45.4219 20.7972 45.4219 20.4197V15.6699C45.4219 15.3045 45.7142 15 46.0917 15C46.4571 15 46.7616 15.2923 46.7616 15.6699V20.4197C46.7494 20.7851 46.4571 21.0895 46.0917 21.0895Z" fill="#324A5E"/>
<path d="M37.5058 21.0895C37.1404 21.0895 36.8359 20.7972 36.8359 20.4197V15.6699C36.8359 15.3045 37.1282 15 37.5058 15C37.8712 15 38.1756 15.2923 38.1756 15.6699V20.4197C38.1756 20.7851 37.8712 21.0895 37.5058 21.0895Z" fill="#324A5E"/>
<path d="M28.9316 21.0895C28.5662 21.0895 28.2617 20.7972 28.2617 20.4197V15.6699C28.2617 15.3045 28.554 15 28.9316 15C29.2969 15 29.6014 15.2923 29.6014 15.6699V20.4197C29.5892 20.7851 29.2969 21.0895 28.9316 21.0895Z" fill="#324A5E"/>
<path d="M20.3456 21.0895C19.9803 21.0895 19.6758 20.7972 19.6758 20.4197V15.6699C19.6758 15.3045 19.9681 15 20.3456 15C20.711 15 21.0155 15.2923 21.0155 15.6699V20.4197C21.0155 20.7851 20.711 21.0895 20.3456 21.0895Z" fill="#324A5E"/>
<defs>
<linearGradient id="paint0_linear" x1="0" y1="34" x2="69.5" y2="34" gradientUnits="userSpaceOnUse">
<stop stop-color="#F5B822"/>
<stop offset="1" stop-color="#FFD263"/>
</linearGradient>
</defs>
</svg>
