<svg width="7" height="14" viewBox="0 0 7 14" fill="none" xmlns="http://www.w3.org/2000/svg">
<path d="M1.32901 13.7491C1.46772 13.7495 1.60477 13.7189 1.7301 13.6595C1.85543 13.6 1.96584 13.5132 2.05323 13.4055L6.5378 7.83461C6.67437 7.66847 6.74902 7.46008 6.74902 7.24502C6.74902 7.02996 6.67437 6.82157 6.5378 6.65543L1.89539 1.08453C1.73779 0.89492 1.51132 0.77568 1.2658 0.753044C1.02029 0.730408 0.775836 0.806229 0.586224 0.963829C0.396612 1.12143 0.277372 1.3479 0.254736 1.59341C0.2321 1.83893 0.307921 2.08338 0.46552 2.27299L4.61584 7.24966L0.604794 12.2263C0.491256 12.3626 0.419134 12.5286 0.396962 12.7046C0.37479 12.8806 0.403496 13.0592 0.479684 13.2194C0.555871 13.3796 0.676351 13.5146 0.826868 13.6085C0.977385 13.7023 1.15164 13.7511 1.32901 13.7491Z" fill="#5E5E5E"/>
</svg>
