<svg width="829" height="484" viewBox="0 0 829 484" fill="none" xmlns="http://www.w3.org/2000/svg">
<path d="M64.2053 486.101C64.2053 486.101 -35.212 363.536 13.3749 237.36C45.0453 155.115 163.847 110.045 230.891 155.115C259.446 174.308 351.061 155.762 399.976 76.2941C495.032 -78.1286 863.406 12.4518 766.384 252.747C722.054 362.539 855.334 371.654 795.118 486.342L64.2053 486.101Z" fill="#EBF3FA" fill-opacity="0.05"/>
<path d="M277.827 366.36L208.796 475.266L63.5248 383.285L63.5218 383.282L2.31396 344.527L71.3423 235.625L185.633 307.987L277.827 366.36Z" fill="#CFE7FF"/>
<path d="M258.303 371.062L204.709 455.609L19.1201 338.102L72.7136 253.556L258.303 371.062ZM208.706 443.604L249.123 379.843C251.865 375.514 250.581 369.785 246.249 367.041L81.6394 262.817C77.2303 260.025 71.3932 261.333 68.6002 265.739L28.3446 329.247C25.5755 333.615 26.8749 339.401 31.2452 342.172L195.963 446.462C200.273 449.19 205.979 447.912 208.706 443.604Z" fill="#C0D8FB"/>
<path d="M144.091 380.971C158.67 377.997 168.076 363.774 165.1 349.204C162.124 334.633 147.893 325.232 133.314 328.206C118.736 331.181 109.329 345.403 112.305 359.974C115.281 374.545 129.512 383.945 144.091 380.971Z" fill="#C0D8FB"/>
<path d="M308.431 342.799L189.833 393.499L122.205 235.472V235.469L93.7075 168.886L212.306 118.189L265.514 242.512L308.431 342.799Z" fill="#DCEAFF"/>
<path d="M289.677 335.624L197.603 374.985L111.201 173.102L203.275 133.741L289.677 335.624ZM207.699 367.351L277.137 337.666C281.851 335.651 284.037 330.2 282.021 325.489L205.387 146.426C203.335 141.632 197.782 139.407 192.984 141.458L123.822 171.024C119.063 173.057 116.855 178.562 118.89 183.318L195.571 362.497C197.582 367.181 203.009 369.358 207.699 367.351Z" fill="#C0D8FB"/>
<path d="M225.664 263.82C230.885 249.894 223.823 234.376 209.89 229.157C195.957 223.939 180.429 230.997 175.208 244.923C169.987 258.848 177.049 274.367 190.982 279.585C204.915 284.803 220.443 277.745 225.664 263.82Z" fill="#C0D8FB"/>
<path d="M360.328 416.624L219.866 394.621L249.219 207.471L249.221 207.468L261.586 128.612L402.044 150.615L378.953 297.855L360.328 416.624Z" fill="#DCEAFF"/>
<path d="M347.007 398.956L237.962 381.873L275.461 142.778L384.506 159.861L347.007 398.956ZM251.862 380.649L334.1 393.531C339.683 394.406 344.916 390.594 345.792 385.014L379.051 172.947C379.941 167.268 376.058 161.942 370.376 161.052L288.467 148.221C282.833 147.337 277.549 151.188 276.665 156.819L243.384 369.023C242.509 374.573 246.306 379.78 251.862 380.649Z" fill="#C0D8FB"/>
<path d="M281.893 266.271C284.432 250.077 299.628 239.007 315.83 241.545C332.033 244.082 343.109 259.27 340.57 275.463C338.031 291.657 322.835 302.727 306.633 300.189C290.43 297.652 279.353 282.464 281.893 266.271Z" fill="#C0D8FB"/>
<path d="M441.774 286.065V324.339C441.774 331.669 435.773 337.663 428.442 337.663H400.999C393.668 337.663 387.667 331.669 387.667 324.339V286.065C387.667 278.735 393.668 272.74 400.999 272.74H428.442C435.773 272.743 441.774 278.738 441.774 286.065Z" fill="#ED7D2B"/>
<path d="M441.774 286.065V307.387C441.774 314.714 435.773 320.712 428.442 320.712H400.999C393.668 320.712 387.667 314.714 387.667 307.387V286.065C387.667 278.735 393.668 272.74 400.999 272.74H428.442C435.773 272.743 441.774 278.738 441.774 286.065Z" fill="#F99746"/>
<path d="M745.839 305.202C745.839 324.787 741.83 343.482 734.592 360.509C712.878 411.588 662.107 447.644 603.319 447.644H562.574C510.558 447.644 464.817 419.419 439.928 377.535C427.313 356.302 420.054 331.561 420.054 305.205C420.054 285.62 424.063 266.928 431.301 249.898C453.012 198.822 503.786 162.766 562.574 162.766H603.319C656.778 162.766 703.612 192.582 727.984 236.398C739.357 256.825 745.839 280.294 745.839 305.202Z" fill="#ED7D2B"/>
<path d="M727.987 236.395C731.369 252.824 728.71 276.305 724.385 288.737C695.624 371.415 628.018 386.339 558.911 392.627C509.772 397.096 439.934 377.532 439.934 377.532C427.319 356.299 420.06 331.558 420.06 305.202C420.06 285.617 424.069 266.925 431.307 249.895C453.018 198.819 503.792 162.763 562.58 162.763H603.325C656.781 162.766 703.615 192.579 727.987 236.395Z" fill="#F99746"/>
<path d="M545.773 198.449H489.719C484.067 198.449 479.484 195.019 479.484 190.788V114.296C479.484 112.992 479.897 111.803 480.605 110.773C483.344 106.797 490.549 105.158 495.911 108.194C517.195 120.249 552.062 146.456 555.984 190.269C556.381 194.693 551.694 198.449 545.773 198.449Z" fill="#F99746"/>
<path d="M491.998 198.449H489.719C484.067 198.449 479.484 195.019 479.484 190.788V114.296C479.484 112.992 479.897 111.803 480.605 110.773C480.844 110.979 481.08 111.206 481.298 111.448C493.473 124.996 511.023 151.612 506.08 188.895C505.357 194.314 499.275 198.449 491.998 198.449Z" fill="#ED7D2B"/>
<path d="M462.451 249.585C462.451 244.975 466.191 241.237 470.804 241.237C475.416 241.237 479.156 244.975 479.156 249.585C479.156 254.194 475.416 257.932 470.804 257.932C466.191 257.932 462.451 254.194 462.451 249.585Z" fill="#2B478B"/>
<path d="M627.438 387.172L614.145 473.445C612.379 480.126 617.422 486.67 624.337 486.67H659.273C666.761 486.67 673.623 482.491 677.052 475.836L731.351 367.59L627.438 387.172Z" fill="#ED7D2B"/>
<path d="M547.025 393.293L558.553 473.445C560.318 480.126 555.276 486.67 548.36 486.67H513.425C505.936 486.67 499.075 482.491 495.645 475.836L439.931 377.535L547.025 393.293Z" fill="#ED7D2B"/>
<path d="M779.792 343.921C778.988 343.921 778.184 343.82 777.387 343.608C771.191 341.978 767.649 334.585 768.135 324.315C768.613 314.248 772.828 303.617 779.705 295.15C782.749 291.403 786.259 288.125 790.178 285.348C788.329 282.3 785.832 279.377 782.474 276.861C776.766 272.579 770.866 271.346 764.44 273.09C747.168 277.777 732.531 302.449 731.345 305.223C730.807 306.707 729.182 307.498 727.677 306.996C726.147 306.486 725.32 304.835 725.831 303.303C726.344 301.766 730.622 294.4 736.588 287.107C746.989 274.394 756.049 269.576 761.818 267.776C770.376 265.104 778.507 266.587 785.978 272.191C789.685 274.971 792.75 278.347 795.128 282.234C801.055 278.935 807.731 276.643 814.993 275.454C816.588 275.195 818.088 276.272 818.347 277.864C818.607 279.455 817.529 280.957 815.937 281.216C809.272 282.309 803.166 284.414 797.775 287.45C799.429 291.442 800.481 295.845 800.893 300.592C801.742 310.367 799.779 321.04 795.504 329.868C791.158 338.864 785.425 343.918 779.792 343.921ZM792.768 290.689C789.593 293.033 786.737 295.756 784.24 298.831C778.134 306.351 774.391 315.741 773.969 324.593C773.635 331.618 775.651 337.114 778.875 337.962C782.131 338.816 786.809 334.445 790.253 327.328C794.026 319.532 795.83 309.728 795.08 301.097C794.811 297.995 794.16 294.368 792.768 290.689ZM731.369 305.151C731.363 305.169 731.357 305.187 731.351 305.202C731.36 305.184 731.363 305.166 731.369 305.151Z" fill="#ED7D2B"/>
<path d="M376.115 476.203V481.759C376.115 482.201 375.953 482.613 375.675 482.953C375.386 483.311 374.967 483.595 374.481 483.753C374.328 483.807 374.173 483.843 374.012 483.867C373.862 483.89 373.716 483.899 373.561 483.899H268.115C266.84 483.899 265.776 483.105 265.588 482.078C265.579 482.01 265.567 481.941 265.564 481.869C265.564 481.833 265.561 481.798 265.561 481.762V476.206C265.561 476.17 265.564 476.134 265.564 476.098C265.567 476.027 265.576 475.958 265.588 475.886C265.776 474.859 266.84 474.065 268.115 474.065H373.561C373.716 474.065 373.862 474.074 374.012 474.098C374.173 474.122 374.328 474.161 374.481 474.211C374.967 474.37 375.386 474.653 375.675 475.012C375.953 475.352 376.115 475.764 376.115 476.203Z" fill="#FFB93E"/>
<path d="M324.335 483.902H267.841C266.795 483.902 265.911 483.227 265.648 482.317C265.624 482.239 265.6 482.162 265.585 482.081C265.577 482.012 265.565 481.944 265.562 481.872C265.562 481.836 265.559 481.8 265.559 481.765V476.209C265.559 476.173 265.562 476.137 265.562 476.101C265.565 476.029 265.574 475.961 265.585 475.889C265.6 475.808 265.621 475.731 265.648 475.653C265.911 474.746 266.792 474.068 267.841 474.068H317.396C318.187 476.961 320.033 480.964 324.335 483.902Z" fill="#FFA412"/>
<path d="M363.282 474.066H362.084V483.906H363.282V474.066Z" fill="#FFA412"/>
<path d="M359.225 474.066H358.027V483.906H359.225V474.066Z" fill="#FFA412"/>
<path d="M354.359 474.066H353.161V483.906H354.359V474.066Z" fill="#FFA412"/>
<path d="M346.903 474.066H345.705V483.906H346.903V474.066Z" fill="#FFA412"/>
<path d="M339.017 474.066H337.819V483.906H339.017V474.066Z" fill="#FFA412"/>
<path d="M326.931 474.066H325.733V483.906H326.931V474.066Z" fill="#FFA412"/>
<path d="M315.612 474.066H314.414V483.906H315.612V474.066Z" fill="#FFA412"/>
<path d="M305.504 474.066H304.306V483.906H305.504V474.066Z" fill="#FFA412"/>
<path d="M367.145 474.066H365.947V483.906H367.145V474.066Z" fill="#FFA412"/>
<path d="M369.696 474.066H368.498V483.906H369.696V474.066Z" fill="#FFA412"/>
<path d="M372.157 474.066H370.959V483.906H372.157V474.066Z" fill="#FFA412"/>
<path d="M374.012 474.098V483.867C373.866 483.891 373.716 483.903 373.561 483.903H372.811V474.063H373.561C373.716 474.063 373.866 474.075 374.012 474.098Z" fill="#FFA412"/>
<path d="M375.676 475.009V482.956C375.386 483.318 374.968 483.598 374.478 483.757V474.206C374.968 474.367 375.386 474.651 375.676 475.009Z" fill="#FFA412"/>
<path d="M364.839 466.366V471.919C364.839 472.364 364.677 472.776 364.403 473.116C364.331 473.206 364.247 473.289 364.164 473.37C363.901 473.606 363.575 473.797 363.205 473.916C363.055 473.967 362.897 474.003 362.736 474.024C362.589 474.048 362.44 474.06 362.288 474.06H256.839C255.567 474.06 254.503 473.263 254.315 472.235C254.306 472.167 254.294 472.098 254.291 472.027C254.288 471.991 254.288 471.955 254.288 471.913V466.36C254.288 466.324 254.288 466.285 254.291 466.247C254.294 466.178 254.303 466.109 254.315 466.038C254.503 465.011 255.567 464.213 256.839 464.213H362.291C362.356 464.213 362.425 464.216 362.491 464.222C362.518 464.222 362.541 464.225 362.562 464.228C362.565 464.225 362.571 464.225 362.574 464.228C362.604 464.228 362.637 464.231 362.67 464.237C362.694 464.24 362.712 464.243 362.736 464.246C362.897 464.27 363.055 464.306 363.205 464.354C363.294 464.384 363.378 464.416 363.462 464.452H363.465C363.521 464.479 363.578 464.506 363.629 464.53C363.659 464.548 363.692 464.566 363.721 464.584C363.751 464.601 363.781 464.616 363.808 464.637C363.922 464.703 364.023 464.778 364.119 464.864C364.152 464.891 364.178 464.921 364.208 464.948C364.229 464.963 364.244 464.981 364.262 464.999C364.271 465.008 364.283 465.019 364.289 465.028L364.313 465.052C364.346 465.085 364.379 465.121 364.408 465.16C364.677 465.515 364.839 465.924 364.839 466.366Z" fill="#FFB93E"/>
<path d="M313.058 474.065H256.564C255.515 474.065 254.637 473.384 254.374 472.477C254.35 472.399 254.326 472.321 254.312 472.241C254.303 472.172 254.291 472.103 254.288 472.032C254.285 471.996 254.285 471.96 254.285 471.918V466.365C254.285 466.329 254.285 466.291 254.288 466.252C254.291 466.183 254.3 466.114 254.312 466.043C254.326 465.962 254.347 465.885 254.374 465.807C254.637 464.896 255.515 464.219 256.564 464.219H306.119C306.14 464.302 306.16 464.38 306.187 464.463C307.018 467.342 308.876 471.211 313.058 474.065Z" fill="#FFA412"/>
<path d="M352.008 464.225H350.811V474.063H352.008V464.225Z" fill="#FFA412"/>
<path d="M347.951 464.225H346.753V474.063H347.951V464.225Z" fill="#FFA412"/>
<path d="M343.085 464.225H341.887V474.063H343.085V464.225Z" fill="#FFA412"/>
<path d="M335.629 464.225H334.431V474.063H335.629V464.225Z" fill="#FFA412"/>
<path d="M327.743 464.225H326.545V474.063H327.743V464.225Z" fill="#FFA412"/>
<path d="M315.654 464.225H314.456V474.063H315.654V464.225Z" fill="#FFA412"/>
<path d="M304.335 464.225H303.137V474.063H304.335V464.225Z" fill="#FFA412"/>
<path d="M294.23 464.226H293.032V474.063H294.23V464.226Z" fill="#FFA412"/>
<path d="M355.868 464.225H354.67V474.063H355.868V464.225Z" fill="#FFA412"/>
<path d="M358.419 464.225H357.221V474.063H358.419V464.225Z" fill="#FFA412"/>
<path d="M360.883 464.225H359.686V474.063H360.883V464.225Z" fill="#FFA412"/>
<path d="M362.738 464.258V474.027C362.592 474.051 362.442 474.06 362.287 474.06H361.537V464.222H362.287C362.442 464.225 362.592 464.237 362.738 464.258Z" fill="#FFA412"/>
<path d="M364.402 465.172V473.119C364.112 473.477 363.694 473.761 363.204 473.919V464.369C363.694 464.527 364.112 464.81 364.402 465.172Z" fill="#FFA412"/>
<path d="M370.287 456.77V462.326C370.287 462.768 370.126 463.18 369.848 463.52C369.558 463.878 369.143 464.162 368.653 464.32C368.504 464.371 368.345 464.407 368.184 464.434C368.038 464.454 367.888 464.466 367.736 464.466H262.287C261.866 464.466 261.463 464.377 261.11 464.222C260.411 463.914 259.898 463.344 259.766 462.666C259.757 462.621 259.754 462.574 259.745 462.529C259.742 462.499 259.739 462.466 259.739 462.433C259.736 462.397 259.736 462.362 259.736 462.326V456.77C259.736 456.734 259.736 456.698 259.739 456.662C259.742 456.594 259.748 456.522 259.763 456.456C259.951 455.426 261.015 454.632 262.287 454.632H367.739C367.891 454.632 368.041 454.641 368.187 454.665C368.348 454.689 368.507 454.725 368.656 454.773C369.146 454.934 369.561 455.217 369.851 455.576C370.126 455.916 370.287 456.328 370.287 456.77Z" fill="#FFB93E"/>
<path d="M318.507 464.466H262.013C261.633 464.466 261.278 464.377 260.964 464.222C260.337 463.914 259.88 463.344 259.766 462.666C259.757 462.621 259.754 462.574 259.745 462.529C259.742 462.499 259.739 462.466 259.739 462.433C259.736 462.397 259.736 462.362 259.736 462.326V456.77C259.736 456.734 259.736 456.698 259.739 456.662C259.742 456.594 259.748 456.522 259.763 456.456C259.778 456.379 259.799 456.301 259.823 456.226C260.08 455.313 260.964 454.632 262.013 454.632H311.567C312.338 457.448 314.104 461.317 318.16 464.225C318.274 464.305 318.387 464.389 318.507 464.466Z" fill="#FFA412"/>
<path d="M357.457 454.63H356.259V464.467H357.457V454.63Z" fill="#FFA412"/>
<path d="M353.4 454.63H352.202V464.467H353.4V454.63Z" fill="#FFA412"/>
<path d="M348.534 454.63H347.336V464.467H348.534V454.63Z" fill="#FFA412"/>
<path d="M341.078 454.63H339.88V464.467H341.078V454.63Z" fill="#FFA412"/>
<path d="M333.192 454.63H331.994V464.467H333.192V454.63Z" fill="#FFA412"/>
<path d="M321.103 454.63H319.905V464.467H321.103V454.63Z" fill="#FFA412"/>
<path d="M309.784 454.63H308.586V464.467H309.784V454.63Z" fill="#FFA412"/>
<path d="M299.678 454.63H298.48V464.468H299.678V454.63Z" fill="#FFA412"/>
<path d="M361.317 454.63H360.119V464.467H361.317V454.63Z" fill="#FFA412"/>
<path d="M363.867 454.63H362.669V464.467H363.867V454.63Z" fill="#FFA412"/>
<path d="M366.332 454.63H365.134V464.467H366.332V454.63Z" fill="#FFA412"/>
<path d="M368.187 454.663V464.431C368.04 464.455 367.891 464.464 367.736 464.464H366.986V454.627H367.736C367.891 454.63 368.04 454.642 368.187 454.663Z" fill="#FFA412"/>
<path d="M369.851 455.576V463.524C369.561 463.885 369.143 464.166 368.653 464.324V454.773C369.143 454.931 369.561 455.215 369.851 455.576Z" fill="#FFA412"/>
<path d="M372.815 446.933V452.486C372.815 452.931 372.653 453.34 372.376 453.68C372.34 453.725 372.301 453.77 372.259 453.812C372.059 454.027 371.811 454.206 371.53 454.343C371.417 454.397 371.3 454.445 371.178 454.484C371.025 454.531 370.87 454.57 370.709 454.591C370.637 454.6 370.562 454.612 370.488 454.618C370.413 454.624 370.332 454.627 370.258 454.627H264.815C263.54 454.627 262.476 453.83 262.288 452.803C262.279 452.734 262.267 452.665 262.264 452.597V446.82C262.33 445.775 263.292 444.927 264.511 444.805C264.609 444.796 264.711 444.787 264.812 444.787H370.258C370.332 444.787 370.413 444.79 370.488 444.796C370.562 444.802 370.637 444.808 370.709 444.822C370.87 444.846 371.025 444.882 371.178 444.93C371.665 445.088 372.083 445.372 372.373 445.73C372.653 446.076 372.815 446.488 372.815 446.933Z" fill="#FFB93E"/>
<path d="M321.034 454.63H264.54C263.494 454.63 262.61 453.953 262.347 453.042C262.323 452.964 262.3 452.887 262.285 452.806C262.276 452.737 262.264 452.669 262.261 452.6V446.823C262.32 445.781 263.181 444.93 264.268 444.808C264.358 444.799 264.447 444.79 264.537 444.79H314.092C314.092 444.796 314.095 444.799 314.095 444.808C314.892 447.701 316.738 451.698 321.034 454.63Z" fill="#FFA412"/>
<path d="M359.981 444.79H358.784V454.627H359.981V444.79Z" fill="#FFA412"/>
<path d="M355.925 444.79H354.727V454.627H355.925V444.79Z" fill="#FFA412"/>
<path d="M351.061 444.79H349.863V454.627H351.061V444.79Z" fill="#FFA412"/>
<path d="M343.603 444.79H342.405V454.627H343.603V444.79Z" fill="#FFA412"/>
<path d="M335.719 444.79H334.521V454.627H335.719V444.79Z" fill="#FFA412"/>
<path d="M323.63 444.79H322.432V454.627H323.63V444.79Z" fill="#FFA412"/>
<path d="M312.312 444.79H311.114V454.627H312.312V444.79Z" fill="#FFA412"/>
<path d="M302.203 444.79H301.005V454.627H302.203V444.79Z" fill="#FFA412"/>
<path d="M363.844 444.79H362.646V454.627H363.844V444.79Z" fill="#FFA412"/>
<path d="M366.395 444.79H365.197V454.627H366.395V444.79Z" fill="#FFA412"/>
<path d="M368.859 444.79H367.661V454.627H368.859V444.79Z" fill="#FFA412"/>
<path d="M370.711 444.825V454.594C370.565 454.618 370.415 454.63 370.26 454.63H369.51V444.79H370.26C370.415 444.79 370.565 444.802 370.711 444.825Z" fill="#FFA412"/>
<path d="M372.375 445.736V453.683C372.085 454.045 371.667 454.325 371.177 454.484V444.933C371.667 445.094 372.085 445.375 372.375 445.736Z" fill="#FFA412"/>
<path d="M365.059 437.108V442.661C365.059 443.106 364.901 443.515 364.623 443.855C364.333 444.216 363.915 444.5 363.425 444.658C363.276 444.709 363.118 444.745 362.962 444.766C362.912 444.775 362.864 444.781 362.813 444.787H362.792C362.765 444.79 362.738 444.793 362.714 444.793C362.691 444.796 362.673 444.796 362.646 444.799C362.601 444.799 362.556 444.802 362.511 444.802H257.063C255.704 444.802 254.583 443.897 254.512 442.771C254.509 442.736 254.509 442.7 254.509 442.658V437.105C254.509 437.069 254.509 437.03 254.512 436.991C254.512 436.962 254.515 436.932 254.518 436.902C254.619 435.997 255.405 435.245 256.433 435.03C256.456 435.024 256.483 435.018 256.507 435.015C256.686 434.982 256.869 434.961 257.06 434.961H362.505C362.583 434.961 362.658 434.964 362.732 434.97C362.765 434.973 362.798 434.976 362.828 434.979C362.831 434.979 362.831 434.979 362.834 434.979H362.837C362.876 434.982 362.915 434.988 362.956 434.994C363.115 435.018 363.273 435.054 363.419 435.102C363.909 435.26 364.328 435.543 364.617 435.905C364.901 436.257 365.059 436.666 365.059 437.108Z" fill="#FFB93E"/>
<path d="M313.279 444.808H256.788C255.572 444.808 254.575 443.903 254.512 442.778C254.509 442.742 254.509 442.706 254.509 442.664V437.111C254.509 437.075 254.509 437.037 254.512 436.998C254.512 436.968 254.515 436.938 254.518 436.908C254.61 435.98 255.339 435.221 256.286 435.021C256.316 435.012 256.349 435.006 256.382 435C256.513 434.977 256.648 434.965 256.788 434.965H306.34C306.346 434.991 306.352 435.009 306.361 435.036C307.161 437.92 309.004 441.876 313.255 444.787C313.264 444.796 313.273 444.799 313.279 444.808Z" fill="#FFA412"/>
<path d="M352.23 434.967H351.032V444.805H352.23V434.967Z" fill="#FFA412"/>
<path d="M348.172 434.967H346.975V444.805H348.172V434.967Z" fill="#FFA412"/>
<path d="M343.306 434.967H342.108V444.805H343.306V434.967Z" fill="#FFA412"/>
<path d="M335.85 434.967H334.652V444.805H335.85V434.967Z" fill="#FFA412"/>
<path d="M327.964 434.967H326.767V444.805H327.964V434.967Z" fill="#FFA412"/>
<path d="M315.878 434.967H314.68V444.805H315.878V434.967Z" fill="#FFA412"/>
<path d="M304.559 434.967H303.361V444.805H304.559V434.967Z" fill="#FFA412"/>
<path d="M294.451 434.968H293.253V444.805H294.451V434.968Z" fill="#FFA412"/>
<path d="M356.092 434.967H354.894V444.805H356.092V434.967Z" fill="#FFA412"/>
<path d="M358.643 434.967H357.445V444.805H358.643V434.967Z" fill="#FFA412"/>
<path d="M361.104 434.967H359.906V444.805H361.104V434.967Z" fill="#FFA412"/>
<path d="M362.959 435V444.769C362.813 444.793 362.663 444.805 362.508 444.805H361.758V434.964H362.508C362.663 434.967 362.813 434.979 362.959 435Z" fill="#FFA412"/>
<path d="M364.623 435.914V443.861C364.333 444.219 363.915 444.503 363.425 444.661V435.111C363.915 435.269 364.333 435.552 364.623 435.914Z" fill="#FFA412"/>
<path d="M364.839 427.342V432.895C364.839 433.34 364.677 433.749 364.403 434.09C364.331 434.179 364.247 434.263 364.164 434.346C363.901 434.582 363.575 434.773 363.205 434.893C363.085 434.931 362.963 434.961 362.843 434.985H362.84C362.837 434.985 362.837 434.985 362.834 434.985C362.801 434.991 362.772 434.997 362.739 435C362.592 435.024 362.443 435.036 362.291 435.036H256.839C256.732 435.036 256.618 435.03 256.511 435.015C256.469 435.012 256.424 435.006 256.385 434.997C255.31 434.833 254.464 434.098 254.312 433.188C254.303 433.125 254.294 433.065 254.291 433.003C254.288 432.964 254.288 432.928 254.288 432.889V427.336C254.288 427.297 254.288 427.262 254.291 427.223C254.294 427.154 254.303 427.086 254.315 427.017C254.503 425.99 255.567 425.193 256.839 425.193H362.291C362.356 425.193 362.425 425.196 362.491 425.199C362.5 425.199 362.512 425.202 362.518 425.202C362.539 425.205 362.556 425.205 362.577 425.205C362.607 425.208 362.64 425.211 362.673 425.217C362.697 425.217 362.715 425.22 362.739 425.226C362.9 425.249 363.058 425.285 363.208 425.333C363.297 425.363 363.381 425.396 363.465 425.432H363.468C363.796 425.575 364.083 425.781 364.31 426.023C364.343 426.058 364.376 426.094 364.406 426.13C364.677 426.485 364.839 426.897 364.839 427.342Z" fill="#FFB93E"/>
<path d="M313.058 435.038H256.564C256.522 435.038 256.474 435.035 256.432 435.035C256.382 435.032 256.334 435.026 256.286 435.023C255.264 434.901 254.449 434.146 254.309 433.193C254.3 433.131 254.291 433.071 254.288 433.008C254.285 432.969 254.285 432.933 254.285 432.895V427.342C254.285 427.303 254.285 427.267 254.288 427.228C254.291 427.159 254.3 427.091 254.312 427.022C254.326 426.942 254.347 426.864 254.374 426.786C254.637 425.876 255.515 425.198 256.564 425.198H306.119C306.14 425.282 306.16 425.359 306.187 425.443C307.009 428.294 308.843 432.118 312.953 434.967C312.989 434.993 313.025 435.011 313.058 435.038Z" fill="#FFA412"/>
<path d="M352.008 425.199H350.811V435.036H352.008V425.199Z" fill="#FFA412"/>
<path d="M347.951 425.199H346.753V435.036H347.951V425.199Z" fill="#FFA412"/>
<path d="M343.085 425.199H341.887V435.036H343.085V425.199Z" fill="#FFA412"/>
<path d="M335.629 425.199H334.431V435.036H335.629V425.199Z" fill="#FFA412"/>
<path d="M327.743 425.199H326.545V435.036H327.743V425.199Z" fill="#FFA412"/>
<path d="M315.654 425.199H314.456V435.036H315.654V425.199Z" fill="#FFA412"/>
<path d="M304.335 425.199H303.137V435.036H304.335V425.199Z" fill="#FFA412"/>
<path d="M294.23 425.199H293.032V435.036H294.23V425.199Z" fill="#FFA412"/>
<path d="M355.868 425.199H354.67V435.036H355.868V425.199Z" fill="#FFA412"/>
<path d="M358.419 425.199H357.221V435.036H358.419V425.199Z" fill="#FFA412"/>
<path d="M360.883 425.199H359.686V435.036H360.883V425.199Z" fill="#FFA412"/>
<path d="M362.738 425.234V435.003C362.592 435.027 362.442 435.036 362.287 435.036H361.537V425.199H362.287C362.442 425.199 362.592 425.211 362.738 425.234Z" fill="#FFA412"/>
<path d="M364.402 426.145V434.092C364.112 434.454 363.694 434.734 363.204 434.893V425.342C363.694 425.5 364.112 425.784 364.402 426.145Z" fill="#FFA412"/>
<path d="M370.287 417.744V423.297C370.287 423.742 370.126 424.154 369.848 424.494C369.558 424.852 369.143 425.136 368.653 425.294C368.504 425.345 368.345 425.381 368.184 425.402C368.038 425.426 367.888 425.438 367.736 425.438H262.287C261.866 425.438 261.463 425.348 261.11 425.193C260.411 424.885 259.898 424.315 259.766 423.64C259.757 423.595 259.754 423.548 259.745 423.503C259.742 423.47 259.739 423.44 259.739 423.407C259.736 423.372 259.736 423.336 259.736 423.297V417.744C259.736 417.708 259.736 417.669 259.739 417.63C259.742 417.562 259.748 417.493 259.763 417.424C259.951 416.397 261.015 415.6 262.287 415.6H367.739C367.891 415.6 368.041 415.612 368.187 415.636C368.348 415.66 368.507 415.696 368.656 415.744C369.146 415.902 369.561 416.185 369.851 416.547C370.126 416.893 370.287 417.299 370.287 417.744Z" fill="#FFB93E"/>
<path d="M318.507 425.441H262.013C261.633 425.441 261.278 425.351 260.964 425.196C260.337 424.889 259.88 424.318 259.766 423.644C259.757 423.599 259.754 423.551 259.745 423.506C259.742 423.473 259.739 423.444 259.739 423.411C259.736 423.375 259.736 423.339 259.736 423.3V417.747C259.736 417.711 259.736 417.673 259.739 417.634C259.742 417.565 259.748 417.496 259.763 417.428C259.778 417.35 259.799 417.275 259.823 417.198C260.08 416.284 260.964 415.604 262.013 415.604H311.567C312.338 418.422 314.104 422.291 318.16 425.199C318.274 425.28 318.387 425.36 318.507 425.441Z" fill="#FFA412"/>
<path d="M357.457 415.603H356.259V425.441H357.457V415.603Z" fill="#FFA412"/>
<path d="M353.4 415.603H352.202V425.441H353.4V415.603Z" fill="#FFA412"/>
<path d="M348.534 415.603H347.336V425.441H348.534V415.603Z" fill="#FFA412"/>
<path d="M341.078 415.603H339.88V425.441H341.078V415.603Z" fill="#FFA412"/>
<path d="M333.192 415.603H331.994V425.441H333.192V415.603Z" fill="#FFA412"/>
<path d="M321.103 415.603H319.905V425.441H321.103V415.603Z" fill="#FFA412"/>
<path d="M309.784 415.603H308.586V425.441H309.784V415.603Z" fill="#FFA412"/>
<path d="M299.678 415.604H298.48V425.441H299.678V415.604Z" fill="#FFA412"/>
<path d="M361.317 415.603H360.119V425.441H361.317V415.603Z" fill="#FFA412"/>
<path d="M363.867 415.603H362.669V425.441H363.867V415.603Z" fill="#FFA412"/>
<path d="M366.332 415.603H365.134V425.441H366.332V415.603Z" fill="#FFA412"/>
<path d="M368.187 415.636V425.405C368.04 425.429 367.891 425.438 367.736 425.438H366.986V415.6H367.736C367.891 415.603 368.04 415.615 368.187 415.636Z" fill="#FFA412"/>
<path d="M369.851 416.55V424.497C369.561 424.858 369.143 425.139 368.653 425.297V415.747C369.143 415.905 369.561 416.188 369.851 416.55Z" fill="#FFA412"/>
<path d="M378.905 407.904V413.46C378.905 413.901 378.744 414.31 378.469 414.651L378.466 414.654C378.43 414.699 378.391 414.743 378.349 414.785C378.188 414.955 378 415.105 377.785 415.227C377.68 415.287 377.567 415.343 377.447 415.388C377.444 415.388 377.444 415.391 377.444 415.391C377.387 415.415 377.328 415.436 377.265 415.457C377.116 415.508 376.957 415.543 376.796 415.564C376.65 415.588 376.5 415.597 376.348 415.597H270.906C269.633 415.597 268.57 414.803 268.381 413.776C268.369 413.707 268.36 413.639 268.357 413.564C268.354 413.528 268.354 413.492 268.354 413.457V407.901C268.354 407.865 268.354 407.829 268.357 407.793C268.42 406.754 269.382 405.9 270.604 405.778C270.702 405.766 270.801 405.763 270.903 405.763H376.354C376.506 405.763 376.656 405.775 376.802 405.796C376.963 405.823 377.122 405.859 377.271 405.909C377.698 406.047 378.069 406.282 378.352 406.578C378.391 406.62 378.43 406.665 378.469 406.709L378.472 406.712C378.744 407.056 378.905 407.462 378.905 407.904Z" fill="#FFB93E"/>
<path d="M327.125 415.601H270.631C269.582 415.601 268.698 414.92 268.441 414.009C268.417 413.935 268.396 413.857 268.381 413.779C268.369 413.711 268.36 413.642 268.357 413.567C268.354 413.532 268.354 413.496 268.354 413.46V407.904C268.354 407.868 268.354 407.832 268.357 407.796C268.414 406.758 269.275 405.904 270.359 405.781C270.449 405.769 270.538 405.766 270.628 405.766H320.182C320.182 405.769 320.185 405.775 320.185 405.781C320.983 408.674 322.829 412.672 327.125 415.601Z" fill="#FFA412"/>
<path d="M366.072 405.763H364.874V415.6H366.072V405.763Z" fill="#FFA412"/>
<path d="M362.016 405.763H360.818V415.6H362.016V405.763Z" fill="#FFA412"/>
<path d="M357.152 405.763H355.954V415.6H357.152V405.763Z" fill="#FFA412"/>
<path d="M349.696 405.763H348.498V415.6H349.696V405.763Z" fill="#FFA412"/>
<path d="M341.81 405.763H340.612V415.6H341.81V405.763Z" fill="#FFA412"/>
<path d="M329.721 405.763H328.523V415.6H329.721V405.763Z" fill="#FFA412"/>
<path d="M318.402 405.763H317.205V415.6H318.402V405.763Z" fill="#FFA412"/>
<path d="M308.296 405.763H307.099V415.6H308.296V405.763Z" fill="#FFA412"/>
<path d="M369.934 405.763H368.736V415.6H369.934V405.763Z" fill="#FFA412"/>
<path d="M372.485 405.763H371.288V415.6H372.485V405.763Z" fill="#FFA412"/>
<path d="M374.95 405.763H373.752V415.6H374.95V405.763Z" fill="#FFA412"/>
<path d="M376.805 405.799V415.567C376.659 415.591 376.509 415.603 376.354 415.603H375.604V405.766H376.354C376.506 405.763 376.656 405.775 376.805 405.799Z" fill="#FFA412"/>
<path d="M378.469 406.709V414.657C378.179 415.015 377.761 415.299 377.271 415.457V405.906C377.761 406.067 378.176 406.351 378.469 406.709Z" fill="#FFA412"/>
<path d="M365.059 398.084V403.637C365.059 404.082 364.901 404.491 364.623 404.832C364.333 405.193 363.915 405.476 363.425 405.635C363.276 405.685 363.118 405.721 362.962 405.742C362.912 405.748 362.864 405.754 362.813 405.763H362.792C362.759 405.769 362.726 405.769 362.694 405.772C362.673 405.772 362.655 405.775 362.634 405.775C362.592 405.775 362.55 405.778 362.508 405.778H257.063C256.146 405.778 255.339 405.369 254.891 404.757C254.67 404.461 254.536 404.115 254.512 403.745C254.509 403.706 254.509 403.67 254.509 403.631V398.078C254.509 398.039 254.509 398.004 254.512 397.965C254.569 397.054 255.315 396.287 256.319 396.03C256.552 395.967 256.803 395.935 257.06 395.935H362.505C362.55 395.935 362.595 395.938 362.64 395.938C362.664 395.938 362.685 395.941 362.705 395.944C362.792 395.947 362.873 395.959 362.956 395.97C363.115 395.994 363.273 396.03 363.419 396.078C363.494 396.102 363.569 396.129 363.637 396.162H363.64C363.921 396.278 364.172 396.433 364.378 396.624C364.381 396.627 364.384 396.63 364.387 396.636C364.396 396.645 364.408 396.651 364.417 396.663C364.489 396.729 364.555 396.8 364.617 396.878C364.901 397.227 365.059 397.639 365.059 398.084Z" fill="#FFB93E"/>
<path d="M313.279 405.781H256.788C255.993 405.781 255.288 405.393 254.885 404.811C254.667 404.5 254.533 404.139 254.512 403.751C254.509 403.712 254.509 403.676 254.509 403.638V398.085C254.509 398.046 254.509 398.01 254.512 397.971C254.569 396.989 255.327 396.18 256.328 395.986C256.477 395.956 256.63 395.938 256.788 395.938H306.34C306.361 396.013 306.382 396.09 306.406 396.165C307.227 399.037 309.079 402.9 313.255 405.76C313.264 405.769 313.273 405.775 313.279 405.781Z" fill="#FFA412"/>
<path d="M352.23 395.941H351.032V405.778H352.23V395.941Z" fill="#FFA412"/>
<path d="M348.172 395.941H346.975V405.778H348.172V395.941Z" fill="#FFA412"/>
<path d="M343.306 395.941H342.108V405.778H343.306V395.941Z" fill="#FFA412"/>
<path d="M335.85 395.941H334.652V405.778H335.85V395.941Z" fill="#FFA412"/>
<path d="M327.964 395.941H326.767V405.778H327.964V395.941Z" fill="#FFA412"/>
<path d="M315.878 395.941H314.68V405.778H315.878V395.941Z" fill="#FFA412"/>
<path d="M304.559 395.941H303.361V405.778H304.559V395.941Z" fill="#FFA412"/>
<path d="M294.451 395.941H293.253V405.778H294.451V395.941Z" fill="#FFA412"/>
<path d="M356.092 395.941H354.894V405.778H356.092V395.941Z" fill="#FFA412"/>
<path d="M358.643 395.941H357.445V405.778H358.643V395.941Z" fill="#FFA412"/>
<path d="M361.104 395.941H359.906V405.778H361.104V395.941Z" fill="#FFA412"/>
<path d="M362.959 395.976V405.745C362.813 405.769 362.663 405.781 362.508 405.781H361.758V395.941H362.508C362.663 395.941 362.813 395.953 362.959 395.976Z" fill="#FFA412"/>
<path d="M364.623 396.887V404.834C364.333 405.196 363.915 405.476 363.425 405.635V396.084C363.915 396.245 364.333 396.526 364.623 396.887Z" fill="#FFA412"/>
<path d="M372.815 388.471V394.027C372.815 394.469 372.653 394.881 372.378 395.221C372.089 395.582 371.671 395.863 371.181 396.021C371.031 396.072 370.876 396.108 370.715 396.132C370.568 396.156 370.419 396.168 370.264 396.168H264.815C264.406 396.168 264.018 396.087 263.677 395.941C262.909 395.618 262.36 394.973 262.276 394.224C262.273 394.197 262.27 394.167 262.27 394.137C262.27 394.102 262.267 394.063 262.267 394.027V388.471C262.267 388.435 262.267 388.396 262.27 388.36C262.333 387.318 263.298 386.468 264.516 386.345C264.615 386.333 264.717 386.33 264.818 386.33H370.267C370.419 386.33 370.571 386.342 370.718 386.366C370.879 386.39 371.034 386.426 371.184 386.477C371.673 386.635 372.092 386.918 372.381 387.277C372.653 387.617 372.815 388.029 372.815 388.471Z" fill="#FFB93E"/>
<path d="M321.034 396.168H264.54C264.175 396.168 263.829 396.087 263.524 395.941C262.837 395.618 262.347 394.973 262.273 394.224C262.27 394.197 262.267 394.167 262.267 394.137C262.267 394.102 262.264 394.063 262.264 394.027V388.471C262.264 388.435 262.264 388.396 262.267 388.36C262.323 387.318 263.184 386.468 264.271 386.345C264.358 386.333 264.447 386.33 264.54 386.33H314.095C314.095 386.336 314.098 386.342 314.098 386.345C314.871 389.166 316.643 393.033 320.705 395.941C320.813 396.018 320.923 396.093 321.034 396.168Z" fill="#FFA412"/>
<path d="M359.981 386.33H358.784V396.171H359.981V386.33Z" fill="#FFA412"/>
<path d="M355.925 386.33H354.727V396.171H355.925V386.33Z" fill="#FFA412"/>
<path d="M351.061 386.33H349.863V396.171H351.061V386.33Z" fill="#FFA412"/>
<path d="M343.603 386.33H342.405V396.171H343.603V386.33Z" fill="#FFA412"/>
<path d="M335.719 386.33H334.521V396.171H335.719V386.33Z" fill="#FFA412"/>
<path d="M323.63 386.33H322.432V396.171H323.63V386.33Z" fill="#FFA412"/>
<path d="M312.312 386.33H311.114V396.171H312.312V386.33Z" fill="#FFA412"/>
<path d="M302.203 386.33H301.005V396.171H302.203V386.33Z" fill="#FFA412"/>
<path d="M363.844 386.33H362.646V396.171H363.844V386.33Z" fill="#FFA412"/>
<path d="M366.395 386.33H365.197V396.171H366.395V386.33Z" fill="#FFA412"/>
<path d="M368.859 386.33H367.661V396.171H368.859V386.33Z" fill="#FFA412"/>
<path d="M370.711 386.363V396.132C370.565 396.156 370.415 396.168 370.26 396.168H369.51V386.33H370.26C370.415 386.33 370.565 386.342 370.711 386.363Z" fill="#FFA412"/>
<path d="M372.375 387.274V395.221C372.085 395.579 371.667 395.863 371.177 396.021V386.471C371.667 386.632 372.085 386.915 372.375 387.274Z" fill="#FFA412"/>
<path d="M376.112 378.649V384.205C376.112 384.646 375.951 385.058 375.676 385.399C375.386 385.76 374.968 386.041 374.478 386.199C374.329 386.25 374.173 386.285 374.012 386.309C373.961 386.315 373.914 386.324 373.863 386.327C373.836 386.33 373.809 386.333 373.779 386.333C373.752 386.336 373.725 386.336 373.695 386.339C373.651 386.342 373.606 386.342 373.561 386.342H268.113C266.753 386.342 265.633 385.438 265.565 384.312C265.565 384.276 265.562 384.24 265.562 384.202V378.646C265.562 378.61 265.562 378.571 265.565 378.535C265.633 377.41 266.753 376.505 268.113 376.505H373.561C373.713 376.505 373.863 376.517 374.012 376.538C374.173 376.562 374.329 376.597 374.478 376.648C374.968 376.806 375.386 377.09 375.676 377.448C375.954 377.795 376.112 378.204 376.112 378.649Z" fill="#FFB93E"/>
<path d="M324.332 386.346H267.841C266.628 386.346 265.627 385.441 265.565 384.315C265.565 384.28 265.562 384.244 265.562 384.205V378.649C265.562 378.613 265.562 378.574 265.565 378.538C265.627 377.413 266.628 376.508 267.841 376.508H317.396C318.184 379.401 320.024 383.396 324.311 386.331C324.317 386.334 324.326 386.34 324.332 386.346Z" fill="#FFA412"/>
<path d="M363.282 376.505H362.084V386.342H363.282V376.505Z" fill="#FFA412"/>
<path d="M359.225 376.505H358.027V386.342H359.225V376.505Z" fill="#FFA412"/>
<path d="M354.359 376.505H353.161V386.342H354.359V376.505Z" fill="#FFA412"/>
<path d="M346.903 376.505H345.705V386.342H346.903V376.505Z" fill="#FFA412"/>
<path d="M339.017 376.505H337.819V386.342H339.017V376.505Z" fill="#FFA412"/>
<path d="M326.931 376.505H325.733V386.342H326.931V376.505Z" fill="#FFA412"/>
<path d="M315.612 376.505H314.414V386.342H315.612V376.505Z" fill="#FFA412"/>
<path d="M305.504 376.505H304.306V386.342H305.504V376.505Z" fill="#FFA412"/>
<path d="M367.145 376.505H365.947V386.342H367.145V376.505Z" fill="#FFA412"/>
<path d="M369.696 376.505H368.498V386.342H369.696V376.505Z" fill="#FFA412"/>
<path d="M372.157 376.505H370.959V386.342H372.157V376.505Z" fill="#FFA412"/>
<path d="M374.012 376.541V386.312C373.866 386.336 373.716 386.345 373.561 386.345H372.811V376.508H373.561C373.716 376.505 373.866 376.517 374.012 376.541Z" fill="#FFA412"/>
<path d="M375.676 377.451V385.399C375.386 385.76 374.968 386.041 374.478 386.199V376.648C374.968 376.809 375.386 377.093 375.676 377.451Z" fill="#FFA412"/>
<path d="M342.688 320.44C342.688 320.44 337.15 328.232 332.072 328.343C326.993 328.45 319.268 324.73 319.268 324.73C319.268 324.73 314.605 314.347 317.769 310.283C317.769 310.283 320.941 308.892 324.257 311.349C324.828 311.773 325.404 312.308 325.975 312.991C326.778 313.959 327.683 314.508 328.639 314.797C332.263 315.899 336.564 313.308 338.172 315.81C339.113 317.263 340.131 318.356 340.974 319.123C341.965 320.004 342.688 320.44 342.688 320.44Z" fill="#FFEDDC"/>
<path d="M270.484 376.651C270.484 376.651 290.06 329.244 325.297 328.34C325.297 328.34 357.824 331.952 359.629 376.651H270.484Z" fill="#FFEDDC"/>
<path d="M315.642 329.788C315.642 329.788 329.765 332.926 334.124 331.081C334.124 331.081 334.781 325.178 328.833 326.005C324.762 326.572 322.112 324.617 320.55 323.823C318.345 322.703 315.056 327.319 315.642 329.788Z" fill="#DB6A1D"/>
<path d="M327.934 320.891C327.032 321.569 324.257 311.346 324.257 311.346C324.827 311.77 325.404 312.305 325.974 312.988C326.778 313.956 327.683 314.505 328.639 314.794C328.648 315.093 328.809 320.231 327.934 320.891Z" fill="#E5C1A1"/>
<path d="M340.971 319.12C340.774 319.237 334.241 323.148 333.353 323.148C332.451 323.148 338.169 315.807 338.169 315.807C339.11 317.261 340.131 318.353 340.971 319.12Z" fill="#E5C1A1"/>
<path d="M289.608 363.408C289.247 363.097 303.463 342.488 307.376 342.339C311.292 342.19 320.087 346.853 326.456 347.456C332.824 348.059 338.999 346.253 340.203 350.015C341.407 353.776 344.719 367.116 342.688 369.25C340.657 371.382 297.423 370.08 289.608 363.408Z" fill="#F9DDBF"/>
<path d="M606.53 192.153C605.631 192.848 604.681 193.499 603.689 194.102C603.304 194.338 602.916 194.562 602.515 194.783C601.509 195.338 600.481 195.834 599.439 196.267C599.137 196.213 598.832 196.162 598.534 196.111C596.64 195.795 594.77 195.505 592.93 195.243C592.018 195.111 591.113 194.986 590.217 194.866C586.453 194.365 582.83 193.968 579.388 193.654C578.462 193.565 577.551 193.487 576.652 193.415C575.938 193.356 575.236 193.302 574.54 193.251C572.84 193.126 571.198 193.021 569.614 192.932C567.392 191.358 565.355 189.477 563.577 187.304C562.397 185.865 561.331 184.295 560.399 182.605C552.133 167.618 557.585 148.77 572.581 140.509C572.975 140.291 573.375 140.082 573.776 139.888C588.562 132.544 606.65 138.097 614.697 152.687C622.183 166.253 618.425 182.975 606.53 192.153Z" fill="#FFB93E"/>
<path d="M612.057 154.568C604.66 141.16 587.732 136.267 574.319 143.653C565.146 148.707 559.954 158.216 559.954 168.012C559.954 172.541 561.065 177.132 563.404 181.372C564.668 183.662 566.212 185.704 567.963 187.483C570.487 190.03 573.447 192.03 576.655 193.415C577.554 193.487 578.469 193.568 579.392 193.654C575.589 192.421 572.055 190.355 569.095 187.54C567.138 185.68 565.429 183.495 564.058 181.008C556.862 167.964 561.627 151.499 574.678 144.31C587.732 137.118 604.203 141.879 611.397 154.923C618.458 167.725 614.001 183.817 601.5 191.206C601.261 191.346 601.019 191.487 600.774 191.621C597.41 193.475 593.817 194.535 590.217 194.863C591.113 194.983 592.016 195.108 592.93 195.24C595.735 194.705 598.504 193.729 601.138 192.281C601.643 192.003 602.133 191.711 602.614 191.409C614.904 183.626 619.172 167.471 612.057 154.568Z" fill="#FFA412"/>
<path d="M601.392 170.669C600.858 169.355 600.168 168.31 599.319 167.537C598.471 166.764 597.482 166.184 596.359 165.796C595.236 165.411 593.981 165.175 592.598 165.092C591.215 165.005 589.709 164.987 588.081 165.032C587.078 165.062 586.217 165.044 585.503 164.978C584.79 164.916 584.186 164.781 583.687 164.584C583.188 164.384 582.785 164.11 582.474 163.76C582.164 163.414 581.907 162.993 581.704 162.491C581.501 161.99 581.384 161.494 581.354 160.999C581.324 160.509 581.396 160.04 581.575 159.598C581.749 159.157 582.038 158.748 582.439 158.374C582.836 157.998 583.365 157.679 584.019 157.413C585.229 156.923 586.358 156.932 587.406 157.446C588.455 157.956 589.306 159.022 589.969 160.646L596.284 158.085C595.735 156.732 595.045 155.589 594.214 154.657C593.387 153.726 592.455 153.003 591.415 152.499C590.379 151.988 589.246 151.693 588.025 151.606C586.803 151.52 585.53 151.648 584.21 151.994L582.421 147.594L578.926 149.012L580.688 153.35C579.427 154.004 578.358 154.765 577.48 155.634C576.605 156.502 575.929 157.44 575.457 158.452C574.985 159.464 574.735 160.524 574.714 161.635C574.69 162.748 574.914 163.88 575.38 165.029C575.92 166.352 576.616 167.403 577.462 168.176C578.313 168.949 579.296 169.528 580.419 169.907C581.539 170.287 582.794 170.516 584.18 170.588C585.569 170.663 587.078 170.66 588.709 170.582C589.653 170.528 590.474 170.537 591.173 170.6C591.869 170.666 592.47 170.8 592.977 171.003C593.485 171.206 593.906 171.493 594.241 171.863C594.579 172.23 594.859 172.699 595.089 173.266C595.293 173.768 595.391 174.266 595.391 174.765C595.388 175.26 595.275 175.735 595.051 176.186C594.827 176.64 594.495 177.061 594.05 177.446C593.602 177.831 593.04 178.162 592.353 178.44C591.753 178.685 591.137 178.843 590.498 178.921C589.859 178.998 589.237 178.939 588.628 178.733C588.022 178.533 587.451 178.162 586.922 177.631C586.391 177.1 585.931 176.353 585.542 175.392L579.224 177.953C579.887 179.577 580.712 180.864 581.713 181.817C582.707 182.769 583.798 183.447 584.984 183.856C586.17 184.268 587.409 184.444 588.703 184.393C589.993 184.339 591.272 184.13 592.529 183.76L594.16 187.776L597.635 186.367L595.995 182.33C597.255 181.676 598.337 180.921 599.239 180.067C600.138 179.21 600.828 178.285 601.303 177.288C601.781 176.293 602.035 175.237 602.065 174.12C602.103 173.009 601.876 171.857 601.392 170.669Z" fill="#FFA412"/>
<path opacity="0.5" d="M300.488 447.748C294.878 464.007 280.826 476.188 265.562 480.529V476.203C265.562 476.167 265.565 476.132 265.565 476.096C265.568 476.024 265.577 475.955 265.589 475.884C265.604 475.803 265.625 475.726 265.651 475.648C265.914 474.74 266.796 474.063 267.844 474.063H256.567C255.519 474.063 254.641 473.382 254.378 472.474C254.354 472.397 254.33 472.319 254.315 472.238C254.306 472.17 254.294 472.101 254.291 472.029C254.288 471.994 254.288 471.958 254.288 471.916V466.363C254.288 466.327 254.288 466.288 254.291 466.249C254.294 466.181 254.303 466.112 254.315 466.041C254.33 465.96 254.351 465.882 254.378 465.805C254.641 464.894 255.519 464.216 256.567 464.216H260.967C260.34 463.909 259.883 463.339 259.77 462.661C259.761 462.616 259.758 462.568 259.749 462.524C259.746 462.494 259.743 462.461 259.743 462.428C259.74 462.392 259.74 462.356 259.74 462.321V456.765C259.74 456.729 259.74 456.693 259.743 456.657C259.746 456.588 259.752 456.517 259.767 456.451C259.782 456.373 259.802 456.296 259.826 456.221C260.083 455.308 260.967 454.627 262.016 454.627H264.543C263.498 454.627 262.613 453.949 262.351 453.039C262.327 452.961 262.303 452.883 262.288 452.803C262.279 452.734 262.267 452.665 262.264 452.597V446.82C262.324 445.778 263.184 444.927 264.271 444.805H256.791C255.576 444.805 254.578 443.9 254.515 442.774C254.512 442.739 254.512 442.703 254.512 442.661V437.108C254.512 437.072 254.512 437.033 254.515 436.994C254.515 436.965 254.518 436.935 254.521 436.905C254.614 435.976 255.343 435.218 256.29 435.018C255.268 434.896 254.452 434.14 254.312 433.188C254.303 433.125 254.294 433.066 254.291 433.003C254.288 432.964 254.288 432.928 254.288 432.889V427.336C254.288 427.297 254.288 427.262 254.291 427.223C254.294 427.154 254.303 427.086 254.315 427.017C254.33 426.936 254.351 426.859 254.378 426.781C254.641 425.87 255.519 425.193 256.567 425.193H260.967C260.34 424.885 259.883 424.315 259.77 423.64C259.761 423.595 259.758 423.548 259.749 423.503C259.746 423.47 259.743 423.44 259.743 423.407C259.74 423.372 259.74 423.336 259.74 423.297V417.744C259.74 417.708 259.74 417.669 259.743 417.63C259.746 417.562 259.752 417.493 259.767 417.424C259.782 417.347 259.802 417.272 259.826 417.195C260.083 416.281 260.967 415.6 262.016 415.6H270.634C269.586 415.6 268.701 414.92 268.444 414.009C268.421 413.934 268.4 413.857 268.385 413.779C268.373 413.71 268.364 413.642 268.361 413.567C268.358 413.531 268.358 413.495 268.358 413.46V407.904C268.358 407.868 268.358 407.832 268.361 407.796C268.418 406.757 269.278 405.903 270.362 405.781H256.791C255.997 405.781 255.292 405.393 254.889 404.811L254.894 404.76L256.325 396.036L256.331 395.985L258.366 383.539C282.108 386.715 299.909 404.721 302.687 426.45C303.592 433.531 302.878 440.822 300.488 447.748Z" fill="#E2810E"/>
<path d="M276.166 466.542C296.421 446.298 296.421 413.477 276.166 393.233C255.911 372.99 223.071 372.99 202.816 393.233C182.561 413.477 182.561 446.298 202.816 466.542C223.071 486.785 255.911 486.785 276.166 466.542Z" fill="#E2810E"/>
<path d="M262.52 476.341C261.881 476.729 261.233 477.108 260.573 477.472C260.349 477.595 260.125 477.717 259.9 477.833C259.39 478.105 258.879 478.368 258.362 478.625C233.664 490.749 203.535 481.443 190.107 457.099C177.298 433.881 184.184 405.121 205.199 390.017C206.875 388.811 208.64 387.695 210.492 386.674C211.155 386.306 211.827 385.957 212.5 385.623C213.154 385.297 213.814 384.987 214.477 384.691C216.508 383.787 218.57 383.025 220.655 382.401C223.752 381.47 226.895 380.84 230.046 380.509C239.818 379.476 249.645 381.258 258.362 385.521C267.61 390.041 275.607 397.35 280.954 407.047C294.418 431.459 286.122 461.992 262.52 476.341Z" fill="#FFB93E"/>
<path d="M235.896 479.078C231.558 479.078 227.197 478.466 222.916 477.227C210.991 473.779 201.125 465.897 195.132 455.033C189.14 444.169 187.739 431.621 191.189 419.702C194.639 407.784 202.526 397.923 213.396 391.934C235.839 379.568 264.161 387.757 276.531 410.188C288.901 432.618 280.71 460.923 258.267 473.286C251.295 477.123 243.636 479.078 235.896 479.078ZM235.752 387.42C228.377 387.42 220.903 389.223 213.996 393.027C203.419 398.855 195.745 408.45 192.387 420.046C189.029 431.641 190.395 443.852 196.226 454.424C202.057 464.996 211.657 472.665 223.26 476.021C234.862 479.377 247.08 478.012 257.657 472.185C279.494 460.153 287.467 432.612 275.428 410.788C267.199 395.866 251.707 387.42 235.752 387.42Z" fill="#FFA412"/>
<path d="M258.685 437.12C258.583 436.863 258.473 436.618 258.362 436.373C257.52 434.525 256.474 433.027 255.217 431.88C253.795 430.588 252.146 429.614 250.264 428.969C248.382 428.322 246.285 427.927 243.973 427.787C241.658 427.644 239.137 427.614 236.415 427.689C234.734 427.739 233.294 427.71 232.099 427.602C230.907 427.495 229.891 427.274 229.061 426.939C228.227 426.605 227.552 426.148 227.033 425.566C226.513 424.987 226.086 424.279 225.745 423.44C225.405 422.604 225.21 421.774 225.16 420.95C225.109 420.129 225.231 419.347 225.527 418.607C225.823 417.869 226.304 417.186 226.973 416.559C227.639 415.932 228.52 415.394 229.619 414.949C231.642 414.128 233.533 414.146 235.286 415.003C237.04 415.86 238.468 417.648 239.57 420.362L250.136 416.075C249.216 413.815 248.062 411.901 246.676 410.343C245.293 408.784 243.731 407.578 241.992 406.727C240.257 405.876 238.366 405.381 236.317 405.235C234.271 405.091 232.144 405.306 229.939 405.885L226.946 398.52L221.097 400.894L224.048 408.157C221.936 409.253 220.147 410.525 218.677 411.976C217.211 413.43 216.081 415 215.293 416.69C214.501 418.383 214.089 420.159 214.05 422.019C214.011 423.879 214.382 425.772 215.164 427.695C216.067 429.913 217.226 431.668 218.647 432.964C220.069 434.26 221.715 435.224 223.594 435.86C225.47 436.496 227.57 436.878 229.891 437C232.212 437.126 234.74 437.123 237.467 436.991C239.05 436.902 240.424 436.911 241.589 437.018C242.754 437.126 243.761 437.35 244.609 437.69C245.458 438.033 246.163 438.511 246.724 439.126C247.286 439.741 247.761 440.523 248.146 441.476C248.487 442.315 248.654 443.148 248.651 443.981C248.648 444.814 248.463 445.608 248.086 446.366C247.713 447.124 247.154 447.826 246.408 448.471C245.661 449.116 244.717 449.668 243.57 450.137C242.572 450.543 241.538 450.808 240.469 450.943C239.4 451.074 238.357 450.97 237.341 450.629C236.323 450.292 235.37 449.677 234.486 448.784C233.598 447.895 232.828 446.644 232.174 445.037L221.608 449.319C222.71 452.032 224.096 454.188 225.763 455.776C227.43 457.368 229.255 458.505 231.239 459.189C233.222 459.875 235.295 460.174 237.458 460.084C239.621 459.998 241.759 459.646 243.865 459.028L246.593 465.748L252.406 463.389L249.664 456.636C251.776 455.543 253.583 454.281 255.088 452.85C256.483 451.528 257.574 450.107 258.362 448.578C258.425 448.456 258.488 448.33 258.548 448.205C259.345 446.539 259.769 444.772 259.82 442.906C259.874 441.04 259.495 439.111 258.685 437.12Z" fill="#FFA412"/>
<path d="M628.606 200.894C628.188 202.235 626.76 203.091 625.266 202.647C611.806 198.449 597.548 195.675 583.481 194.057C568.043 192.284 552.286 191.941 544.866 192.457C543.396 192.55 542.132 191.43 542.04 189.958C541.95 188.489 543.067 187.226 544.537 187.137C556.071 186.45 572.291 187.358 584.539 188.797C598.582 190.451 613.117 193.275 626.852 197.556C628.259 197.995 629.045 199.488 628.606 200.894Z" fill="#2B478B"/>
<path d="M791.892 431.979C791.656 431.474 791.364 431.014 791.023 430.599L791.02 430.596C790.766 430.286 790.485 430.002 790.175 429.74L788.899 428.447L788.565 428.695C782.034 425.5 768.544 428.886 754.902 437.789C738.412 448.548 727.826 463.366 730.879 471.238L730.413 471.582L732.247 473.409C732.333 473.501 732.426 473.591 732.519 473.677L732.569 473.728L732.584 473.74C733.047 474.164 733.579 474.531 734.171 474.842L734.18 474.848C740.626 478.224 754.259 474.863 768.054 465.861C784.851 454.902 795.525 439.732 791.892 431.979Z" fill="#FFA412"/>
<path d="M752.936 435.827C769.737 424.867 786.298 422.267 789.93 430.017C793.563 437.771 782.889 452.94 766.092 463.903C749.292 474.863 732.731 477.466 729.098 469.713C725.463 461.959 736.136 446.787 752.936 435.827Z" fill="#FFB93E"/>
<path d="M740.874 470.871C739.512 470.871 738.269 470.719 737.176 470.402C735.082 469.799 733.627 468.641 732.856 466.957C731.342 463.655 732.746 458.756 736.808 453.158C740.778 447.689 746.836 442.141 753.868 437.538C764.667 430.471 775.651 427.056 781.849 428.841C783.943 429.444 785.398 430.602 786.169 432.286C787.683 435.588 786.279 440.488 782.217 446.088C778.247 451.558 772.189 457.105 765.157 461.709C756.264 467.53 747.243 470.871 740.874 470.871ZM778.19 429.611C772.099 429.611 763.152 432.934 754.54 438.571C747.631 443.094 741.686 448.53 737.803 453.884C734.069 459.031 732.674 463.61 733.973 466.447C734.589 467.787 735.781 468.722 737.516 469.22C738.487 469.501 739.601 469.635 740.832 469.635C746.923 469.635 755.87 466.312 764.482 460.676C771.391 456.153 777.336 450.716 781.219 445.363C784.953 440.216 786.348 435.636 785.049 432.8C784.433 431.459 783.241 430.525 781.506 430.026C780.535 429.749 779.421 429.611 778.19 429.611Z" fill="#FFA412"/>
<path d="M752.745 453.86C753.265 453.633 753.725 453.382 754.128 453.11C754.531 452.838 754.905 452.522 755.248 452.158C755.592 451.794 755.914 451.379 756.219 450.907C756.524 450.435 756.832 449.892 757.139 449.271C757.68 448.199 758.235 447.199 758.806 446.267C759.374 445.336 760.01 444.476 760.715 443.682C761.42 442.888 762.22 442.159 763.126 441.494C764.031 440.828 765.085 440.231 766.295 439.699C767.344 439.24 768.29 438.944 769.13 438.813C769.969 438.681 770.689 438.708 771.287 438.887C771.884 439.066 772.353 439.392 772.691 439.861C773.028 440.329 773.216 440.938 773.249 441.691L777.213 439.95L777.007 442.082L772.989 443.846C772.768 444.676 772.398 445.5 771.881 446.324C771.364 447.145 770.719 447.936 769.948 448.692C769.178 449.447 768.284 450.16 767.266 450.832C766.25 451.504 765.124 452.11 763.89 452.653L764.264 448.802C765.745 448.151 766.875 447.447 767.651 446.682C768.428 445.921 768.852 445.169 768.924 444.431C768.963 444.031 768.912 443.724 768.774 443.509C768.637 443.294 768.431 443.157 768.159 443.097C767.887 443.037 767.559 443.049 767.17 443.136C766.782 443.222 766.361 443.363 765.904 443.563C765.447 443.763 765.028 443.989 764.649 444.24C764.27 444.491 763.911 444.796 763.577 445.151C763.242 445.506 762.916 445.924 762.603 446.408C762.289 446.888 761.961 447.462 761.611 448.124C761.046 449.196 760.476 450.199 759.902 451.128C759.329 452.056 758.687 452.919 757.976 453.716C757.265 454.513 756.458 455.245 755.556 455.908C754.651 456.573 753.602 457.167 752.404 457.693C751.317 458.171 750.355 458.472 749.516 458.598C748.676 458.723 747.962 458.693 747.38 458.508C746.794 458.323 746.343 457.989 746.024 457.502C745.704 457.015 745.528 456.397 745.495 455.648L741.809 457.266L742.015 455.146L745.683 453.537C745.865 452.752 746.176 451.931 746.612 451.08C747.048 450.229 747.643 449.384 748.393 448.542C749.142 447.703 750.063 446.891 751.156 446.103C752.249 445.318 753.537 444.599 755.018 443.948L754.645 447.799C753.77 448.184 753.029 448.587 752.425 449.008C751.822 449.429 751.332 449.856 750.953 450.286C750.573 450.716 750.296 451.137 750.119 451.552C749.943 451.964 749.838 452.355 749.803 452.719C749.764 453.137 749.806 453.468 749.937 453.713C750.065 453.958 750.263 454.125 750.525 454.215C750.788 454.304 751.111 454.316 751.487 454.251C751.87 454.194 752.288 454.063 752.745 453.86Z" fill="#FFA412"/>
<path d="M665.082 116.592C665.232 116.273 665.417 115.98 665.635 115.717L665.638 115.714C665.799 115.517 665.979 115.338 666.176 115.171L666.985 114.35L667.197 114.508C671.341 112.481 679.902 114.631 688.559 120.279C699.023 127.107 705.741 136.508 703.803 141.503L704.098 141.721L702.933 142.88C702.877 142.939 702.82 142.996 702.76 143.05L702.727 143.083L702.718 143.089C702.423 143.357 702.088 143.59 701.712 143.787L701.706 143.79C697.613 145.934 688.965 143.799 680.213 138.088C669.548 131.138 662.776 121.512 665.082 116.592Z" fill="#FFA412"/>
<path d="M689.799 119.034C679.14 112.078 668.628 110.43 666.325 115.347C664.019 120.267 670.794 129.893 681.452 136.849C692.111 143.805 702.623 145.453 704.926 140.536C707.232 135.616 700.46 125.988 689.799 119.034Z" fill="#FFB93E"/>
<path d="M682.044 135.455C677.581 132.535 673.736 129.015 671.218 125.543C668.64 121.99 667.75 118.879 668.712 116.786C669.202 115.717 670.125 114.983 671.454 114.601C675.388 113.469 682.357 115.634 689.21 120.118C693.673 123.038 697.517 126.558 700.036 130.03C702.614 133.583 703.504 136.694 702.542 138.786C702.052 139.855 701.129 140.59 699.8 140.972C699.107 141.172 698.318 141.267 697.455 141.267C693.413 141.27 687.687 139.151 682.044 135.455ZM671.669 115.353C670.57 115.67 669.811 116.261 669.423 117.115C668.595 118.915 669.483 121.82 671.851 125.086C674.316 128.48 678.089 131.932 682.471 134.801C687.934 138.377 693.613 140.485 697.479 140.485C698.258 140.485 698.966 140.399 699.582 140.222C700.681 139.906 701.437 139.312 701.828 138.461C702.655 136.661 701.768 133.756 699.399 130.49C696.935 127.095 693.162 123.644 688.78 120.775C683.316 117.198 677.638 115.09 673.772 115.09C672.992 115.09 672.285 115.177 671.669 115.353Z" fill="#FFA412"/>
<path d="M690.716 130.729C690.955 130.77 691.161 130.761 691.328 130.705C691.495 130.648 691.621 130.543 691.702 130.388C691.785 130.233 691.812 130.021 691.788 129.758C691.764 129.528 691.699 129.281 691.588 129.018C691.478 128.755 691.301 128.489 691.059 128.215C690.82 127.943 690.507 127.671 690.124 127.403C689.742 127.134 689.273 126.88 688.717 126.635L688.481 124.19C689.422 124.602 690.238 125.059 690.931 125.558C691.624 126.056 692.209 126.573 692.684 127.104C693.159 127.636 693.536 128.173 693.814 128.713C694.091 129.254 694.289 129.773 694.402 130.272L696.729 131.293L696.861 132.636L694.522 131.609C694.501 132.087 694.387 132.478 694.184 132.786C693.981 133.093 693.694 133.305 693.324 133.424C692.953 133.541 692.502 133.562 691.967 133.481C691.436 133.401 690.823 133.209 690.133 132.908C689.375 132.574 688.705 132.197 688.132 131.773C687.558 131.352 687.047 130.887 686.596 130.382C686.145 129.878 685.739 129.328 685.375 128.74C685.01 128.152 684.649 127.516 684.29 126.835C684.069 126.414 683.86 126.05 683.663 125.746C683.466 125.441 683.26 125.175 683.045 124.949C682.833 124.722 682.606 124.531 682.364 124.369C682.125 124.211 681.859 124.068 681.569 123.939C681.279 123.811 681.01 123.722 680.765 123.668C680.52 123.614 680.311 123.605 680.138 123.644C679.965 123.683 679.836 123.769 679.747 123.907C679.66 124.044 679.627 124.238 679.651 124.492C679.696 124.961 679.965 125.435 680.458 125.919C680.951 126.403 681.668 126.85 682.609 127.262L682.844 129.707C682.062 129.364 681.348 128.979 680.703 128.552C680.057 128.125 679.49 127.674 679 127.194C678.51 126.713 678.104 126.214 677.775 125.692C677.447 125.169 677.214 124.647 677.07 124.119L674.519 122.999L674.388 121.647L676.903 122.751C676.924 122.274 677.043 121.888 677.258 121.59C677.473 121.294 677.769 121.088 678.149 120.972C678.528 120.858 678.985 120.841 679.517 120.924C680.051 121.008 680.649 121.196 681.315 121.488C682.083 121.826 682.755 122.205 683.325 122.626C683.899 123.047 684.41 123.51 684.855 124.014C685.3 124.519 685.706 125.065 686.065 125.656C686.426 126.247 686.779 126.88 687.122 127.561C687.319 127.955 687.513 128.301 687.708 128.6C687.902 128.898 688.108 129.164 688.326 129.394C688.544 129.624 688.78 129.827 689.037 129.997C689.294 130.17 689.587 130.328 689.915 130.472C690.211 130.603 690.477 130.687 690.716 130.729Z" fill="#FFA412"/>
<path d="M826.825 486.999H1.17891C0.530689 486.999 0.00195312 486.47 0.00195312 485.822V484.718C0.00195312 484.07 0.530689 483.542 1.17891 483.542H826.825C827.473 483.542 828.002 484.07 828.002 484.718V485.822C828.002 486.467 827.47 486.999 826.825 486.999Z" fill="#2E3552"/>
<path d="M394.077 420.064C394.226 419.744 394.412 419.452 394.63 419.189L394.633 419.186C394.794 418.989 394.973 418.81 395.17 418.643L395.98 417.822L396.192 417.98C400.335 415.953 408.897 418.102 417.554 423.751C428.018 430.579 434.736 439.98 432.797 444.975L433.093 445.193L431.928 446.351C431.871 446.411 431.814 446.468 431.755 446.521L431.722 446.554L431.713 446.56C431.417 446.829 431.083 447.062 430.706 447.259L430.7 447.262C426.608 449.405 417.96 447.271 409.207 441.559C398.546 434.609 391.774 424.984 394.077 420.064Z" fill="#FFA412"/>
<path d="M418.796 422.506C408.138 415.55 397.626 413.902 395.323 418.819C393.017 423.739 399.792 433.364 410.45 440.32C421.108 447.277 431.62 448.925 433.924 444.008C436.227 439.09 429.458 429.462 418.796 422.506Z" fill="#FFB93E"/>
<path d="M411.042 438.929C406.579 436.009 402.734 432.489 400.216 429.017C397.638 425.464 396.748 422.354 397.71 420.261C398.2 419.192 399.123 418.457 400.452 418.075C404.386 416.944 411.355 419.108 418.208 423.593C422.671 426.512 426.515 430.032 429.034 433.504C431.612 437.057 432.502 440.168 431.54 442.261C431.05 443.33 430.127 444.064 428.798 444.446C428.105 444.646 427.316 444.742 426.453 444.742C422.411 444.742 416.684 442.622 411.042 438.929ZM400.667 418.825C399.568 419.141 398.809 419.732 398.421 420.586C397.593 422.386 398.48 425.291 400.849 428.557C403.314 431.952 407.087 435.403 411.469 438.272C416.932 441.849 422.611 443.957 426.477 443.957C427.256 443.957 427.964 443.87 428.58 443.694C429.679 443.378 430.435 442.783 430.826 441.933C431.653 440.132 430.766 437.227 428.397 433.961C425.933 430.567 422.16 427.115 417.778 424.246C412.314 420.67 406.635 418.562 402.77 418.562C401.99 418.562 401.282 418.649 400.667 418.825Z" fill="#FFA412"/>
<path d="M419.713 434.2C419.952 434.242 420.158 434.233 420.326 434.176C420.493 434.12 420.618 434.015 420.699 433.86C420.783 433.705 420.809 433.493 420.786 433.23C420.762 433 420.696 432.752 420.585 432.489C420.475 432.227 420.299 431.961 420.057 431.686C419.818 431.415 419.504 431.143 419.122 430.874C418.739 430.606 418.27 430.352 417.715 430.107L417.479 427.662C418.42 428.074 419.235 428.531 419.928 429.029C420.621 429.528 421.207 430.044 421.682 430.576C422.157 431.107 422.533 431.645 422.811 432.185C423.089 432.725 423.286 433.245 423.399 433.743L425.726 434.764L425.858 436.108L423.519 435.081C423.498 435.559 423.384 435.95 423.181 436.257C422.978 436.565 422.691 436.777 422.321 436.896C421.951 437.015 421.499 437.033 420.965 436.953C420.433 436.872 419.821 436.681 419.131 436.38C418.372 436.045 417.703 435.669 417.129 435.245C416.556 434.824 416.045 434.358 415.594 433.854C415.143 433.349 414.736 432.8 414.372 432.212C414.008 431.624 413.646 430.988 413.288 430.307C413.067 429.886 412.858 429.522 412.657 429.217C412.46 428.913 412.254 428.647 412.039 428.42C411.827 428.193 411.6 428.002 411.358 427.841C411.119 427.683 410.853 427.539 410.563 427.411C410.274 427.283 410.005 427.193 409.76 427.139C409.515 427.086 409.306 427.077 409.132 427.116C408.959 427.154 408.831 427.241 408.741 427.378C408.652 427.516 408.622 427.71 408.646 427.963C408.69 428.432 408.959 428.907 409.452 429.39C409.945 429.874 410.662 430.322 411.603 430.734L411.839 433.179C411.056 432.836 410.342 432.451 409.697 432.024C409.052 431.597 408.484 431.146 407.994 430.665C407.504 430.185 407.098 429.686 406.77 429.164C406.441 428.641 406.208 428.119 406.065 427.59L403.514 426.471L403.382 425.118L405.897 426.223C405.918 425.745 406.038 425.36 406.253 425.062C406.468 424.766 406.764 424.56 407.143 424.444C407.522 424.33 407.979 424.312 408.511 424.396C409.046 424.479 409.643 424.667 410.309 424.96C411.077 425.297 411.749 425.677 412.32 426.097C412.893 426.518 413.404 426.981 413.849 427.486C414.294 427.99 414.701 428.537 415.059 429.128C415.421 429.719 415.773 430.352 416.117 431.033C416.314 431.427 416.508 431.773 416.702 432.071C416.896 432.37 417.102 432.636 417.32 432.866C417.538 433.096 417.774 433.299 418.031 433.469C418.288 433.642 418.581 433.8 418.91 433.943C419.208 434.075 419.474 434.161 419.713 434.2Z" fill="#FFA412"/>
</svg>
