<svg width="13" height="13" viewBox="0 0 13 13" fill="none" xmlns="http://www.w3.org/2000/svg">
<circle cx="6.5" cy="6.5" r="6.5" fill="#27AE60"/>
<path d="M5.26079 7.74302L3.9054 6.38615C3.86996 6.35024 3.82775 6.32173 3.78122 6.30226C3.73468 6.2828 3.68476 6.27278 3.63433 6.27278C3.5839 6.27278 3.53397 6.2828 3.48743 6.30226C3.4409 6.32173 3.39869 6.35024 3.36325 6.38615C3.32737 6.42163 3.29889 6.46389 3.27945 6.51047C3.26001 6.55706 3.25 6.60704 3.25 6.65753C3.25 6.70801 3.26001 6.75799 3.27945 6.80458C3.29889 6.85116 3.32737 6.89342 3.36325 6.9289L4.98584 8.55326C5.13687 8.70446 5.38084 8.70446 5.53187 8.55326L9.63675 4.44777C9.67263 4.41229 9.70111 4.37004 9.72055 4.32345C9.73999 4.27687 9.75 4.22689 9.75 4.1764C9.75 4.12592 9.73999 4.07593 9.72055 4.02935C9.70111 3.98277 9.67263 3.94051 9.63675 3.90503C9.60131 3.86911 9.5591 3.8406 9.51257 3.82114C9.46603 3.80168 9.4161 3.79166 9.36567 3.79166C9.31524 3.79166 9.26532 3.80168 9.21878 3.82114C9.17225 3.8406 9.13004 3.86911 9.0946 3.90503L5.26079 7.74302Z" fill="white"/>
</svg>
