<svg width="27" height="25" viewBox="0 0 27 25" fill="none" xmlns="http://www.w3.org/2000/svg">
<path d="M1.5 7.35415H21L18.6 9.11874C18.4424 9.2346 18.3097 9.37976 18.2093 9.54592C18.1089 9.71208 18.0429 9.896 18.0151 10.0872C17.9872 10.2783 17.998 10.473 18.0469 10.6601C18.0958 10.8471 18.1818 11.0229 18.3 11.1774C18.4397 11.36 18.6209 11.5083 18.8292 11.6104C19.0375 11.7125 19.2671 11.7656 19.5 11.7656C19.8246 11.7656 20.1404 11.6624 20.4 11.4715L26.4 7.06005C26.5835 6.92282 26.7322 6.74594 26.8345 6.54318C26.9368 6.34042 26.9901 6.11724 26.9901 5.89102C26.9901 5.66479 26.9368 5.44161 26.8345 5.23885C26.7322 5.03609 26.5835 4.85921 26.4 4.72198L20.61 0.310516C20.2957 0.0706679 19.8971 -0.0369655 19.5019 0.0112942C19.1067 0.0595539 18.7472 0.259754 18.5025 0.567852C18.2578 0.87595 18.148 1.26671 18.1973 1.65416C18.2465 2.04162 18.4507 2.39404 18.765 2.63389L21.12 4.41318H1.5C1.10218 4.41318 0.720644 4.5681 0.43934 4.84387C0.158035 5.11964 0 5.49367 0 5.88366C0 6.27366 0.158035 6.64768 0.43934 6.92345C0.720644 7.19922 1.10218 7.35415 1.5 7.35415ZM25.5 17.6476H6L8.4 15.883C8.71826 15.649 8.92866 15.3006 8.98492 14.9145C9.04119 14.5285 8.9387 14.1363 8.7 13.8243C8.46131 13.5123 8.10596 13.306 7.71213 13.2509C7.31831 13.1957 6.91826 13.2962 6.6 13.5302L0.6 17.9417C0.41654 18.0789 0.267852 18.2558 0.165505 18.4585C0.0631588 18.6613 0.00991416 18.8845 0.00991416 19.1107C0.00991416 19.3369 0.0631588 19.5601 0.165505 19.7629C0.267852 19.9656 0.41654 20.1425 0.6 20.2797L6.39 24.6912C6.65183 24.8904 6.97358 24.999 7.305 25C7.53408 24.9995 7.75999 24.9475 7.9654 24.8481C8.17081 24.7487 8.35026 24.6045 8.49 24.4265C8.73359 24.12 8.8435 23.7313 8.79572 23.3456C8.74794 22.9598 8.54635 22.6083 8.235 22.3678L5.88 20.5885H25.5C25.8978 20.5885 26.2794 20.4336 26.5607 20.1578C26.842 19.8821 27 19.508 27 19.118C27 18.7281 26.842 18.354 26.5607 18.0783C26.2794 17.8025 25.8978 17.6476 25.5 17.6476Z" fill="#5E5E5E"/>
</svg>
