<svg width="310" height="213" viewBox="0 0 310 213" fill="none" xmlns="http://www.w3.org/2000/svg">
<path opacity="0.1" d="M180.117 35.1191C160.244 34.4125 141.314 27.8252 123.24 20.6192C105.167 13.4133 87.2602 5.4266 67.8642 1.60782C55.387 -0.847309 41.1184 -1.19372 31.0665 5.67129C21.3904 12.2696 18.2656 23.6902 16.5866 34.264C15.3219 42.237 14.5784 50.6086 18.0406 58.0647C20.4466 63.2417 24.7181 67.5911 27.6728 72.5481C37.947 89.7999 30.6906 111.074 19.5468 127.919C14.3342 135.82 8.26302 143.359 4.23291 151.769C0.202807 160.179 -1.66273 169.818 1.86259 178.399C5.36047 186.905 13.6895 193.292 22.7127 197.784C41.0416 206.912 62.6406 209.524 83.702 211.003C130.324 214.277 177.196 212.859 223.941 211.44C241.241 210.912 258.615 210.382 275.635 207.635C285.084 206.109 294.84 203.69 301.698 197.845C310.409 190.422 312.568 177.866 306.73 168.565C296.949 152.968 269.88 149.097 263.038 132.348C259.271 123.132 263.139 112.867 268.612 104.305C280.354 85.9702 300.036 69.884 301.073 48.9233C301.786 34.528 292.324 20.1106 277.696 13.3006C262.36 6.15241 241.098 7.05969 229.784 18.8762C218.136 31.0638 197.664 35.7459 180.117 35.1191Z" fill="#FCC94B"/>
<g clip-path="url(#clip0)">
<path d="M36.377 167.15L34.7856 160.86C31.9639 159.661 29.0771 158.623 26.1387 157.75L25.9378 160.674L25.123 157.453C21.479 156.41 19 155.95 19 155.95C19 155.95 22.3486 168.713 29.372 178.471L37.5559 179.912L31.1981 180.83C32.0819 181.896 33.0318 182.905 34.042 183.851C44.2591 193.357 55.639 197.718 59.4598 193.592C63.2806 189.466 58.0953 178.416 47.8782 168.911C44.7108 165.964 40.7318 163.599 36.7489 161.738L36.377 167.15Z" fill="#E6E6E6"/>
<path d="M51.5116 160.319L53.3937 154.109C51.5963 151.621 49.6604 149.237 47.5951 146.967L45.9153 149.366L46.8789 146.186C44.2974 143.406 42.4121 141.728 42.4121 141.728C42.4121 141.728 38.6966 154.389 39.6769 166.38L45.9396 171.854L40.0232 169.346C40.2302 170.716 40.523 172.072 40.8999 173.405C44.7441 186.836 52.2367 196.465 57.6351 194.913C63.0336 193.36 64.2935 181.215 60.4494 167.784C59.2576 163.621 57.071 159.535 54.6213 155.878L51.5116 160.319Z" fill="#E6E6E6"/>
<path d="M284 195.847H19.0239V196.518H284V195.847Z" fill="#3F3D56"/>
<path d="M60.8885 126.449C60.8885 126.449 58.825 151.318 58.382 156.646C58.0782 159.987 57.3332 163.272 56.1667 166.416C56.1667 166.416 55.2806 168.192 55.2806 169.968V192.616C55.2806 192.616 53.5084 192.616 53.9515 194.392C54.3945 196.169 54.8376 199.277 54.8376 199.277H61.4833C61.4833 199.277 61.0403 197.945 62.3694 197.501C63.6986 197.057 62.3694 193.504 62.3694 193.504L69.4582 166.86L80.0914 144.657C80.0914 144.657 86.2941 164.64 87.6233 166.86C87.6233 166.86 92.4968 191.728 93.3829 193.948C94.269 196.169 94.7121 196.169 94.269 197.057C93.826 197.945 93.826 198.833 94.269 199.277C94.7121 199.721 103.13 199.277 103.13 199.277L100.915 167.748L96.9273 130.002L76.547 123.785L60.8885 126.449Z" fill="#2F2E41"/>
<path d="M59.7107 195.724C59.7107 195.724 57.4954 187.731 53.951 193.948C50.4066 200.165 50.4066 202.385 50.4066 202.385C50.4066 202.385 44.647 210.823 52.6219 209.934C60.5968 209.046 58.8246 205.05 58.8246 205.05C58.8246 205.05 61.9259 203.273 61.9259 201.941C61.9259 200.609 59.7107 195.724 59.7107 195.724Z" fill="#2F2E41"/>
<path d="M95.5981 194.836C95.5981 194.836 97.8133 186.843 101.358 193.06C104.902 199.277 104.902 201.497 104.902 201.497C104.902 201.497 110.662 209.934 102.687 209.046C94.712 208.158 96.4842 204.162 96.4842 204.162C96.4842 204.162 93.3828 202.385 93.3828 201.053C93.3828 199.721 95.5981 194.836 95.5981 194.836Z" fill="#2F2E41"/>
<path d="M74.7745 66.5005C74.7745 66.5005 75.6606 72.2734 73.0023 73.6056C70.344 74.9378 78.762 79.8225 80.9772 79.8225C83.1925 79.8225 87.1799 75.3819 87.1799 75.3819C87.1799 75.3819 84.9647 68.7208 85.4077 67.3886L74.7745 66.5005Z" fill="#A0616A"/>
<path d="M79.6483 70.9411C84.7868 70.9411 88.9523 66.766 88.9523 61.6157C88.9523 56.4654 84.7868 52.2903 79.6483 52.2903C74.5098 52.2903 70.3442 56.4654 70.3442 61.6157C70.3442 66.766 74.5098 70.9411 79.6483 70.9411Z" fill="#A0616A"/>
<path d="M97.8132 80.7105L86.7373 73.9846C86.7373 73.9846 80.4355 81.1546 73.6176 73.1614L61.9262 76.2699L63.6984 106.466C63.6984 106.466 61.0401 118.456 61.9262 120.677C62.8123 122.897 59.7109 123.785 60.597 124.229C61.4831 124.673 60.597 127.782 60.597 127.782C60.597 127.782 77.876 136.663 96.9271 130.002L95.1549 124.229C95.3961 123.475 95.4413 122.671 95.2863 121.894C95.1312 121.117 94.7811 120.392 94.2688 119.789C94.2688 119.789 96.041 117.124 93.8258 114.904C93.8258 114.904 94.7119 110.907 92.4966 109.131L92.0536 102.914L93.3827 99.8055L97.8132 80.7105Z" fill="#CFCCE0"/>
<path d="M74.8868 57.2857C74.8868 57.2857 73.7775 59.6917 78.2145 58.7293C78.2145 58.7293 79.8783 59.6917 79.8783 58.2481C79.8783 58.2481 82.0968 60.6542 82.6514 59.2105C83.206 57.7669 84.3153 59.6917 84.3153 59.6917L85.4245 57.2857L86.5337 58.7293H90.416C90.416 58.7293 91.5252 49.1052 78.2145 50.0677C64.9037 51.0301 71.4519 66.2785 71.4519 66.2785C71.4519 66.2785 71.5591 63.5414 72.6683 64.985C73.7775 66.4286 74.8868 57.2857 74.8868 57.2857Z" fill="#2F2E41"/>
<path d="M101.8 98.4734L102.243 107.799C102.243 107.799 104.016 125.117 100.471 132.667V136.663C100.471 136.663 99.5851 146.877 95.1546 146.433C90.7241 145.989 96.4838 131.778 96.4838 131.778L95.5977 112.239L94.7116 101.138L101.8 98.4734Z" fill="#A0616A"/>
<path d="M92.9396 81.1548L97.3592 80.4351C100.543 83.5011 102.712 87.4721 103.573 91.8124C104.902 98.9175 105.345 100.25 105.345 100.25L94.7118 102.914L88.9521 91.8124L92.9396 81.1548Z" fill="#CFCCE0"/>
<path d="M143.828 76.0869H73.9102V110.898H143.828V76.0869Z" fill="white"/>
<path d="M81.5448 78.1803C79.7485 77.0977 77.5826 77.1804 76.7593 77.2631C77.0728 78.0303 78.0137 79.9875 79.8099 81.0707C81.6105 82.1561 83.7735 82.0709 84.5957 81.9888C84.2822 81.2218 83.3413 79.2638 81.5448 78.1803Z" fill="#282935"/>
<path d="M89.985 99.6643H78.7583C78.4263 99.6639 78.0975 99.7292 77.7907 99.8562C77.484 99.9833 77.2052 100.17 76.9703 100.405C76.7355 100.64 76.5492 100.919 76.422 101.227C76.2949 101.534 76.2295 101.863 76.2295 102.196C76.2295 102.529 76.2949 102.858 76.422 103.166C76.5492 103.473 76.7355 103.752 76.9703 103.987C77.2052 104.222 77.484 104.409 77.7907 104.536C78.0975 104.663 78.4263 104.728 78.7583 104.728H89.985C90.317 104.728 90.6457 104.663 90.9525 104.536C91.2593 104.409 91.5381 104.222 91.7729 103.987C92.0078 103.752 92.1941 103.473 92.3212 103.166C92.4483 102.858 92.5138 102.529 92.5138 102.196C92.5138 101.863 92.4483 101.534 92.3212 101.227C92.1941 100.919 92.0078 100.64 91.7729 100.405C91.5381 100.17 91.2593 99.9833 90.9525 99.8562C90.6457 99.7292 90.317 99.6639 89.985 99.6643Z" fill="#282935"/>
<path d="M140.824 72.9395H77.879C77.1468 72.9395 76.4217 73.084 75.7453 73.3649C75.0688 73.6457 74.4541 74.0574 73.9363 74.5763C73.4186 75.0953 73.0079 75.7113 72.7277 76.3894C72.4474 77.0674 72.3032 77.7942 72.3032 78.5281V109.267C72.3032 110.749 72.8907 112.17 73.9363 113.218C74.982 114.266 76.4002 114.855 77.879 114.855H140.824C142.303 114.855 143.721 114.266 144.767 113.218C145.812 112.17 146.4 110.749 146.4 109.267V78.5281C146.4 77.7942 146.255 77.0674 145.975 76.3894C145.695 75.7113 145.284 75.0953 144.767 74.5763C144.249 74.0574 143.634 73.6457 142.958 73.3649C142.281 73.084 141.556 72.9395 140.824 72.9395ZM76.3217 76.7517C76.446 76.7292 79.3934 76.2265 81.834 77.6984C84.2745 79.1701 85.2122 82.0159 85.2508 82.1363L85.3495 82.4431L85.0328 82.4994C84.581 82.5701 84.1241 82.6038 83.6669 82.6C82.2162 82.6278 80.7845 82.2661 79.5203 81.5525C77.0798 80.0811 76.1423 77.2352 76.1036 77.1149L76.0049 76.8081L76.3217 76.7517ZM89.9853 105.29H78.7586C77.9398 105.29 77.1545 104.964 76.5755 104.384C75.9965 103.804 75.6712 103.017 75.6712 102.196C75.6712 101.375 75.9965 100.588 76.5755 100.008C77.1545 99.4276 77.9398 99.1016 78.7586 99.1016H89.9853C90.8041 99.1016 91.5894 99.4276 92.1684 100.008C92.7474 100.588 93.0727 101.375 93.0727 102.196C93.0727 103.017 92.7474 103.804 92.1684 104.384C91.5894 104.964 90.8041 105.29 89.9853 105.29ZM141.067 104.728C141.064 105.622 140.709 106.479 140.078 107.112C139.447 107.744 138.591 108.101 137.699 108.104H129.279C128.386 108.101 127.531 107.744 126.9 107.112C126.269 106.479 125.914 105.622 125.911 104.728V99.6642C125.914 98.7697 126.269 97.9126 126.9 97.2801C127.531 96.6476 128.386 96.2911 129.279 96.2885H137.699C138.591 96.2911 139.447 96.6476 140.078 97.2801C140.709 97.9126 141.064 98.7697 141.067 99.6642V104.728Z" fill="#5E5E5E"/>
<path d="M131.945 103.743H128.296C128.036 103.743 127.786 103.847 127.602 104.032C127.417 104.216 127.314 104.467 127.314 104.728C127.314 104.989 127.417 105.24 127.602 105.424C127.786 105.609 128.036 105.713 128.296 105.713H131.945C132.206 105.713 132.455 105.609 132.64 105.424C132.824 105.24 132.927 104.989 132.927 104.728C132.927 104.467 132.824 104.216 132.64 104.032C132.455 103.847 132.206 103.743 131.945 103.743ZM131.945 105.15H128.296C128.241 105.15 128.186 105.139 128.135 105.118C128.084 105.097 128.037 105.066 127.998 105.027C127.959 104.988 127.928 104.941 127.906 104.89C127.885 104.838 127.874 104.784 127.874 104.728C127.874 104.672 127.885 104.618 127.906 104.566C127.928 104.515 127.959 104.468 127.998 104.429C128.037 104.39 128.084 104.359 128.135 104.338C128.186 104.317 128.241 104.306 128.296 104.306H131.945C132.056 104.306 132.163 104.351 132.242 104.43C132.321 104.509 132.365 104.616 132.365 104.728C132.365 104.84 132.321 104.947 132.242 105.026C132.163 105.105 132.056 105.15 131.945 105.15Z" fill="#282935"/>
<path d="M138.681 103.743H135.032C134.772 103.743 134.522 103.847 134.338 104.032C134.153 104.216 134.05 104.467 134.05 104.728C134.05 104.989 134.153 105.24 134.338 105.424C134.522 105.609 134.772 105.713 135.032 105.713H138.681C138.941 105.713 139.191 105.609 139.375 105.424C139.56 105.24 139.663 104.989 139.663 104.728C139.663 104.467 139.56 104.216 139.375 104.032C139.191 103.847 138.941 103.743 138.681 103.743ZM138.681 105.15H135.032C134.977 105.15 134.922 105.139 134.871 105.118C134.819 105.097 134.773 105.066 134.734 105.027C134.695 104.988 134.663 104.941 134.642 104.89C134.621 104.838 134.61 104.784 134.61 104.728C134.61 104.672 134.621 104.618 134.642 104.566C134.663 104.515 134.695 104.468 134.734 104.429C134.773 104.39 134.819 104.359 134.871 104.338C134.922 104.317 134.977 104.306 135.032 104.306H138.681C138.792 104.306 138.899 104.351 138.978 104.43C139.057 104.509 139.101 104.616 139.101 104.728C139.101 104.84 139.057 104.947 138.978 105.026C138.899 105.105 138.792 105.15 138.681 105.15Z" fill="#282935"/>
<path d="M131.945 101.211H128.296C128.036 101.211 127.786 101.315 127.602 101.5C127.417 101.684 127.314 101.935 127.314 102.196C127.314 102.457 127.417 102.708 127.602 102.892C127.786 103.077 128.036 103.181 128.296 103.181H131.945C132.206 103.181 132.455 103.077 132.64 102.892C132.824 102.708 132.927 102.457 132.927 102.196C132.927 101.935 132.824 101.684 132.64 101.5C132.455 101.315 132.206 101.211 131.945 101.211ZM131.945 102.618H128.296C128.241 102.618 128.186 102.607 128.135 102.586C128.084 102.565 128.038 102.534 127.999 102.494C127.96 102.455 127.929 102.409 127.907 102.358C127.886 102.306 127.875 102.251 127.875 102.196C127.875 102.141 127.886 102.086 127.907 102.035C127.929 101.983 127.96 101.937 127.999 101.898C128.038 101.858 128.084 101.827 128.135 101.806C128.186 101.785 128.241 101.774 128.296 101.774H131.945C132 101.774 132.055 101.785 132.106 101.806C132.157 101.827 132.204 101.858 132.243 101.898C132.282 101.937 132.313 101.983 132.334 102.035C132.355 102.086 132.366 102.141 132.366 102.196C132.366 102.251 132.355 102.306 132.334 102.358C132.313 102.409 132.282 102.455 132.243 102.494C132.204 102.534 132.157 102.565 132.106 102.586C132.055 102.607 132 102.618 131.945 102.618Z" fill="#282935"/>
<path d="M138.681 101.211H135.032C134.772 101.211 134.522 101.315 134.338 101.5C134.153 101.684 134.05 101.935 134.05 102.196C134.05 102.457 134.153 102.708 134.338 102.892C134.522 103.077 134.772 103.181 135.032 103.181H138.681C138.941 103.181 139.191 103.077 139.375 102.892C139.56 102.708 139.663 102.457 139.663 102.196C139.663 101.935 139.56 101.684 139.375 101.5C139.191 101.315 138.941 101.211 138.681 101.211ZM138.681 102.618H135.032C134.977 102.618 134.922 102.607 134.871 102.586C134.82 102.565 134.774 102.534 134.734 102.494C134.695 102.455 134.664 102.409 134.643 102.358C134.622 102.306 134.611 102.251 134.611 102.196C134.611 102.141 134.622 102.086 134.643 102.035C134.664 101.983 134.695 101.937 134.734 101.898C134.774 101.858 134.82 101.827 134.871 101.806C134.922 101.785 134.977 101.774 135.032 101.774H138.681C138.736 101.774 138.791 101.785 138.842 101.806C138.893 101.827 138.939 101.858 138.979 101.898C139.018 101.937 139.049 101.983 139.07 102.035C139.091 102.086 139.102 102.141 139.102 102.196C139.102 102.251 139.091 102.306 139.07 102.358C139.049 102.409 139.018 102.455 138.979 102.494C138.939 102.534 138.893 102.565 138.842 102.586C138.791 102.607 138.736 102.618 138.681 102.618Z" fill="#282935"/>
<path d="M131.945 98.6797H128.296C128.036 98.6797 127.786 98.7834 127.602 98.9681C127.417 99.1527 127.314 99.4032 127.314 99.6643C127.314 99.9254 127.417 100.176 127.602 100.361C127.786 100.545 128.036 100.649 128.296 100.649H131.945C132.206 100.649 132.455 100.545 132.64 100.361C132.824 100.176 132.927 99.9254 132.927 99.6643C132.927 99.4032 132.824 99.1527 132.64 98.9681C132.455 98.7834 132.206 98.6797 131.945 98.6797ZM131.945 100.086H128.296C128.241 100.086 128.186 100.076 128.135 100.054C128.084 100.033 128.037 100.002 127.998 99.9631C127.959 99.9239 127.928 99.8773 127.906 99.826C127.885 99.7748 127.874 99.7198 127.874 99.6643C127.874 99.6088 127.885 99.5538 127.906 99.5025C127.928 99.4513 127.959 99.4047 127.998 99.3655C128.037 99.3263 128.084 99.2953 128.135 99.2741C128.186 99.253 128.241 99.2422 128.296 99.2423H131.945C132.056 99.2426 132.163 99.2872 132.242 99.3663C132.321 99.4454 132.365 99.5526 132.365 99.6643C132.365 99.776 132.321 99.8832 132.242 99.9623C132.163 100.041 132.056 100.086 131.945 100.086Z" fill="#282935"/>
<path d="M138.681 98.6797H135.032C134.772 98.6797 134.522 98.7834 134.338 98.9681C134.153 99.1527 134.05 99.4032 134.05 99.6643C134.05 99.9254 134.153 100.176 134.338 100.361C134.522 100.545 134.772 100.649 135.032 100.649H138.681C138.941 100.649 139.191 100.545 139.375 100.361C139.56 100.176 139.663 99.9254 139.663 99.6643C139.663 99.4032 139.56 99.1527 139.375 98.9681C139.191 98.7834 138.941 98.6797 138.681 98.6797ZM138.681 100.086H135.032C134.977 100.086 134.922 100.076 134.871 100.054C134.819 100.033 134.773 100.002 134.734 99.9631C134.695 99.9239 134.663 99.8773 134.642 99.826C134.621 99.7748 134.61 99.7198 134.61 99.6643C134.61 99.6088 134.621 99.5538 134.642 99.5025C134.663 99.4513 134.695 99.4047 134.734 99.3655C134.773 99.3263 134.819 99.2953 134.871 99.2741C134.922 99.253 134.977 99.2422 135.032 99.2423H138.681C138.792 99.2426 138.899 99.2872 138.978 99.3663C139.057 99.4454 139.101 99.5526 139.101 99.6643C139.101 99.776 139.057 99.8832 138.978 99.9623C138.899 100.041 138.792 100.086 138.681 100.086Z" fill="#282935"/>
<path d="M55.2803 93.1447C55.2803 93.1447 51.2929 110.019 56.1664 110.019C61.04 110.019 72.5593 90.9244 72.5593 90.9244C72.5593 90.9244 84.5216 84.7074 79.6481 82.4871C74.7745 80.2667 68.5718 86.0396 68.5718 86.0396L61.4148 95.999L61.04 90.9244L55.2803 93.1447Z" fill="#A0616A"/>
<path d="M64.5846 78.9344L61.9262 76.27C61.9262 76.27 56.6096 79.3785 56.1666 82.487C55.7235 85.5955 53.5083 95.3649 53.5083 95.3649L61.7047 96.031L64.363 92.0344L64.5846 78.9344Z" fill="#CFCCE0"/>
<path d="M219.803 71.6008C221.451 71.6008 222.787 70.2618 222.787 68.61C222.787 66.9582 221.451 65.6191 219.803 65.6191C218.155 65.6191 216.819 66.9582 216.819 68.61C216.819 70.2618 218.155 71.6008 219.803 71.6008Z" fill="#5E5E5E"/>
<path d="M279.035 68.3108H230.993V68.909H279.035V68.3108Z" fill="#3F3D56"/>
<path d="M219.803 104.558C221.451 104.558 222.787 103.219 222.787 101.567C222.787 99.9152 221.451 98.5762 219.803 98.5762C218.155 98.5762 216.819 99.9152 216.819 101.567C216.819 103.219 218.155 104.558 219.803 104.558Z" fill="#5E5E5E"/>
<path d="M279.035 101.268H230.993V101.866H279.035V101.268Z" fill="#3F3D56"/>
<path d="M219.803 137.986C221.451 137.986 222.787 136.647 222.787 134.995C222.787 133.343 221.451 132.004 219.803 132.004C218.155 132.004 216.819 133.343 216.819 134.995C216.819 136.647 218.155 137.986 219.803 137.986Z" fill="#5E5E5E"/>
<path d="M279.035 134.696H230.993V135.294H279.035V134.696Z" fill="#3F3D56"/>
<path d="M205.636 60.95H193.364C192.584 60.95 191.95 61.5839 191.95 62.3636V74.6364C191.95 75.416 192.584 76.05 193.364 76.05H205.636C206.416 76.05 207.05 75.4161 207.05 74.6364V62.3636C207.05 61.5839 206.416 60.95 205.636 60.95ZM206.268 74.6364C206.268 74.9846 205.985 75.2682 205.636 75.2682H193.364C193.015 75.2682 192.732 74.9846 192.732 74.6364V62.3636C192.732 62.0154 193.015 61.7318 193.364 61.7318H205.636C205.985 61.7318 206.268 62.0154 206.268 62.3636V74.6364Z" fill="#FFA412" stroke="#FFA412" stroke-width="0.1"/>
<path d="M199.5 69.0527L202.292 71.8444C202.368 71.9208 202.468 71.959 202.568 71.959C202.668 71.959 202.768 71.9208 202.844 71.8444L202.845 71.8444C202.997 71.6917 202.997 71.4443 202.845 71.2917C202.844 71.2917 202.844 71.2917 202.844 71.2917L200.053 68.4999L202.845 65.7081L202.845 65.7081C202.997 65.5554 202.997 65.308 202.844 65.1553C202.692 65.0026 202.444 65.0026 202.292 65.1553C202.292 65.1553 202.292 65.1554 202.292 65.1554L199.5 67.9471L196.708 65.1553C196.555 65.0026 196.308 65.0026 196.155 65.1553L199.5 69.0527ZM199.5 69.0527L196.708 71.8444L196.708 71.8444C196.632 71.9208 196.532 71.959 196.432 71.959C196.332 71.959 196.232 71.9208 196.155 71.8444L199.5 69.0527ZM196.155 65.1554C196.003 65.3081 196.003 65.5554 196.155 65.7081C196.155 65.7081 196.155 65.7081 196.155 65.7081L198.947 68.4999L196.155 71.2917L196.155 65.1554Z" fill="#FFA412" stroke="#FFA412" stroke-width="0.1"/>
<path d="M205.636 93.95H193.364C192.584 93.95 191.95 94.5839 191.95 95.3636V107.636C191.95 108.416 192.584 109.05 193.364 109.05H205.636C206.416 109.05 207.05 108.416 207.05 107.636V95.3636C207.05 94.5839 206.416 93.95 205.636 93.95ZM206.268 107.636C206.268 107.985 205.985 108.268 205.636 108.268H193.364C193.015 108.268 192.732 107.985 192.732 107.636V95.3636C192.732 95.0154 193.015 94.7318 193.364 94.7318H205.636C205.985 94.7318 206.268 95.0154 206.268 95.3636V107.636Z" fill="#F5B822" stroke="#F5B822" stroke-width="0.1"/>
<path d="M199.5 102.053L202.292 104.844C202.368 104.921 202.468 104.959 202.568 104.959C202.668 104.959 202.768 104.921 202.844 104.844L202.845 104.844C202.997 104.692 202.997 104.444 202.845 104.292C202.844 104.292 202.844 104.292 202.844 104.292L200.053 101.5L202.845 98.7081L202.845 98.7081C202.997 98.5554 202.997 98.308 202.844 98.1553C202.692 98.0026 202.444 98.0026 202.292 98.1553C202.292 98.1553 202.292 98.1554 202.292 98.1554L199.5 100.947L196.708 98.1553C196.555 98.0026 196.308 98.0026 196.155 98.1553L199.5 102.053ZM199.5 102.053L196.708 104.844L196.708 104.844C196.632 104.921 196.532 104.959 196.432 104.959C196.332 104.959 196.232 104.921 196.155 104.844L199.5 102.053ZM196.155 98.1554C196.003 98.3081 196.003 98.5554 196.155 98.7081C196.155 98.7081 196.155 98.7081 196.155 98.7081L198.947 101.5L196.155 104.292L196.155 98.1554Z" fill="#F5B822" stroke="#F5B822" stroke-width="0.1"/>
<path d="M205.636 126.95H193.364C192.584 126.95 191.95 127.584 191.95 128.364V140.636C191.95 141.416 192.584 142.05 193.364 142.05H205.636C206.416 142.05 207.05 141.416 207.05 140.636V128.364C207.05 127.584 206.416 126.95 205.636 126.95ZM206.268 140.636C206.268 140.985 205.985 141.268 205.636 141.268H193.364C193.015 141.268 192.732 140.985 192.732 140.636V128.364C192.732 128.015 193.015 127.732 193.364 127.732H205.636C205.985 127.732 206.268 128.015 206.268 128.364V140.636Z" fill="#FFA412" stroke="#FFA412" stroke-width="0.1"/>
<path d="M199.5 135.053L202.292 137.844C202.368 137.921 202.468 137.959 202.568 137.959C202.668 137.959 202.768 137.921 202.844 137.844L202.845 137.844C202.997 137.692 202.997 137.444 202.845 137.292C202.844 137.292 202.844 137.292 202.844 137.292L200.053 134.5L202.845 131.708L202.845 131.708C202.997 131.555 202.997 131.308 202.844 131.155C202.692 131.003 202.444 131.003 202.292 131.155C202.292 131.155 202.292 131.155 202.292 131.155L199.5 133.947L196.708 131.155C196.555 131.003 196.308 131.003 196.155 131.155L199.5 135.053ZM199.5 135.053L196.708 137.844L196.708 137.844C196.632 137.921 196.532 137.959 196.432 137.959C196.332 137.959 196.232 137.921 196.155 137.844L199.5 135.053ZM196.155 131.155C196.003 131.308 196.003 131.555 196.155 131.708C196.155 131.708 196.155 131.708 196.155 131.708L198.947 134.5L196.155 137.292L196.155 131.155Z" fill="#FFA412" stroke="#FFA412" stroke-width="0.1"/>
</g>
<defs>
<clipPath id="clip0">
<rect width="265" height="160" fill="white" transform="translate(19 50)"/>
</clipPath>
</defs>
</svg>
