<svg width="11" height="7" viewBox="0 0 11 7" fill="none" xmlns="http://www.w3.org/2000/svg">
<path d="M10.4995 5.06641C10.4999 4.93674 10.4752 4.80863 10.4272 4.69148C10.3791 4.57433 10.3091 4.47112 10.2221 4.38944L5.72267 0.197439C5.58848 0.0697853 5.42018 0 5.24648 0C5.07279 0 4.90448 0.0697853 4.77029 0.197439L0.270903 4.53698C0.117761 4.6843 0.0214555 4.89599 0.0031732 5.12549C-0.0151091 5.35499 0.046129 5.58349 0.173416 5.76073C0.300702 5.93797 0.483611 6.04943 0.681904 6.07059C0.880197 6.09175 1.07763 6.02088 1.23077 5.87356L5.25023 1.99401L9.26969 5.74337C9.37976 5.8495 9.5138 5.91692 9.65594 5.93765C9.79808 5.95837 9.94238 5.93154 10.0718 5.86032C10.2011 5.7891 10.3102 5.67649 10.386 5.53579C10.4618 5.39509 10.5012 5.23221 10.4995 5.06641Z" fill="#5E5E5E"/>
</svg>
