<svg width="25" height="25" viewBox="0 0 25 25" fill="none" xmlns="http://www.w3.org/2000/svg">
<path d="M24.2812 12.5C24.2812 6.00389 18.9961 0.71875 12.5 0.71875C6.00389 0.71875 0.71875 6.00389 0.71875 12.5C0.71875 18.9961 6.00389 24.2812 12.5 24.2812C18.9961 24.2812 24.2812 18.9961 24.2812 12.5ZM9.5156 16.7656C9.43229 16.8533 9.33226 16.9234 9.22141 16.9719C9.11057 17.0203 8.99115 17.046 8.8702 17.0476C8.74924 17.0491 8.6292 17.0264 8.51715 16.9809C8.4051 16.9353 8.30331 16.8678 8.21778 16.7822C8.13224 16.6967 8.0647 16.5949 8.01912 16.4828C7.97355 16.3708 7.95087 16.2508 7.95242 16.1298C7.95397 16.0089 7.97971 15.8894 8.02814 15.7786C8.07657 15.6677 8.1467 15.5677 8.23439 15.4844L11.2182 12.5L8.23439 9.5156C8.07161 9.34427 7.9822 9.11612 7.98523 8.8798C7.98825 8.64349 8.08348 8.4177 8.25059 8.25059C8.4177 8.08348 8.64349 7.98826 8.8798 7.98523C9.11612 7.9822 9.34427 8.07161 9.5156 8.23439L12.5 11.2182L15.4844 8.23439C15.6557 8.07161 15.8839 7.9822 16.1202 7.98523C16.3565 7.98826 16.5823 8.08348 16.7494 8.25059C16.9165 8.4177 17.0117 8.64349 17.0148 8.8798C17.0178 9.11612 16.9284 9.34427 16.7656 9.5156L13.7818 12.5L16.7656 15.4844C16.9284 15.6557 17.0178 15.8839 17.0148 16.1202C17.0117 16.3565 16.9165 16.5823 16.7494 16.7494C16.5823 16.9165 16.3565 17.0117 16.1202 17.0148C15.8839 17.0178 15.6557 16.9284 15.4844 16.7656L12.5 13.7818L9.5156 16.7656Z" fill="#CCCCCC"/>
</svg>
