<?xml version="1.0" encoding="utf-8"?>
<!-- Generator: Adobe Illustrator 24.3.0, SVG Export Plug-In . SVG Version: 6.00 Build 0)  -->
<svg version="1.1" id="Layer_1" xmlns="http://www.w3.org/2000/svg" xmlns:xlink="http://www.w3.org/1999/xlink" x="0px" y="0px"
	 viewBox="0 0 16 16" style="enable-background:new 0 0 16 16;" xml:space="preserve">
<style type="text/css">
	.st0{fill:#6C8D42;}
	.st1{fill:#FFFFFF;}
</style>
<g>
	<g>
		<path class="st0" d="M8.7,14.9c-3.8,0-6.9-3.1-6.9-6.9s3.1-6.9,6.9-6.9c3.8,0,6.9,3.1,6.9,6.9S12.5,14.9,8.7,14.9z"/>
		<path class="st1" d="M8.7,1.4c3.6,0,6.6,2.9,6.6,6.6s-2.9,6.6-6.6,6.6S2.1,11.6,2.1,8S5,1.4,8.7,1.4 M8.7,0.9
			C4.7,0.9,1.5,4.1,1.5,8c0,3.9,3.2,7.1,7.1,7.1s7.1-3.2,7.1-7.1C15.8,4.1,12.6,0.9,8.7,0.9L8.7,0.9z"/>
	</g>
	<g>
		<g>
			<path class="st0" d="M7.3,14.9c-3.8,0-6.9-3.1-6.9-6.9s3.1-6.9,6.9-6.9c3.8,0,6.9,3.1,6.9,6.9S11.1,14.9,7.3,14.9z"/>
			<path class="st1" d="M7.3,1.4c3.6,0,6.6,2.9,6.6,6.6s-2.9,6.6-6.6,6.6S0.7,11.6,0.7,8S3.7,1.4,7.3,1.4 M7.3,0.9
				C3.4,0.9,0.2,4.1,0.2,8c0,3.9,3.2,7.1,7.1,7.1s7.1-3.2,7.1-7.1C14.5,4.1,11.3,0.9,7.3,0.9L7.3,0.9z"/>
		</g>
		<g>
			<g>
				<path class="st0" d="M7.3,12.6c-2.5,0-4.6-2.1-4.6-4.6s2.1-4.6,4.6-4.6c2.5,0,4.6,2.1,4.6,4.6S9.9,12.6,7.3,12.6z"/>
				<path class="st1" d="M7.3,3.6c2.4,0,4.4,1.9,4.4,4.4c0,2.4-1.9,4.4-4.4,4.4C4.9,12.4,3,10.4,3,8C3,5.6,4.9,3.6,7.3,3.6 M7.3,3.1
					C4.6,3.1,2.4,5.3,2.4,8c0,2.7,2.2,4.9,4.9,4.9s4.9-2.2,4.9-4.9C12.2,5.3,10,3.1,7.3,3.1L7.3,3.1z"/>
			</g>
			<g>
				<path class="st1" d="M8.9,8.2C8.6,8,8.2,7.7,7.7,7.5c-0.9-0.3-1-0.6-1-0.7c0-0.2,0.1-0.3,0.2-0.4C7,6.3,7.2,6.3,7.5,6.3
					c0.5,0,0.8,0.1,1.1,0.3l0.1,0.1l0.6-0.8L9.1,5.8C8.7,5.6,8.3,5.5,8,5.5V4.6h-1v0.8C6.5,5.6,6.2,5.7,6,5.9
					C5.7,6.2,5.6,6.5,5.6,6.8c0,0.3,0.2,0.6,0.4,0.8c0.3,0.2,0.7,0.5,1.3,0.7c0.6,0.2,0.9,0.5,0.9,0.8c0,0.2-0.1,0.3-0.2,0.4
					C7.8,9.7,7.5,9.7,7.2,9.7C6.8,9.7,6.3,9.6,6,9.4L5.9,9.3L5.4,10l0.1,0.1c0.4,0.2,0.8,0.4,1.4,0.5v0.8h1v-0.8
					c0.4-0.1,0.7-0.3,1-0.5c0.3-0.3,0.4-0.6,0.4-0.9C9.3,8.7,9.1,8.4,8.9,8.2z"/>
			</g>
		</g>
	</g>
</g>
</svg>
